<?xml version="1.0" encoding="utf-8"?>
<!-- Generator: Adobe Illustrator 25.0.0, SVG Export Plug-In . SVG Version: 6.00 Build 0)  -->
<svg version="1.1" id="Layer_1" xmlns="http://www.w3.org/2000/svg" xmlns:xlink="http://www.w3.org/1999/xlink" x="0px" y="0px"
	 viewBox="0 0 69.7 67.8" style="enable-background:new 0 0 69.7 67.8;" xml:space="preserve">
<style type="text/css">
	.st0{fill:url(#Path_1_1_);}
	.st1{fill:url(#Path_2_1_);}
	.st2{fill:url(#Path_3_1_);}
	.st3{fill:url(#Path_4_1_);}
	.st4{fill:url(#Path_5_1_);}
	.st5{fill:url(#Path_6_1_);}
	.st6{fill-rule:evenodd;clip-rule:evenodd;fill:url(#Path_7_1_);}
	.st7{fill-rule:evenodd;clip-rule:evenodd;fill:url(#Path_8_1_);}
	.st8{fill-rule:evenodd;clip-rule:evenodd;fill:url(#Path_9_1_);}
	.st9{fill-rule:evenodd;clip-rule:evenodd;fill:url(#Path_10_1_);}
	.st10{fill-rule:evenodd;clip-rule:evenodd;fill:url(#Path_11_1_);}
	.st11{fill-rule:evenodd;clip-rule:evenodd;fill:url(#Path_12_1_);}
</style>
<g id="text" transform="translate(45.283 8.124)">
	
		<linearGradient id="Path_1_1_" gradientUnits="userSpaceOnUse" x1="-917.1569" y1="545.7006" x2="-917.1569" y2="544.7006" gradientTransform="matrix(17.8217 0 0 -21.899 16351.1084 11988.0996)">
		<stop  offset="0" style="stop-color:#0080BC"/>
		<stop  offset="1" style="stop-color:#00B0E8"/>
	</linearGradient>
	<path id="Path_1" class="st0" d="M14.7,59.4h-6c0-0.4-0.1-0.8-0.1-1.3c-1.1,0.9-2.5,1.5-4,1.6c-3.8,0-6.4-1.9-7.3-5.5
		c-0.9-2.9-0.4-6,1.4-8.4c2.3-2.9,6.5-3.4,9.4-1.1c0,0,0,0,0,0c0.1,0.1,0.3,0.2,0.4,0.2v-7.1h6.1L14.7,59.4z M8.7,51.6
		c0-1.9-0.7-3-2-3.4c-1.4-0.4-3,0.4-3.4,1.8c0,0,0,0.1,0,0.1c-0.6,2,0.2,4.3,1.7,4.8C7,55.6,8.7,54.1,8.7,51.6L8.7,51.6z"/>
	
		<linearGradient id="Path_2_1_" gradientUnits="userSpaceOnUse" x1="-914.4744" y1="537.6979" x2="-914.4744" y2="536.6979" gradientTransform="matrix(16.8997 0 0 -16.5146 15428.9414 8923.082)">
		<stop  offset="0" style="stop-color:#0080BC"/>
		<stop  offset="1" style="stop-color:#00B0E8"/>
	</linearGradient>
	<path id="Path_2" class="st1" d="M-17,53h-10.6c0.5,2.4,3.4,3.1,6.4,0.7l2.9,3.2c-1.4,1.5-3.3,2.5-5.3,2.6c-3.1,0.4-6,0-8.2-2.4
		c-2.3-2.7-2.7-6.4-1.2-9.6c1.6-3,4.8-4.7,8.1-4.4c3,0.2,5.6,1.3,6.9,4.2C-17.2,49.2-16.9,51.1-17,53z M-27.8,50c1.4,0,2.8,0,4.1,0
		c0.2,0,0.5,0,0.7-0.1c-0.2-1.6-0.8-2.4-2.1-2.5C-26.4,47.3-27.2,48.1-27.8,50L-27.8,50z"/>
	
		<linearGradient id="Path_3_1_" gradientUnits="userSpaceOnUse" x1="-901.2917" y1="545.7893" x2="-901.2917" y2="544.7893" gradientTransform="matrix(13.474 0 0 -21.9785 12105.4717 12033.0186)">
		<stop  offset="0" style="stop-color:#0080BC"/>
		<stop  offset="1" style="stop-color:#00B0E8"/>
	</linearGradient>
	<path id="Path_3" class="st2" d="M-43.2,59.4V48.2h-2.1v-3.9l2-0.1c0.2-0.3,0.2-0.7,0.1-1.1c0-3.1,1.5-4.9,4.5-5.5
		c2.3-0.5,4.7-0.1,6.8,1l-2,4.1c-1-0.3-1.9-1-2.9-0.2c-0.6,0.4-0.5,1-0.4,1.8h3.1v4h-3.1v11.2L-43.2,59.4z"/>
	
		<linearGradient id="Path_4_1_" gradientUnits="userSpaceOnUse" x1="-885.7273" y1="537.0371" x2="-885.7273" y2="536.0371" gradientTransform="matrix(10.872 0 0 -16.186 9620.4277 8735.7061)">
		<stop  offset="0" style="stop-color:#0080BC"/>
		<stop  offset="1" style="stop-color:#00B0E8"/>
	</linearGradient>
	<path id="Path_4" class="st3" d="M-8.7,59.4h-5.9V43.6h5.9v2.3c1.2-1.6,3-2.6,5-2.6v5.3c-0.1,0-0.1,0.1-0.2,0.1
		c-3.7-0.1-4.7,1-4.7,4.6C-8.7,55.3-8.7,57.3-8.7,59.4z"/>
	
		<linearGradient id="Path_5_1_" gradientUnits="userSpaceOnUse" x1="-816.3574" y1="536.3245" x2="-816.3574" y2="535.3245" gradientTransform="matrix(5.843 0 0 -15.846 4791.1968 8542.123)">
		<stop  offset="0" style="stop-color:#0080BC"/>
		<stop  offset="1" style="stop-color:#00B0E8"/>
	</linearGradient>
	<path id="Path_5" class="st4" d="M18.3,43.5h5.8v15.8h-5.8V43.5z"/>
	
		<linearGradient id="Path_6_1_" gradientUnits="userSpaceOnUse" x1="-824.9925" y1="483.6151" x2="-824.9925" y2="482.6151" gradientTransform="matrix(6.2 0 0 -6.2047 5136.2739 3036.5552)">
		<stop  offset="0" style="stop-color:#0080BC"/>
		<stop  offset="1" style="stop-color:#00B0E8"/>
	</linearGradient>
	<path id="Path_6" class="st5" d="M21.3,42.1c-1.7,0-3.1-1.4-3.1-3.1c0-1.7,1.4-3.1,3.1-3.1c1.7,0,3.1,1.4,3.1,3.1c0,0,0,0,0,0.1
		c0,1.6-1.3,3-2.9,3C21.4,42.1,21.4,42.1,21.3,42.1z"/>
</g>
<g id="icon">
	<linearGradient id="Path_7_1_" gradientUnits="userSpaceOnUse" x1="31.8504" y1="39.0182" x2="36.3199" y2="39.0182">
		<stop  offset="0" style="stop-color:#0080BC"/>
		<stop  offset="1" style="stop-color:#00B0E8"/>
	</linearGradient>
	<path id="Path_7" class="st6" d="M31.9,38.1c0.2,1.6,1.9,0.7,2.4,1.7c2.2,0.7,2.6-1.4,1.2-1.4c-0.7,0.1-1.4,0.1-2,0
		C32.8,38.2,32.5,37.9,31.9,38.1z"/>
	<linearGradient id="Path_8_1_" gradientUnits="userSpaceOnUse" x1="14.4987" y1="14.6967" x2="47.3757" y2="14.6967">
		<stop  offset="0" style="stop-color:#0080BC"/>
		<stop  offset="1" style="stop-color:#00B0E8"/>
	</linearGradient>
	<path id="Path_8" class="st7" d="M45.7,14.8c-0.2,0.4-0.5,0.8-0.8,1.2l-1,0.9c-0.3,0.2-0.1,0.1-0.3,0.3l-2,1.9
		c-0.1,0.2-0.1,0.3-0.2,0.5C41,20.8,41,22,41.5,23.1c0.2,0.8,0.2,1.6,0,2.4c-0.4,1-1.1,0.7-2.2,1.7c-1,1-0.2,0.7-0.1,1.3
		c0,0.1,0,0.2,0,0.4c0.1,0.7,0.8,0.6,0.8,0c0-0.4-0.1-0.7-0.2-1.1c0.3-0.3,0.6-0.5,0.9-0.7c0.4-0.2,0.7-0.3,1-0.6
		c0.6-0.7,0.8-1.5,0.7-2.4c0-0.5,0-0.9-0.3-1.4c-0.1-0.4-0.2-0.9-0.3-1.3c-0.3-1.8,1.1-2.7,2.4-3.8c0.2-0.2,0.5-0.5,0.8-0.8
		s0.1,0,0.3-0.3l1.3-2c0.2-0.6,0.4-1.1,0.6-1.7c0-0.2,0.1-0.6,0.1-0.7c0-0.3-0.1-0.3-0.2-0.5c-1.2-0.2-2.2,0.7-3.4,0.7
		c-0.1-0.1-0.3-0.3-0.3-0.5c-0.2-0.4,0-0.2-0.3-0.4l-1.1-0.9c-0.4-0.3-0.3-0.3-0.5-0.6c-0.2-0.6,0-0.6-0.6-0.9
		c-0.3-0.2-0.6-0.6-0.6-1c-0.1-0.6-0.3-1.1-0.8-1.5c-0.1-0.1-0.2-0.3-0.3-0.4c-0.3-0.2-0.1-0.2-0.3-0.4c-0.7-1-0.2-0.5-0.2-1.7
		c0-0.2,0-0.4-0.1-0.6c-0.1-0.5,0-0.7-1.5-0.8c-1.2-0.1-0.9,0.4-2.7,0c-0.2,0-0.4-0.1-0.6-0.2c-0.1,0-1.2-1.1-2,0.1
		c-0.1,0.2-0.2,0.3-0.2,0.5c-0.7,0-1.6-0.8-2.1-0.9c-1.1-0.3-1,0.2-0.7-0.8C29.3-0.2,28.5,0,27.8,0c-1.1,0-2.3-0.1-3.3,0
		c-0.7,0.2-1.2,0.8-2.1,0.4c-1.3-0.6-1.2,0.1-1.7,0.5c-1.1,0.9-1.4,0.8-1.8,2.1c-0.3,0.9-1.3,0.5-1.8,1.3c-0.2,0.3-0.3,0.6-0.6,0.9
		c-0.6,0.7-0.5,0-1,1.1c-0.4,0.8-0.7,1-0.4,2c0.1,0.7,0,1.4-0.4,2.1c-0.5,0.8,0.2,2.1,0.7,2.9l0.7,1c0.3,0.4,0.7,0.8,1,1.2
		c0.1,0.1,0.2,0.2,0.3,0.3l0.8,0.5c0.4,0.3,0.9,0.5,1.5,0.4c0.4-0.1,0.8-0.1,1.2-0.1c0.4,0,0.9,0,1.3,0c0.7,0,0.7-0.6,1.9-0.7
		c0.5,0,0.6,0.2,0.8,0.5c0.4,0.7,1.4,0.1,2.1,0.5c0.2,0.6-0.5,1.3-0.3,2.3c0.2,0.6,0.6,1.1,1,1.5c0.4,0.5,0.7,1.1,0.9,1.7
		c0.7,1.7,0.4,1.5-0.2,2.7c-0.2,0.3-0.3,0.6-0.3,0.9c-0.1,0.6,0,1.1,0.2,1.6l0.2,0.3l0,0c0,0,0,0,0,0c0,0,0,0.1,0.1,0.1l0.2,0.2
		c0.3,0.3,0.4,0.7,0.5,1.2h0.8c-0.2-0.7-0.5-1.4-0.9-2c-0.1-0.2-0.1,0-0.2-0.2c0-0.1-0.1-0.2-0.1-0.3c-0.3-0.9,0.3-1.5,0.8-2.4
		s0-1.8-0.3-2.7l-0.6-1.1c-0.3-0.5-0.6-0.6-0.9-1.1c-0.2-0.3-0.4-0.5-0.4-0.9c0-0.5,0.3-0.9,0.3-1.4c0.2-2-1.8-1-2.2-1.4
		c-0.2-0.3-0.5-0.5-0.8-0.7c-0.2-0.1-0.1,0-0.2-0.1c-0.6,0-1.1,0.1-1.7,0.3c-1.2,0.5-0.2,0.5-2.5,0.4c-0.3,0-0.6,0-0.8,0.1
		c-0.5,0.1-1.3-0.5-1.6-0.8c-0.5-0.6-0.6-0.4-0.8-0.7l-0.1-0.2c0,0,0,0,0,0l-1.5-2.1c-0.1-0.2-0.2-0.5-0.3-0.7
		c-0.2-0.6,0.5-0.7,0.6-2.3C16,7.9,15.4,8,16.2,6.5c0.5-0.9,0.4,0,1.4-1.6c0.6-0.9,1.5,0,2-1.9c0.2-0.9,0.3-0.5,1.5-1.5
		c0.2-0.2,0.3-0.4,0.5-0.5c0.3,0,0.8,0.7,2.1,0.2C24,1,24.3,0.9,24.5,0.9c1.2-0.1,2.5-0.1,3.7,0c0,0.2-0.1,0.5-0.2,0.7
		c-0.2,0.3-0.3,0.1-0.3,0.7c0.4,0.3,0.4,0.5,1,0.6c1.5,0.3,0.7,0.2,2.3,0.9c0.3,0.1,1.1,0.3,1.4,0c0.2-0.2,0-1.3,0.7-0.9
		c0.2,0.1,0.3,0.2,0.5,0.3c0.9,0.3,1.9,0.4,2.9,0.2c0.5,0,1,0,1.4,0.1c0.1,0.3,0.1,0.7,0.1,1c-0.2,0.3-0.2,0.7,0,1
		c0.2,0.4,0.4,0.8,0.7,1.1l0,0l0.1,0.1c0.1,0.1,0,0,0.1,0.2C39.2,7.3,39,7,39.3,7.3c0,0,0,0.1,0.1,0.1l0.1,0.1c0,0,0,0,0,0
		c0.2,0.3,0.3,0.6,0.3,1c0.2,0.9,0.7,0.8,1,1.4c0.1,0.1,0.3,0.7,0.4,0.8l0.9,0.9c0.1,0.1,0.3,0.1,0.4,0.2c0.2,0.2,0.3,0.4,0.5,0.7
		s0.1,0.5,0.6,0.6c0.4,0,0.8,0,1.1-0.1c0.6-0.2,1.3-0.4,1.8-0.6C46.4,13.3,46.1,14.1,45.7,14.8z"/>
	<linearGradient id="Path_9_1_" gradientUnits="userSpaceOnUse" x1="29.3047" y1="30.5746" x2="40.4139" y2="30.5746">
		<stop  offset="0" style="stop-color:#0080BC"/>
		<stop  offset="1" style="stop-color:#00B0E8"/>
	</linearGradient>
	<path id="Path_9" class="st8" d="M29.3,29.1c0-0.2,0.2-0.4,0.4-0.4c0.2,0,0.4,0.1,0.4,0.4c0.1,1.6,1.5,2.3,3.1,2.5
		c1.8,0.2,3.6,0.2,5.4-0.1c0.4,0,0.7-0.2,1-0.5c0-0.1,0.1-0.1,0.1-0.2c0-0.1,0-0.1-0.1-0.2c-0.2-0.2-0.4-0.3-0.6-0.3
		c-1.1-0.2-2.3-0.1-3.4,0c-1.1,0.1-2.1,0.3-3.1,0.7c-0.2,0.1-0.4,0-0.5-0.1c-0.1-0.2,0-0.4,0.1-0.5c0,0,0,0,0.1,0
		c1.1-0.4,2.2-0.7,3.4-0.8c1.2-0.2,2.4-0.2,3.6,0c0.4,0.1,0.8,0.3,1.1,0.6c0.1,0.2,0.2,0.4,0.2,0.6c0,0.2-0.1,0.5-0.2,0.6
		c-0.4,0.4-0.9,0.7-1.4,0.8c0,0,0,0-0.1,0c-1.9,0.3-3.7,0.3-5.6,0.1C31.1,32,29.5,31.1,29.3,29.1z"/>
	<linearGradient id="Path_10_1_" gradientUnits="userSpaceOnUse" x1="29.6855" y1="33.6545" x2="40.4108" y2="33.6545">
		<stop  offset="0" style="stop-color:#0080BC"/>
		<stop  offset="1" style="stop-color:#00B0E8"/>
	</linearGradient>
	<path id="Path_10" class="st9" d="M30.7,32c0.2-0.1,0.4,0,0.5,0.2c0.1,0.2,0,0.4-0.2,0.5c0,0,0,0,0,0c-0.2,0-0.3,0.1-0.4,0.2
		c0,0-0.1,0.1-0.1,0.2c0,0.1,0,0.2,0.1,0.3l0,0c0.1,0.2,0.3,0.3,0.5,0.4c1.1,0.5,2.3,0.8,3.6,0.7c1.3,0,2.6-0.1,3.9-0.2
		c0.4,0,0.7-0.2,1-0.4c0,0,0-0.1,0-0.1c0,0,0,0,0,0l0,0c-0.2-0.1-0.4-0.2-0.6-0.2c-1.1-0.1-2.3-0.1-3.4,0c-1.1,0.1-2.1,0.3-3.2,0.6
		c-0.2,0.1-0.4,0-0.5-0.2c-0.1-0.2,0-0.4,0.2-0.5c1.1-0.4,2.2-0.6,3.4-0.7c1.2-0.1,2.4-0.1,3.6,0c0.4,0,0.8,0.2,1.1,0.5l0,0
		c0.1,0.2,0.2,0.4,0.2,0.6c0,0.2-0.1,0.4-0.2,0.6c-0.4,0.4-0.9,0.6-1.5,0.7l0,0h0c-1.3,0.1-2.7,0.2-4.1,0.2c-1.4,0-2.7-0.2-3.9-0.8
		c-0.3-0.2-0.5-0.4-0.7-0.7l0,0c-0.1-0.2-0.2-0.4-0.2-0.7c0-0.3,0.1-0.5,0.3-0.7C30.2,32.2,30.4,32.1,30.7,32z"/>
	<linearGradient id="Path_11_1_" gradientUnits="userSpaceOnUse" x1="29.6855" y1="36.3532" x2="40.4108" y2="36.3532">
		<stop  offset="0" style="stop-color:#0080BC"/>
		<stop  offset="1" style="stop-color:#00B0E8"/>
	</linearGradient>
	<path id="Path_11" class="st10" d="M30.7,34.7c0.2-0.1,0.4,0,0.5,0.2c0.1,0.2,0,0.4-0.2,0.5c0,0,0,0,0,0c-0.2,0-0.3,0.1-0.4,0.2
		c0,0-0.1,0.1-0.1,0.2c0,0.1,0,0.2,0.1,0.3l0,0c0.1,0.2,0.3,0.3,0.5,0.4c1.1,0.5,2.3,0.8,3.6,0.7c1.3,0,2.6-0.1,3.9-0.2
		c0.4,0,0.7-0.2,1-0.4c0,0,0,0,0-0.1c0,0,0,0,0,0l0,0c-0.2-0.1-0.4-0.2-0.6-0.2c-1.1-0.1-2.3-0.1-3.4,0c-1.1,0.1-2.1,0.3-3.2,0.6
		c-0.2,0.1-0.4,0-0.5-0.2c-0.1-0.2,0-0.4,0.2-0.5c1.1-0.4,2.2-0.6,3.4-0.7c1.2-0.1,2.4-0.1,3.6,0c0.4,0,0.8,0.2,1.1,0.5l0,0
		c0.1,0.2,0.2,0.4,0.2,0.6c0,0.2-0.1,0.4-0.2,0.6c-0.4,0.4-0.9,0.6-1.5,0.7l0,0h0C37.3,38,36,38,34.6,38c-1.4,0-2.7-0.2-3.9-0.8
		c-0.3-0.2-0.5-0.4-0.7-0.7l0,0c-0.1-0.2-0.2-0.4-0.2-0.7c0-0.3,0.1-0.5,0.3-0.7C30.2,34.9,30.4,34.8,30.7,34.7z"/>
	<linearGradient id="Path_12_1_" gradientUnits="userSpaceOnUse" x1="25.5444" y1="16.4983" x2="38.1072" y2="16.4983">
		<stop  offset="0" style="stop-color:#0080BC"/>
		<stop  offset="1" style="stop-color:#00B0E8"/>
	</linearGradient>
	<path id="Path_12" class="st11" d="M26.8,12.3l0-0.2v0c0-0.2-0.1-0.4-0.2-0.6l0,0c0,0,0,0.2-0.2,0.5c0,0.1,0,0.2,0,0.2c0,0,0,0,0,0
		l0,0c0,0,0,0,0.1,0C26.5,12.3,26.6,12.3,26.8,12.3z M32.7,12.7c-0.2-0.1-0.3-0.3-0.2-0.5s0.3-0.3,0.5-0.2c0,0,0,0,0,0
		c0.6,0.3,1.3,0.2,1.8-0.3c0.4-0.6,0.7-1.3,0.8-2l0.3-1.6C36.1,7,36,6.4,35.8,6.2c0-0.1-0.1-0.1-0.2-0.1c-0.1,0-0.2,0-0.2,0.1
		c-0.4,0.3-0.6,0.7-0.7,1.2l-0.2,1.1c-0.1,0.3-0.1,0.7,0,1c0,0.3,0.2,0.5,0.5,0.6c0.2,0.1,0.3,0.3,0.2,0.5s-0.3,0.3-0.5,0.2
		c-0.5-0.2-0.8-0.6-0.9-1.2c-0.1-0.4-0.1-0.9,0-1.3l0.2-1.1C34,6.4,34.4,5.8,35,5.4c0.2-0.1,0.5-0.2,0.7-0.1c0.3,0,0.5,0.2,0.6,0.4
		c0.4,0.8,0.5,1.7,0.2,2.6l-0.3,1.6c-0.1,0.9-0.5,1.7-1,2.4C34.6,12.9,33.6,13.1,32.7,12.7L32.7,12.7z M29.3,12.7
		c-0.2-0.1-0.3-0.3-0.2-0.5s0.3-0.3,0.5-0.2c0,0,0,0,0,0c0.6,0.3,1.3,0.2,1.8-0.3c0.4-0.6,0.7-1.3,0.8-2l0.3-1.6
		c0.2-1.1,0.1-1.7-0.1-1.9c0-0.1-0.1-0.1-0.2-0.1c-0.1,0-0.2,0-0.2,0.1c-0.4,0.3-0.6,0.7-0.7,1.2l-0.2,1.1c-0.1,0.3-0.1,0.7,0,1
		c0,0.3,0.2,0.5,0.5,0.6c0.2,0.1,0.3,0.3,0.2,0.5s-0.3,0.3-0.5,0.2c-0.5-0.2-0.8-0.6-0.9-1.2c-0.1-0.4-0.1-0.9,0-1.3l0.2-1.1
		c0.1-0.7,0.5-1.4,1.1-1.7c0.2-0.1,0.5-0.2,0.7-0.1c0.3,0,0.5,0.2,0.6,0.4c0.4,0.8,0.5,1.7,0.2,2.6l-0.3,1.6c-0.1,0.9-0.5,1.7-1,2.4
		C31.2,12.9,30.1,13.1,29.3,12.7L29.3,12.7z M28.5,12.1c-0.1,0.2-0.4,0.2-0.5,0c-0.2-0.1-0.2-0.4,0-0.5l0,0c0.2-0.3,0.4-0.5,0.5-0.8
		c0.1-0.4,0.2-0.7,0.3-1.1L29,8.1c0.2-1.1,0.1-1.7-0.1-1.9c0-0.1-0.1-0.1-0.2-0.1c-0.1,0-0.2,0-0.2,0.1c-0.4,0.3-0.6,0.7-0.7,1.2
		l-0.2,1.1c-0.1,0.3-0.1,0.7,0,1c0,0.3,0.2,0.5,0.5,0.6c0.2,0.1,0.3,0.3,0.2,0.5s-0.3,0.3-0.5,0.2c-0.5-0.2-0.8-0.6-0.9-1.2
		c-0.1-0.4-0.1-0.9,0-1.3l0.2-1.1c0.1-0.7,0.5-1.4,1.1-1.7c0.2-0.1,0.5-0.2,0.7-0.1c0.3,0,0.5,0.2,0.6,0.4c0.4,0.8,0.5,1.7,0.2,2.6
		l-0.3,1.6c-0.1,0.4-0.2,0.8-0.3,1.2C29,11.4,28.8,11.8,28.5,12.1L28.5,12.1z M36.9,12.1l0,0.2c0.1,0,0.3,0,0.4,0c0,0,0,0,0.1,0l0,0
		c0,0,0,0,0,0c0-0.1,0-0.2,0-0.2c-0.1-0.3-0.2-0.5-0.2-0.5l0,0C37,11.7,37,11.9,36.9,12.1L36.9,12.1z M35.5,27.7
		c-0.4-3-0.8-13.2,0.7-15.8l0,0c0.2-0.7,0.4-1.1,0.7-1.2l0,0c0.4-0.1,0.8,0.2,1.1,0.9l0,0c0.1,0.2,0.1,0.5,0.1,0.7
		c0,0.1-0.1,0.3-0.2,0.4l0,0c-0.1,0.1-0.2,0.2-0.3,0.2c-0.3,0.1-0.6,0.1-0.8,0.1c-1.3,2.5-0.8,12.2-0.5,14.6L35.5,27.7z M30.8,27.6
		c1.2-3.1-1.6-13-3.8-14.6c-0.3,0-0.6,0-0.8-0.1c-0.1,0-0.2-0.1-0.3-0.2l0,0c-0.1-0.1-0.2-0.2-0.2-0.4c-0.1-0.2,0-0.5,0.1-0.7l0,0
		c0.3-0.8,0.7-1,1.1-0.9l0,0c0.3,0.1,0.6,0.5,0.7,1.2l0,0c1.9,1.8,5.1,11.9,4.1,15.7L30.8,27.6z"/>
</g>
</svg>
