<?xml version="1.0" encoding="UTF-8"?>
<svg width="24px" height="24px" viewBox="0 0 24 24" version="1.1" xmlns="http://www.w3.org/2000/svg" xmlns:xlink="http://www.w3.org/1999/xlink">
    <title>27) Icon/cloud-upload</title>
    <defs>
        <path d="M11.305,11.28 C11.699,10.904 12.322,10.907 12.707,11.293 L12.707,11.293 L15.707,14.293 C16.098,14.684 16.098,15.316 15.707,15.707 C15.512,15.902 15.256,16 15,16 C14.744,16 14.488,15.902 14.293,15.707 L14.293,15.707 L13,14.414 L13,20 C13,20.553 12.552,21 12,21 C11.448,21 11,20.553 11,20 L11,20 L11,14.356 L9.695,15.616 C9.298,16.001 8.665,15.988 8.281,15.591 C7.897,15.193 7.908,14.561 8.305,14.177 L8.305,14.177 Z M11.9998,2.9999 C14.5808,2.9999 16.8548,4.6609 17.6748,7.0449 C20.1138,7.3759 21.9998,9.4719 21.9998,11.9999 C21.9998,13.2209 21.5558,14.3959 20.7498,15.3089 C20.5518,15.5319 20.2768,15.6470252 19.9998,15.6470252 C19.7648,15.6470252 19.5288,15.5649 19.3378,15.3969 C18.9248,15.0299 18.8848,14.3989 19.2508,13.9839 C19.7338,13.4379 19.9998,12.7319 19.9998,11.9999 C19.9998,10.3459 18.6538,8.9999 16.9998,8.9999 L16.9998,8.9999 L16.8998,8.9999 C16.4238,8.9999 16.0138,8.6639 15.9198,8.1969 C15.5458,6.3449 13.8978,4.9999 11.9998,4.9999 C10.1028,4.9999 8.4538,6.3449 8.0808,8.1969 C7.9868,8.6639 7.5758,8.9999 7.0998,8.9999 L7.0998,8.9999 L6.9998,8.9999 C5.3458,8.9999 3.9998,10.3459 3.9998,11.9999 C3.9998,12.7319 4.2658,13.4379 4.7498,13.9839 C5.1148,14.3989 5.0758,15.0299 4.6618,15.3969 C4.2478,15.7629 3.6158,15.7219 3.2508,15.3089 C2.4438,14.3959 1.9998,13.2209 1.9998,11.9999 C1.9998,9.4719 3.8858,7.3759 6.3248,7.0449 C7.1458,4.6609 9.4198,2.9999 11.9998,2.9999 Z" id="path-1"></path>
    </defs>
    <g id="27)-Icon/cloud-upload" stroke="none" stroke-width="1" fill="none" fill-rule="evenodd">
        <mask id="mask-2" fill="white">
            <use xlink:href="#path-1"></use>
        </mask>
        <use id="🎨-Icon-Сolor" fill="#616161" xlink:href="#path-1"></use>
    </g>
</svg>