<svg xmlns="http://www.w3.org/2000/svg" width="20" height="20" viewBox="0 0 20 20"><defs><style>.a{fill:none;}.b{fill:#00A6E6;}</style></defs><g transform="translate(0.037)"><rect class="a" width="20" height="20" transform="translate(-0.037)"/><path class="b" d="M11.336,22.543a4.614,4.614,0,0,0-2.119.508,4.7,4.7,0,0,0-1.216.9,4.7,4.7,0,0,0-1.216-.9,4.614,4.614,0,0,0-2.119-.508A4.67,4.67,0,0,0,0,27.207c0,1.822.962,3.756,2.859,5.751a27.65,27.65,0,0,0,4.872,3.924L8,37.056l.269-.174a27.65,27.65,0,0,0,4.872-3.924C15.038,30.964,16,29.029,16,27.207A4.67,4.67,0,0,0,11.336,22.543Zm1.088,9.733A26.171,26.171,0,0,1,8,35.875a26.171,26.171,0,0,1-4.424-3.6C1.86,30.472.99,28.767.99,27.207A3.675,3.675,0,0,1,7.6,25l.4.527L8.4,25a3.675,3.675,0,0,1,6.615,2.2C15.01,28.767,14.14,30.472,12.424,32.276Z" transform="translate(2 -19.543)"/></g></svg>