<svg xmlns="http://www.w3.org/2000/svg" width="20" height="20" viewBox="0 0 20 20"><defs><style>.a{fill:none;}.b{fill:#00A6E6;}</style></defs><g transform="translate(0.037)"><rect class="a" width="20" height="20" transform="translate(-0.037)"/><g transform="translate(2.001 2)"><g transform="translate(4)"><path class="b" d="M137.813,0a4.772,4.772,0,1,0,4.734,4.772A4.758,4.758,0,0,0,137.813,0Zm0,8.631a3.86,3.86,0,1,1,3.822-3.86A3.845,3.845,0,0,1,137.813,8.631Z" transform="translate(-133.079)"/><path class="b" d="M.094-2.865H.545V-4.2h.782l.715,1.336h.951V-4.2h.629v1.336h.472v.435H3.621v.34h.472v.438H3.621V-.2H2.882l-.791-1.45H1.174V-.2H.545v-1.45H.094V-2.09H.545v-.34H.094Zm2.365.775h.534v-.34H2.275Zm-1.285,0h.681L1.67-2.43h-.5ZM3.008-1.066h.006A2.684,2.684,0,0,1,3-1.468v-.184h-.3ZM1.167-3.389H1.152a2.174,2.174,0,0,1,.018.36v.165h.264l-.19-.36Q1.192-3.328,1.167-3.389Z" transform="translate(2.904 7.201)"/></g><path class="b" d="M30.715,317.494a2.3,2.3,0,0,0-3.182,0l-1.406,1.368h-.667a2.195,2.195,0,0,0,.452-1.334.463.463,0,0,0-.469-.456H23.886a3.753,3.753,0,0,1-1.514-.462,4.937,4.937,0,0,0-1.759-.549,5.087,5.087,0,0,0-1.709.181,1.485,1.485,0,0,0-1.083,1.283h-1.51a.463.463,0,0,0-.469.456v3.57a.463.463,0,0,0,.469.456h9.568a2.092,2.092,0,0,0,1.468-.592l3.368-3.277A.447.447,0,0,0,30.715,317.494Zm-13.935.943h1.035V321.1H16.78Zm9.9,2.334a1.147,1.147,0,0,1-.805.324H18.752v-3.448a.559.559,0,0,1,.412-.529,4.128,4.128,0,0,1,1.387-.148,4.159,4.159,0,0,1,1.421.464,4.524,4.524,0,0,0,1.915.55h1.005a1.371,1.371,0,0,1-1.224.877c-.016,0-2.42,0-2.42,0a.456.456,0,1,0,0,.912l5.073,0a.475.475,0,0,0,.331-.134l1.544-1.5a1.323,1.323,0,0,1,.928-.374,1.34,1.34,0,0,1,.536.111Z" transform="translate(-15.842 -306.007)"/></g></g></svg>