<?xml version="1.0" encoding="UTF-8"?>
<svg width="24px" height="24px" viewBox="0 0 24 24" version="1.1" xmlns="http://www.w3.org/2000/svg" xmlns:xlink="http://www.w3.org/1999/xlink">
    <title>27) Icon/plus-circle-fill</title>
    <defs>
        <path d="M15,13 L13,13 L13,15 C13,15.55 12.55,16 12,16 C11.45,16 11,15.55 11,15 L11,13 L9,13 C8.45,13 8,12.55 8,12 C8,11.45 8.45,11 9,11 L11,11 L11,9 C11,8.45 11.45,8 12,8 C12.55,8 13,8.45 13,9 L13,11 L15,11 C15.55,11 16,11.45 16,12 C16,12.55 15.55,13 15,13 M12,2 C6.486,2 2,6.486 2,12 C2,17.514 6.486,22 12,22 C17.514,22 22,17.514 22,12 C22,6.486 17.514,2 12,2" id="path-1"></path>
    </defs>
    <g id="27)-Icon/plus-circle-fill" stroke="none" stroke-width="1" fill="none" fill-rule="evenodd">
        <mask id="mask-2" fill="white">
            <use xlink:href="#path-1"></use>
        </mask>
        <use id="🎨-Icon-Сolor" fill="#616161" xlink:href="#path-1"></use>
    </g>
</svg>