<svg xmlns="http://www.w3.org/2000/svg" width="29.09" height="29.033" viewBox="0 0 29.09 29.033"><defs><style>.a{fill:#fff;}</style></defs><g transform="translate(-250.999 -304)"><path class="a" d="M311.437,308.669v-4.763h-2.268v4.763h-4.763v2.268h4.763V315.7h2.268v-4.763H316.2v-2.268Z" transform="translate(-36.111 17.333)"/><path class="a" d="M14.517.5A8.39,8.39,0,0,0,9.768,15.807,14.54,14.54,0,0,0,0,29.532H2.268A12.262,12.262,0,0,1,14.517,17.284,8.392,8.392,0,0,0,14.517.5Zm0,14.517a6.124,6.124,0,1,1,6.124-6.124A6.131,6.131,0,0,1,14.517,15.016Z" transform="translate(250.999 303.501)"/></g></svg>