<svg xmlns="http://www.w3.org/2000/svg" xmlns:xlink="http://www.w3.org/1999/xlink" width="115" height="40" viewBox="0 0 115 40"><defs><style>.a{fill:url(#a);}.b{fill:#fff;}.b,.c{fill-rule:evenodd;}.c{fill:#0095da;}</style><linearGradient id="a" x1="0.5" x2="0.5" y2="1" gradientUnits="objectBoundingBox"><stop offset="0" stop-color="#007cb8"/><stop offset="1" stop-color="#11b3f2"/></linearGradient></defs><g transform="translate(45.283 8.124)"><path class="a" d="M383.705,159.078h-6c-.029-.421-.055-.807-.09-1.32a6.97,6.97,0,0,1-3.969,1.611c-3.775.008-6.375-1.882-7.316-5.532a9.214,9.214,0,0,1,1.407-8.372,6.719,6.719,0,0,1,9.454-1.107,3.836,3.836,0,0,0,.415.223V137.47h6.1Zm-6.052-7.809c0-1.858-.656-2.984-1.985-3.4a2.717,2.717,0,0,0-3.422,1.931c-.631,2,.194,4.26,1.744,4.789C376.015,155.278,377.651,153.8,377.654,151.269Z" transform="translate(-323.685 -135.553)"/><path class="a" d="M286.089,164.284h-10.58c.541,2.429,3.381,3.125,6.444.723l2.916,3.21a8.183,8.183,0,0,1-5.324,2.633c-3.067.366-5.975-.03-8.244-2.407a8.823,8.823,0,0,1-1.195-9.587,8.222,8.222,0,0,1,8.1-4.361c3.028.236,5.559,1.331,6.927,4.239A12.731,12.731,0,0,1,286.089,164.284Zm-10.823-3.045c1.44,0,2.783,0,4.127,0a5.458,5.458,0,0,0,.688-.089c-.211-1.643-.83-2.35-2.113-2.453C276.632,158.586,275.809,159.314,275.266,161.24Z" transform="translate(-257.765 -147.141)"/><path class="a" d="M235.342,158.176v-11.13h-2.124v-3.939l2.007-.1a1.784,1.784,0,0,0,.141-1.082c.027-3.072,1.468-4.943,4.489-5.522a10.368,10.368,0,0,1,6.837.971l-2.014,4.1c-.961-.325-1.9-.961-2.886-.179-.555.44-.5,1.021-.357,1.75h3.1V147H241.4v11.178Z" transform="translate(-233.218 -134.689)"/><path class="a" d="M335.426,170.681h-5.94V154.836h5.894v2.291a6.468,6.468,0,0,1,4.978-2.632v5.333c-.067.036-.135.1-.2.1-3.666-.056-4.726.97-4.731,4.585C335.424,166.536,335.426,168.559,335.426,170.681Z" transform="translate(-298.846 -147.159)"/><path class="a" d="M433.021,155.46h5.843v15.846h-5.843Z" transform="translate(-369.428 -147.817)"/><path class="a" d="M435.83,137.639a3.1,3.1,0,1,1,3.134-3A2.964,2.964,0,0,1,435.83,137.639Z" transform="translate(-369.247 -131.447)"/></g><path class="b" d="M151.173,231.65c.238,1.642,1.9.712,2.444,1.735,2.156.7,2.648-1.356,1.2-1.391a7.24,7.24,0,0,1-2.048-.048C152.084,231.755,151.812,231.383,151.173,231.65Z" transform="translate(-133.816 -193.531)"/><path class="b" d="M127.841,127.946a8.872,8.872,0,0,1-.756,1.225l-1.046.942c-.264.216-.116.145-.287.332l-1.989,1.919c-.091.152-.138.285-.229.46a4.785,4.785,0,0,0,.084,3.393,4.371,4.371,0,0,1,.031,2.4c-.4.967-1.138.7-2.2,1.7-1.019.964-.233.69-.114,1.335a3.3,3.3,0,0,1,.049.354c.053.725.823.646.762-.017a7.819,7.819,0,0,0-.194-1.064,3.431,3.431,0,0,1,.915-.672c.4-.243.708-.276.988-.562a3.017,3.017,0,0,0,.731-2.388,2.494,2.494,0,0,0-.259-1.365,4.852,4.852,0,0,1-.264-1.293c-.264-1.838,1.084-2.743,2.4-3.807.243-.2.528-.533.8-.754s.115-.023.307-.312l1.306-2.049a10.339,10.339,0,0,0,.559-1.747c.027-.152.084-.585.087-.727.006-.28-.108-.342-.182-.489-1.246-.154-2.169.683-3.394.683a1.177,1.177,0,0,1-.319-.49c-.186-.416-.022-.152-.334-.41l-1.081-.9c-.389-.28-.329-.274-.481-.641-.241-.583-.031-.577-.6-.891a1.284,1.284,0,0,1-.587-.965,2.3,2.3,0,0,0-.79-1.515,3.317,3.317,0,0,0-.341-.4c-.259-.242-.148-.2-.317-.429-.712-.986-.2-.469-.231-1.72a2.668,2.668,0,0,0-.1-.631c-.119-.543.029-.653-1.494-.8-1.215-.114-.853.358-2.7.042a2.377,2.377,0,0,1-.574-.163c-.106-.045-1.22-1.087-2,.146a3.5,3.5,0,0,0-.216.522c-.668-.014-1.616-.8-2.078-.949-1.05-.332-.961.186-.685-.776.457-1.59-.382-1.325-1.063-1.325-1.064,0-2.3-.055-3.333.006-.687.151-1.246.773-2.117.384-1.33-.593-1.242.125-1.7.494-1.147.928-1.351.752-1.782,2.134-.293.941-1.335.539-1.773,1.262a3.81,3.81,0,0,1-.578.852c-.6.71-.541.023-1.02,1.09-.358.8-.656,1-.428,1.971a2.772,2.772,0,0,1-.407,2.051c-.5.845.2,2.124.719,2.876l.687.992a7.544,7.544,0,0,0,1.048,1.185c.122.124.207.233.334.349l.755.547a1.782,1.782,0,0,0,1.467.361,3.8,3.8,0,0,1,1.151-.128c.427,0,.875.013,1.3,0,.67-.017.724-.618,1.912-.7.528-.036.615.156.815.488.4.673,1.416.128,2.109.488.165.645-.451,1.337-.267,2.265a3.735,3.735,0,0,0,1.042,1.506,4.41,4.41,0,0,1,.889,1.662c.714,1.677.425,1.536-.2,2.708a2.147,2.147,0,0,0-.341.914,2.406,2.406,0,0,0,.225,1.632l.189.306.021.041c.006.014.013.031.019.044a.809.809,0,0,0,.058.13l.162.208a2.983,2.983,0,0,1,.54,1.151h.774a5.6,5.6,0,0,0-.9-2.01c-.123-.165-.06,0-.195-.24a2.117,2.117,0,0,1-.122-.314c-.308-.9.328-1.463.781-2.376s-.016-1.787-.311-2.654l-.552-1.13c-.263-.533-.631-.592-.934-1.112-.167-.286-.4-.482-.394-.889.012-.509.257-.9.3-1.382.175-1.957-1.8-1.009-2.242-1.423a2.673,2.673,0,0,0-.765-.721c-.161-.1-.056.012-.2-.126a4.606,4.606,0,0,0-1.667.343c-1.193.517-.186.457-2.54.447a2.375,2.375,0,0,0-.832.138c-.512.105-1.313-.5-1.578-.835-.469-.6-.59-.421-.764-.725l-.109-.2c-.007-.01-.02-.023-.028-.033L97.7,125.042a3.064,3.064,0,0,1-.261-.74c-.173-.614.453-.731.618-2.285.1-.946-.516-.891.333-2.395.481-.853.367.031,1.414-1.566.6-.918,1.51-.038,2.04-1.932.247-.883.3-.457,1.452-1.529a2.777,2.777,0,0,1,.546-.5c.283-.024.788.716,2.147.164a3.506,3.506,0,0,1,.646-.277,35.387,35.387,0,0,1,3.683-.014,2.226,2.226,0,0,1-.187.674c-.208.32-.328.1-.294.651.38.3.374.49.96.623,1.5.341.748.209,2.291.927.317.147,1.072.286,1.361.047.176-.178-.01-1.305.735-.921a5.435,5.435,0,0,0,.522.286,5.235,5.235,0,0,0,2.864.182,6.087,6.087,0,0,1,1.432.094,2.169,2.169,0,0,1,.074.992,1.225,1.225,0,0,0-.043,1.038,4.717,4.717,0,0,0,.737,1.126l.028.033.093.094c.1.1.049.023.143.168.292.452.153.186.391.476.012.014.043.057.054.071l.056.067c.008.01.021.023.029.033a2.093,2.093,0,0,1,.276.972c.168.888.729.83,1.011,1.414.062.13.326.673.4.78l.921.878c.125.08.255.119.4.218.224.151.308.382.5.738s.149.512.615.571a2.97,2.97,0,0,0,1.148-.084c.57-.169,1.3-.39,1.849-.582A6.082,6.082,0,0,1,127.841,127.946Z" transform="translate(-96.64 -113.131)"/><path class="b" d="M143.176,202.818a.389.389,0,0,1,.776-.055c.112,1.578,1.46,2.268,3.12,2.525a21.055,21.055,0,0,0,5.4-.118,1.625,1.625,0,0,0,.96-.48.343.343,0,0,0,.079-.192.254.254,0,0,0-.055-.156.948.948,0,0,0-.6-.3,12.52,12.52,0,0,0-3.377.006,11.219,11.219,0,0,0-3.148.749.388.388,0,1,1-.328-.7,11.96,11.96,0,0,1,3.389-.819,13.291,13.291,0,0,1,3.608,0,1.7,1.7,0,0,1,1.084.6,1.015,1.015,0,0,1,.2.637,1.108,1.108,0,0,1-.237.639,2.353,2.353,0,0,1-1.417.771.406.406,0,0,1-.059.012,21.708,21.708,0,0,1-5.616.112C144.951,205.744,143.321,204.868,143.176,202.818Z" transform="translate(-128.364 -173.724)"/><path class="b" d="M145.381,212.65a.389.389,0,1,1,.25.736,1.064,1.064,0,0,0-.407.22.2.2,0,0,0-.069.154.526.526,0,0,0,.107.256h0a1.551,1.551,0,0,0,.49.432,8.109,8.109,0,0,0,3.582.715,32.61,32.61,0,0,0,3.947-.2,1.746,1.746,0,0,0,1-.408.163.163,0,0,0,.046-.081.093.093,0,0,0-.025-.045l-.013-.016a1.077,1.077,0,0,0-.605-.239,15.276,15.276,0,0,0-3.4,0,13.375,13.375,0,0,0-3.167.62.388.388,0,0,1-.277-.724,14.057,14.057,0,0,1,3.371-.669,16.05,16.05,0,0,1,3.589,0,1.786,1.786,0,0,1,1.074.5l.027.03a.833.833,0,0,1,.2.567.906.906,0,0,1-.231.558,2.466,2.466,0,0,1-1.463.671h0l-.027,0a33.4,33.4,0,0,1-4.063.2,8.831,8.831,0,0,1-3.947-.815,2.35,2.35,0,0,1-.746-.664h0a1.287,1.287,0,0,1-.247-.663.955.955,0,0,1,.3-.738A1.79,1.79,0,0,1,145.381,212.65Z" transform="translate(-129.184 -180.628)"/><path class="b" d="M145.381,221.13a.389.389,0,1,1,.25.736,1.064,1.064,0,0,0-.407.22.2.2,0,0,0-.069.154.526.526,0,0,0,.107.256h0a1.558,1.558,0,0,0,.49.433,8.119,8.119,0,0,0,3.582.714,32.824,32.824,0,0,0,3.947-.2,1.752,1.752,0,0,0,1-.409.168.168,0,0,0,.046-.08.1.1,0,0,0-.025-.046l-.013-.016a1.08,1.08,0,0,0-.605-.239,15.278,15.278,0,0,0-3.4,0,13.361,13.361,0,0,0-3.167.62.388.388,0,0,1-.277-.724,14.056,14.056,0,0,1,3.371-.669,16.049,16.049,0,0,1,3.589,0,1.785,1.785,0,0,1,1.074.5l.027.03a.834.834,0,0,1,.2.567.906.906,0,0,1-.231.558,2.466,2.466,0,0,1-1.463.671h0l-.027,0a33.407,33.407,0,0,1-4.063.2,8.8,8.8,0,0,1-3.947-.815,2.342,2.342,0,0,1-.746-.664h0a1.283,1.283,0,0,1-.247-.663.954.954,0,0,1,.3-.738A1.787,1.787,0,0,1,145.381,221.13Z" transform="translate(-129.184 -186.409)"/><path class="c" d="M132.6,136.751l-.046-.179,0-.009a2.442,2.442,0,0,0-.192-.649h0c-.025-.006-.032.165-.178.5a.468.468,0,0,0-.039.246.051.051,0,0,0,.013.023h0a.172.172,0,0,0,.065.037A.922.922,0,0,0,132.6,136.751Zm5.892.347a.383.383,0,1,1,.261-.72,1.52,1.52,0,0,0,1.806-.265,4.367,4.367,0,0,0,.81-1.991l.33-1.6c.217-1.053.133-1.659-.081-1.925a.274.274,0,0,0-.169-.109.408.408,0,0,0-.241.052,1.521,1.521,0,0,0-.678,1.157l-.16,1.085a3.174,3.174,0,0,0-.029,1.041.816.816,0,0,0,.479.614.383.383,0,1,1-.321.7,1.539,1.539,0,0,1-.908-1.157,3.774,3.774,0,0,1,.02-1.305l.16-1.085a2.29,2.29,0,0,1,1.091-1.73,1.157,1.157,0,0,1,.707-.123,1.017,1.017,0,0,1,.645.387,3.155,3.155,0,0,1,.235,2.556l-.33,1.6a5.052,5.052,0,0,1-.994,2.35A2.213,2.213,0,0,1,138.492,137.1Zm-3.409,0a.383.383,0,1,1,.261-.72,1.52,1.52,0,0,0,1.806-.265,4.37,4.37,0,0,0,.81-1.991l.33-1.6c.217-1.053.133-1.659-.081-1.925a.277.277,0,0,0-.169-.109.406.406,0,0,0-.241.052,1.522,1.522,0,0,0-.678,1.157l-.16,1.085a3.166,3.166,0,0,0-.029,1.041.816.816,0,0,0,.479.614.383.383,0,0,1-.321.7,1.541,1.541,0,0,1-.908-1.157,3.813,3.813,0,0,1,.02-1.305l.161-1.085a2.288,2.288,0,0,1,1.091-1.73,1.155,1.155,0,0,1,.707-.123,1.021,1.021,0,0,1,.646.387,3.152,3.152,0,0,1,.234,2.556l-.329,1.6a5.048,5.048,0,0,1-.993,2.35A2.213,2.213,0,0,1,135.083,137.1Zm-.756-.542a.382.382,0,0,1-.585-.492,2.912,2.912,0,0,0,.465-.847,7.39,7.39,0,0,0,.3-1.1l.33-1.6c.217-1.053.132-1.659-.082-1.925a.273.273,0,0,0-.168-.109.405.405,0,0,0-.241.052,1.519,1.519,0,0,0-.678,1.157l-.16,1.085a3.166,3.166,0,0,0-.029,1.041.814.814,0,0,0,.479.614.383.383,0,1,1-.321.7,1.541,1.541,0,0,1-.908-1.157,3.814,3.814,0,0,1,.02-1.305l.16-1.085a2.291,2.291,0,0,1,1.092-1.73,1.155,1.155,0,0,1,.707-.123,1.021,1.021,0,0,1,.646.387,3.152,3.152,0,0,1,.234,2.556l-.329,1.6a8.187,8.187,0,0,1-.336,1.212A3.648,3.648,0,0,1,134.327,136.555Zm8.423.017-.046.179a.926.926,0,0,0,.38-.034.172.172,0,0,0,.065-.037h0a.051.051,0,0,0,.013-.023.463.463,0,0,0-.04-.246c-.146-.332-.152-.5-.177-.5h0a2.444,2.444,0,0,0-.192.649ZM141.3,152.142c-.383-2.956-.757-13.175.706-15.752h0c.164-.7.406-1.124.739-1.215h0c.389-.105.751.187,1.085.939l.009.023a1.193,1.193,0,0,1,.065.71.805.805,0,0,1-.213.377h0a.943.943,0,0,1-.344.214,1.8,1.8,0,0,1-.831.062c-1.272,2.456-.787,12.195-.451,14.643Zm-4.717-.069c1.156-3.068-1.612-12.969-3.8-14.574a1.792,1.792,0,0,1-.83-.062.945.945,0,0,1-.345-.214h0a.805.805,0,0,1-.213-.377,1.188,1.188,0,0,1,.065-.71l.009-.023c.334-.752.7-1.044,1.085-.939h0c.333.092.575.514.74,1.215h0c1.884,1.769,5.106,11.885,4.052,15.683Z" transform="translate(-120.317 -124.439)"/></svg>