<?xml version="1.0" encoding="UTF-8"?>
<svg width="18px" height="20px" viewBox="0 0 12 14" version="1.1" xmlns="http://www.w3.org/2000/svg" xmlns:xlink="http://www.w3.org/1999/xlink">
    <title>27) Icon/edit-2</title>
    <g id="Graveyard" stroke="none" stroke-width="1" fill="none" fill-rule="evenodd">
        <g id="Vegetarian" transform="translate(-360.000000, -9.000000)" fill="#00a6e6">
            <g id="27)-Icon/edit-2" transform="translate(358.000000, 8.000000)">
                <path d="M4.0684,10.5823333 L6.05306667,10.4016667 L9.7864,6.665 L7.98906667,4.867 L4.2444,8.61166667 L4.0684,10.5823333 Z M8.8824,3.97433333 L10.6790667,5.771 L11.9770667,4.471 L10.1810667,2.675 L8.8824,3.97433333 Z M2.86173333,11.7903333 C2.72173333,11.6503333 2.65173333,11.4556667 2.66906667,11.2583333 L2.92173333,8.47833333 C2.94973333,8.17366667 3.0844,7.88633333 3.30173333,7.669 L9.29906667,1.67166667 C9.76706667,1.20166667 10.6157333,1.225 11.1097333,1.71766667 L12.9350667,3.543 L12.9357333,3.54366667 C13.4457333,4.05433333 13.4664,4.86633333 12.9810667,5.353 L6.98306667,11.351 C6.7664,11.5676667 6.47906667,11.7023333 6.17373333,11.7303333 L3.39373333,11.983 C3.37373333,11.9843333 3.35373333,11.985 3.33306667,11.985 C3.15773333,11.985 2.98773333,11.9156667 2.86173333,11.7903333 L2.86173333,11.7903333 Z M13.3330667,13.985 C13.3330667,14.3516667 13.0330667,14.6516667 12.6664,14.6516667 L3.33306667,14.6516667 C2.96706667,14.6516667 2.6664,14.3516667 2.6664,13.985 C2.6664,13.619 2.96706667,13.3183333 3.33306667,13.3183333 L12.6664,13.3183333 C13.0330667,13.3183333 13.3330667,13.619 13.3330667,13.985 L13.3330667,13.985 Z" id="🎨-Icon-Сolor"></path>
            </g>
        </g>
    </g>
</svg>