<?xml version="1.0" encoding="utf-8"?>
<!-- Generator: Adobe Illustrator 16.0.0, SVG Export Plug-In . SVG Version: 6.00 Build 0)  -->
<!DOCTYPE svg PUBLIC "-//W3C//DTD SVG 1.1//EN" "http://www.w3.org/Graphics/SVG/1.1/DTD/svg11.dtd">
<svg version="1.1" id="arrow-down-short" xmlns="http://www.w3.org/2000/svg" xmlns:xlink="http://www.w3.org/1999/xlink" x="0px"
	 y="0px" width="12px" height="12px" viewBox="0 0 12 12" enable-background="new 0 0 12 12" xml:space="preserve">
<path id="Path_108" fill="#FFFFFF" d="M5.777,11.747c-0.316-0.343-0.316-0.87,0-1.213l4.271-4.535L5.777,1.464
	c-0.313-0.344-0.313-0.869,0-1.213c0.289-0.315,0.779-0.337,1.096-0.048C6.889,0.218,6.905,0.234,6.92,0.251l4.842,5.141
	c0.316,0.343,0.316,0.871,0,1.213L6.92,11.747c-0.146,0.16-0.354,0.251-0.571,0.252C6.131,11.998,5.925,11.906,5.777,11.747z"/>
<path id="Path_109" fill="#FFFFFF" d="M0,5.999c0.017-0.461,0.404-0.822,0.865-0.807h8.653c0.462-0.016,0.849,0.345,0.864,0.807
	C10.367,6.46,9.98,6.821,9.519,6.806H0.866C0.404,6.821,0.017,6.46,0,5.999z"/>
</svg>
