<svg id="notifications" xmlns="http://www.w3.org/2000/svg" width="30" height="30" viewBox="0 0 30 30">
  <rect id="Rectangle_184" data-name="Rectangle 184" width="30" height="30" fill="none"/>
  <path id="notifications-2" data-name="notifications" d="M15.837,7.556a8.34,8.34,0,0,1,1.379.258A5.879,5.879,0,0,1,21.7,13.575v7.362l.538.54.449.451H8.873l.449-.451.538-.54V13.575a5.879,5.879,0,0,1,4.481-5.761,10.213,10.213,0,0,1,1.379-.258m.058-4.181a1.764,1.764,0,0,0-1.792,1.8v.84a7.778,7.778,0,0,0-5.973,7.56v6.6l-2.389,2.4v1.2H25.933v-1.2l-2.389-2.4v-6.6a7.778,7.778,0,0,0-5.973-7.56v-.84a1.764,1.764,0,0,0-1.792-1.8Zm2.389,21.6H13.39a2.389,2.389,0,1,0,4.778,0Z" transform="translate(-0.625 -0.375)" fill="rgba(255,255,255,0.9)"/>
</svg>
