<?xml version="1.0" encoding="utf-8"?>
<!-- Generator: Adobe Illustrator 25.1.0, SVG Export Plug-In . SVG Version: 6.00 Build 0)  -->
<svg version="1.1" id="Layer_1" xmlns="http://www.w3.org/2000/svg" xmlns:xlink="http://www.w3.org/1999/xlink" x="0px" y="0px"
	 viewBox="0 0 64.1 63.1" style="enable-background:new 0 0 64.1 63.1;" xml:space="preserve">
<style type="text/css">
	.st0{fill:#102F51;}
	.st1{fill:#21A4DD;}
</style>
<path class="st0" d="M31.7,63.1c-7,0-14,0-21,0C4,63,0.2,59.8,0.1,53.3C0,38.8,0,24.3,0.1,9.8C0.2,3.5,3.9,0.1,10.2,0
	C24.7,0,39.2,0,53.7,0c6.4,0,10.2,3.3,10.3,9.6c0.2,14.6,0.2,29.3,0,43.9c-0.1,6.3-3.9,9.5-10.3,9.6C46.3,63.1,39,63.1,31.7,63.1z"
	/>
<path class="st1" d="M42.1,32.4c0.1,5.1-4.1,9.2-9.1,9.2c-4.8-0.1-8.8-4.1-8.9-8.9c-0.1-5.1,4.1-9.2,9.1-9.2
	C38,23.6,42,27.6,42.1,32.4z"/>
</svg>
