<svg xmlns="http://www.w3.org/2000/svg" width="18.614" height="17.4" viewBox="0 0 18.614 17.4"><defs><style>.a{fill:#00a6e6;stroke:#00a6e6;stroke-width:0.4px;}</style></defs><path class="a" d="M16.393,2H1.821A1.846,1.846,0,0,0,0,3.821V13.839a1.846,1.846,0,0,0,1.821,1.821H4.25V18.7a.3.3,0,0,0,.194.283.3.3,0,0,0,.334-.079l2.945-3.24h8.669a1.846,1.846,0,0,0,1.821-1.821V3.821A1.846,1.846,0,0,0,16.393,2Zm1.214,11.839a1.231,1.231,0,0,1-1.214,1.214H8.251L9.337,13.79a.3.3,0,0,0-.461-.4L7.359,15.159l-2.5,2.753V15.357a.3.3,0,0,0-.3-.3H1.821A1.231,1.231,0,0,1,.607,13.839V3.821A1.231,1.231,0,0,1,1.821,2.607H16.393a1.231,1.231,0,0,1,1.214,1.214Z" transform="translate(0.2 -1.8)"/></svg>