<svg xmlns="http://www.w3.org/2000/svg" width="25.065" height="25.065" viewBox="0 0 25.065 25.065"><defs><style>.a{fill:#fff;}</style></defs><path class="a" d="M22.452,54.278H20.362a.367.367,0,1,0,0,.734h2.089A1.884,1.884,0,0,1,24.331,56.9V70.919A1.884,1.884,0,0,1,22.452,72.8H2.613A1.883,1.883,0,0,1,.734,70.919v-2.6a.367.367,0,0,0-.734,0v2.6a2.619,2.619,0,0,0,2.613,2.618h7.454l-.739,2.414H7.7a.367.367,0,1,0,0,.734h9.665a.367.367,0,1,0,0-.734H15.737L15,73.537h7.454a2.619,2.619,0,0,0,2.613-2.618V56.9A2.619,2.619,0,0,0,22.452,54.278ZM10.1,75.951l.739-2.414H14.23l.739,2.414Z" transform="translate(0 -51.621)"/><path class="a" d="M.367,66.98a.367.367,0,0,0,.367-.367V56.9a1.884,1.884,0,0,1,1.879-1.884H3.68a.367.367,0,1,0,0-.734H2.613A2.619,2.619,0,0,0,0,56.9v9.716a.367.367,0,0,0,.367.367Z" transform="translate(0 -51.622)"/><path class="a" d="M427,83.931a1.163,1.163,0,0,0-1.161-1.163h-1.307a.367.367,0,1,0,0,.734h1.307a.428.428,0,0,1,.427.428v7.2a.367.367,0,1,0,.734,0Z" transform="translate(-403.404 -78.716)"/><path class="a" d="M52.059,96.558v-3.7a.367.367,0,0,0-.734,0v3.7a.428.428,0,0,1-.427.428H31.085a.428.428,0,0,1-.427-.428V83.931a.428.428,0,0,1,.427-.428h.691a.367.367,0,0,0,0-.734h-.691a1.163,1.163,0,0,0-1.161,1.163V96.558a1.163,1.163,0,0,0,1.161,1.163H50.9A1.163,1.163,0,0,0,52.059,96.558Z" transform="translate(-28.459 -78.716)"/><path class="a" d="M56.922,402.976a.367.367,0,1,0,0,.734h1.5a.367.367,0,1,0,0-.734Z" transform="translate(-53.786 -383.248)"/><path class="a" d="M116.922,402.976a.367.367,0,1,0,0,.734h1.5a.367.367,0,1,0,0-.734Z" transform="translate(-110.849 -383.248)"/><path class="a" d="M92.788,16.833a8.421,8.421,0,0,0,7.258-4.142.367.367,0,1,0-.632-.374,7.731,7.731,0,0,1-1.7,2q-.453-.2-.939-.367a11.547,11.547,0,0,0,1.284-5.163h2.407a7.645,7.645,0,0,1-.4,2.1.367.367,0,1,0,.7.236A8.421,8.421,0,0,0,92.788,0a8.341,8.341,0,0,0-3.815.911,8.5,8.5,0,0,0-2.725,2.2A1.223,1.223,0,0,0,85.022,5.15a8.341,8.341,0,0,0-.658,3.266A8.43,8.43,0,0,0,92.788,16.833ZM85.107,8.784h2.407A11.546,11.546,0,0,0,88.8,13.946q-.483.162-.935.365A7.669,7.669,0,0,1,85.107,8.784Zm3.437,6.037q.314-.125.644-.229a6.468,6.468,0,0,0,.8.982A7.677,7.677,0,0,1,88.544,14.82Zm3.876,1.253a3.818,3.818,0,0,1-2.482-1.69,12.17,12.17,0,0,1,2.482-.319Zm0-2.743a12.8,12.8,0,0,0-2.9.4,10.685,10.685,0,0,1-1.27-4.948H92.42V9.79a1.223,1.223,0,0,0,0,2.335V13.33Zm.734,2.743V14.065a12.171,12.171,0,0,1,2.482.319A3.818,3.818,0,0,1,93.155,16.073Zm3.879-1.252q-.185.123-.378.235a7.618,7.618,0,0,1-1.075.518,6.465,6.465,0,0,0,.806-.984Q96.718,14.7,97.034,14.822Zm.415-8.52a.489.489,0,1,1,.49-.489A.49.49,0,0,1,97.449,6.3Zm3.019,1.748H98.061c-.01-.382-.036-.762-.078-1.136A1.223,1.223,0,0,0,97.5,4.589a9.75,9.75,0,0,0-.718-1.7q.483-.162.935-.365A7.669,7.669,0,0,1,100.468,8.049ZM97.031,2.013q-.314.125-.644.229a6.6,6.6,0,0,0-.669-.842q-.069-.073-.139-.142A7.673,7.673,0,0,1,97.031,2.013ZM93.155.76a3.867,3.867,0,0,1,2.479,1.69,12.172,12.172,0,0,1-2.479.318Zm0,2.743a12.8,12.8,0,0,0,2.9-.4,8.834,8.834,0,0,1,.731,1.682,1.223,1.223,0,0,0,.469,2.237c.037.339.061.683.071,1.029H93.155Zm0,5.281h4.172a10.686,10.686,0,0,1-1.27,4.948,12.8,12.8,0,0,0-2.9-.4V12.125a1.223,1.223,0,0,0,0-2.335Zm-.367,1.685a.489.489,0,1,1-.49.489A.49.49,0,0,1,92.788,10.468ZM92.42.76V2.768a12.171,12.171,0,0,1-2.485-.319A3.842,3.842,0,0,1,92.42.76Zm-3.115.806q.345-.175.7-.314a6.443,6.443,0,0,0-.817.991q-.331-.105-.648-.231A7.616,7.616,0,0,1,89.305,1.565ZM85.88,3.79a.489.489,0,1,1-.49.489A.49.49,0,0,1,85.88,3.79Zm-.2,1.7a1.223,1.223,0,0,0,1.173-1.952A7.765,7.765,0,0,1,87.86,2.52q.453.2.938.366a10.061,10.061,0,0,0-.875,2.241.367.367,0,1,0,.71.187A9.282,9.282,0,0,1,89.516,3.1a12.8,12.8,0,0,0,2.9.4V8.049H88.249c.011-.381.038-.761.082-1.133A.367.367,0,1,0,87.6,6.83c-.047.4-.077.809-.088,1.219H85.107a7.59,7.59,0,0,1,.571-2.564Z" transform="translate(-80.234)"/><path class="a" d="M71.421,298.688H69.847a.367.367,0,1,0,0,.734h1.573a.367.367,0,1,0,0-.734Z" transform="translate(-66.079 -284.066)"/><path class="a" d="M69.48,334.055a.367.367,0,0,0,.367.367H72.4a.367.367,0,0,0,0-.734H69.847A.367.367,0,0,0,69.48,334.055Z" transform="translate(-66.079 -317.352)"/></svg>