<svg xmlns="http://www.w3.org/2000/svg" width="30" height="30" viewBox="0 0 30 30"><defs><style>.a{opacity:0.7;}.b,.c,.e{fill:none;}.b{stroke:#fff;}.d,.f{stroke:none;}.f{fill:#fff;}</style></defs><g class="a" transform="translate(-335 -24)"><g class="b" transform="translate(335 24)"><rect class="d" width="30" height="30" rx="15"/><rect class="e" x="0.5" y="0.5" width="29" height="29" rx="14.5"/></g><g class="c" transform="translate(336.5 27.5)"><path class="d" d="M8.309,17.449a1.623,1.623,0,0,0,1.619,1.619H16.4a1.623,1.623,0,0,0,1.619-1.619V7.737H8.309ZM18.83,5.309H16L15.188,4.5H11.142l-.809.809H7.5V6.928H18.83Z"/><path class="f" d="M 16.40214157104492 18.06714057922363 C 16.73745155334473 18.06714057922363 17.02072143554688 17.78387069702148 17.02072143554688 17.44857025146484 L 17.02072143554688 8.737140655517578 L 9.309290885925293 8.737140655517578 L 9.309290885925293 17.44857025146484 C 9.309290885925293 17.78387069702148 9.592560768127441 18.06714057922363 9.927861213684082 18.06714057922363 L 16.40214157104492 18.06714057922363 M 15.20186233520508 5.927860260009766 L 14.77400684356689 5.500000476837158 L 11.55601119995117 5.500000476837158 L 11.12815093994141 5.927860260009766 L 15.20186233520508 5.927860260009766 M 16.40214157104492 19.06714057922363 L 9.927861213684082 19.06714057922363 C 9.037640571594238 19.06714057922363 8.309290885925293 18.33877944946289 8.309290885925293 17.44857025146484 L 8.309290885925293 7.73714017868042 L 18.02072143554688 7.73714017868042 L 18.02072143554688 17.44857025146484 C 18.02072143554688 18.33877944946289 17.29236030578613 19.06714057922363 16.40214157104492 19.06714057922363 Z M 18.83000183105469 6.927860260009766 L 7.500000953674316 6.927860260009766 L 7.500000953674316 5.309290409088135 L 10.33250045776367 5.309290409088135 L 11.14179134368896 4.500000476837158 L 15.1882209777832 4.500000476837158 L 15.99750137329102 5.309290409088135 L 18.83000183105469 5.309290409088135 L 18.83000183105469 6.927860260009766 Z"/></g></g></svg>