<svg xmlns="http://www.w3.org/2000/svg" width="30" height="30" viewBox="0 0 30 30"><defs><style>.a,.b{fill:none;}.c,.d{stroke:none;}.d{fill:rgba(255,255,255,0.9);}</style></defs><g transform="translate(-1116 -41)"><rect class="a" width="30" height="30" transform="translate(1116 41)"/><g class="b" transform="translate(1114.5 39.5)"><path class="c" d="M8.833,25.833A2.675,2.675,0,0,0,11.5,28.5H22.167a2.675,2.675,0,0,0,2.667-2.667v-16h-16Zm17.333-20H21.5L20.167,4.5H13.5L12.167,5.833H7.5V8.5H26.167Z"/><path class="d" d="M 22.16666221618652 26.50000190734863 C 22.52803230285645 26.50000190734863 22.83333206176758 26.1947021484375 22.83333206176758 25.83333206176758 L 22.83333206176758 11.83333206176758 L 10.83333206176758 11.83333206176758 L 10.83333206176758 25.83333206176758 C 10.83333206176758 26.1947021484375 11.13863182067871 26.50000190734863 11.50000190734863 26.50000190734863 L 22.16666221618652 26.50000190734863 M 22.16666221618652 28.50000190734863 L 11.50000190734863 28.50000190734863 C 10.03333187103271 28.50000190734863 8.833332061767578 27.30000114440918 8.833332061767578 25.83333206176758 L 8.833332061767578 9.833332061767578 L 24.83333206176758 9.833332061767578 L 24.83333206176758 25.83333206176758 C 24.83333206176758 27.30000114440918 23.63333129882813 28.50000190734863 22.16666221618652 28.50000190734863 Z M 26.16666221618652 8.500001907348633 L 7.500001907348633 8.500001907348633 L 7.500001907348633 5.833332061767578 L 12.16666221618652 5.833332061767578 L 13.50000190734863 4.500001907348633 L 20.16666221618652 4.500001907348633 L 21.50000190734863 5.833332061767578 L 26.16666221618652 5.833332061767578 L 26.16666221618652 8.500001907348633 Z"/></g></g></svg>