<?xml version="1.0" encoding="utf-8"?>
<!-- Generator: Adobe Illustrator 16.0.0, SVG Export Plug-In . SVG Version: 6.00 Build 0)  -->
<!DOCTYPE svg PUBLIC "-//W3C//DTD SVG 1.1//EN" "http://www.w3.org/Graphics/SVG/1.1/DTD/svg11.dtd">
<svg version="1.1" id="Layer_1" xmlns="http://www.w3.org/2000/svg" xmlns:xlink="http://www.w3.org/1999/xlink" x="0px" y="0px"
	 width="19.21px" height="18.422px" viewBox="0 0 19.21 18.422" enable-background="new 0 0 19.21 18.422" xml:space="preserve">
<g transform="translate(0.15 0.15)">
	<path fill="#FFFFFF" d="M5.929,9.457c-0.247,0-0.446-0.2-0.446-0.446v-8.03c0-0.246,0.201-0.445,0.447-0.445
		c0.246,0,0.444,0.199,0.445,0.445v8.03C6.375,9.257,6.175,9.457,5.929,9.457z"/>
	<path fill="#FFFFFF" d="M18.909,7.288c0.003,0.466-0.181,0.915-0.509,1.245c0.37,0.407,0.552,0.952,0.5,1.5
		c-0.129,1.032-1.015,1.803-2.055,1.785h-4.867c0.358,1.016,0.569,2.077,0.627,3.152c0,1.709-1.451,3.152-2.363,3.152
		c-0.515-0.008-1.014-0.176-1.428-0.48c-0.094-0.075-0.148-0.189-0.147-0.311v-2.67L6.4,9.746L6.3,9.698v0.15
		c0,0.218-0.177,0.395-0.394,0.395H1.97C0.883,10.241,0.002,9.36,0,8.273v-6.3c0-1.088,0.882-1.97,1.97-1.97h2.363
		c0.83,0.001,1.571,0.52,1.854,1.3c0.651-0.317,1.362-0.492,2.086-0.515H15.5c0.843-0.012,1.582,0.558,1.785,1.376
		c0.09,0.399,0.04,0.817-0.143,1.184c0.869,0.437,1.223,1.493,0.789,2.364C18.529,6.01,18.908,6.62,18.909,7.288z M17.247,6.316
		c-0.216-0.025-0.371-0.22-0.347-0.437c0.012-0.092,0.055-0.178,0.121-0.241c0.395-0.367,0.418-0.985,0.051-1.379
		c-0.161-0.172-0.378-0.281-0.612-0.306c-0.216-0.025-0.371-0.221-0.346-0.437c0.011-0.092,0.054-0.178,0.12-0.242
		c0.258-0.239,0.367-0.598,0.285-0.94c-0.121-0.458-0.541-0.772-1.016-0.758H8.273C7.526,1.588,6.8,1.822,6.188,2.25
		C6.035,2.404,5.785,2.405,5.631,2.251c-0.074-0.074-0.116-0.175-0.116-0.28c0-0.653-0.529-1.182-1.182-1.182H1.97
		c-0.652,0-1.181,0.529-1.182,1.181v6.3C0.787,8.923,1.316,9.454,1.969,9.455c0,0,0,0,0.001,0h3.545V9.061
		c0.001-0.137,0.072-0.264,0.188-0.336c0.116-0.07,0.261-0.077,0.383-0.017l0.788,0.394c0.08,0.04,0.144,0.106,0.181,0.187
		l2.364,5.122c0.024,0.051,0.036,0.107,0.036,0.164v2.545c0.241,0.135,0.512,0.209,0.788,0.213c0.947-0.405,1.565-1.332,1.575-2.363
		c-0.09-1.166-0.346-2.313-0.762-3.405c-0.078-0.202,0.023-0.43,0.227-0.508c0.045-0.017,0.094-0.026,0.143-0.026h5.422
		c0.635,0.02,1.182-0.441,1.27-1.07c0.041-0.449-0.176-0.882-0.561-1.115C17.371,8.729,17.314,8.485,17.43,8.3
		c0.037-0.061,0.09-0.109,0.153-0.142c0.482-0.24,0.679-0.825,0.439-1.307c-0.149-0.299-0.44-0.502-0.773-0.536L17.247,6.316z"/>
</g>
</svg>
