<svg xmlns="http://www.w3.org/2000/svg" width="100" height="100" viewBox="0 0 100 100">
  <g id="globe" transform="translate(-3.375 -3.375)" fill="rgba(255,255,255,0.9)">
    <path d="M 53.38703155517578 102.625 L 53.33895111083984 102.625 L 53.21879196166992 102.625 C 40.09853744506836 102.5776290893555 27.77391052246094 97.43978881835938 18.51793670654297 88.15792083740234 C 9.236510276794434 78.85057830810547 4.125003814697266 66.49776458740234 4.125003814697266 53.37500381469727 C 4.125003814697266 40.26045608520508 9.228217124938965 27.90741729736328 18.49459075927734 18.59140396118164 C 27.77338981628418 9.310390472412109 40.09825897216797 4.17229700088501 53.19745635986328 4.125003814697266 L 53.2908821105957 4.125003814697266 L 53.36299133300781 4.125003814697266 C 80.52615356445312 4.125003814697266 102.625 26.21845626831055 102.625 53.37500381469727 C 102.625 80.53154754638672 80.53693389892578 102.625 53.38703155517578 102.625 Z M 50.74840545654297 77.39244079589844 L 49.95923233032227 77.43372344970703 C 46.16926956176758 77.63193511962891 42.44885635375977 78.13091278076172 38.90132522583008 78.91679382324219 L 38.08166885375977 79.09837341308594 L 38.3541374206543 79.89244079589844 C 41.20946884155273 88.21434020996094 45.32579040527344 94.29889678955078 49.64760208129883 96.58597564697266 L 50.74840545654297 97.16852569580078 L 50.74840545654297 95.92308044433594 L 50.74840545654297 78.18269348144531 L 50.74840545654297 77.39244079589844 Z M 55.97756195068359 77.36813354492188 L 55.97756195068359 78.15866088867188 L 55.97756195068359 95.82692718505859 L 55.97756195068359 97.08573913574219 L 57.08459091186523 96.48649597167969 C 61.3831787109375 94.15964508056641 65.4537353515625 88.09291076660156 68.25252532958984 79.84188079833984 L 68.52223205566406 79.04676055908203 L 67.70182800292969 78.86813354492188 C 64.15370941162109 78.09557342529297 60.47469711303711 77.60488128662109 56.76699066162109 77.40969848632812 L 55.97756195068359 77.36813354492188 Z M 73.43336486816406 80.41326904296875 L 73.19905853271484 81.11965942382812 C 71.509521484375 86.21331024169922 69.40076446533203 90.55417633056641 66.93135070800781 94.02166748046875 L 65.56760406494141 95.93663024902344 L 67.78836059570312 95.16521453857422 C 73.57571411132812 93.15489959716797 79.02744293212891 89.86627197265625 83.55420684814453 85.65488433837891 L 84.34569549560547 84.91854095458984 L 83.37882995605469 84.43498992919922 C 80.349853515625 82.92013549804688 77.24198913574219 81.64402770996094 74.14154815673828 80.64211273193359 L 73.43336486816406 80.41326904296875 Z M 33.19493865966797 80.43600463867188 L 32.48667144775391 80.66667175292969 C 29.41361808776855 81.66744232177734 26.33938980102539 82.92683410644531 23.34936332702637 84.40984344482422 L 22.38025665283203 84.89051055908203 L 23.17028427124023 85.62947082519531 C 27.68164443969727 89.84922027587891 32.9365119934082 93.04078674316406 38.78890991210938 95.11554718017578 L 41.01165771484375 95.90354919433594 L 39.65240478515625 93.97637939453125 C 37.20566940307617 90.50737762451172 35.11231231689453 86.18951416015625 33.43044281005859 81.14268493652344 L 33.19493865966797 80.43600463867188 Z M 77.29536437988281 55.99037551879883 L 77.27093505859375 56.71511077880859 C 77.05738830566406 63.05188369750977 76.27149963378906 69.15757751464844 74.93508148193359 74.86260223388672 L 74.77736663818359 75.53584289550781 L 75.43561553955078 75.74761962890625 C 79.50418090820312 77.05653381347656 83.48167419433594 78.73757934570312 87.25761413574219 80.74403381347656 L 87.81243133544922 81.03884124755859 L 88.19992065429688 80.54428100585938 C 93.57015228271484 73.69016265869141 96.75761413574219 65.47857666015625 97.417724609375 56.79724502563477 L 97.47907257080078 55.99037551879883 L 96.66988372802734 55.99037551879883 L 78.0205078125 55.99037551879883 L 77.29536437988281 55.99037551879883 Z M 9.246896743774414 55.99037551879883 L 9.308243751525879 56.79724502563477 C 9.965510368347168 65.44130706787109 13.14424419403076 73.64404296875 18.50076293945312 80.51866912841797 L 18.88615036010742 81.01328277587891 L 19.44123077392578 80.72163391113281 C 23.22414970397949 78.73392486572266 27.16307067871094 77.06824493408203 31.14860343933105 75.77085876464844 L 31.80385780334473 75.55756378173828 L 31.64668464660645 74.88664245605469 C 30.31089782714844 69.18429565429688 29.52500343322754 63.07051086425781 29.31083106994629 56.71511077880859 L 29.28640365600586 55.99037551879883 L 28.56125640869141 55.99037551879883 L 10.05608367919922 55.99037551879883 L 9.246896743774414 55.99037551879883 Z M 34.37123107910156 55.99037551879883 L 34.3966178894043 56.76494979858398 C 34.58880233764648 62.62821578979492 35.30683135986328 68.25787353515625 36.5307502746582 73.49752044677734 L 36.6998291015625 74.22136688232422 L 37.42515182495117 74.05876159667969 C 41.58105850219727 73.12704467773438 45.8226432800293 72.55868530273438 50.03208541870117 72.36944580078125 L 50.74840545654297 72.33724212646484 L 50.74840545654297 71.62020111083984 L 50.74840545654297 56.74037551879883 L 50.74840545654297 55.99037551879883 L 49.99840545654297 55.99037551879883 L 35.14621734619141 55.99037551879883 L 34.37123107910156 55.99037551879883 Z M 55.97756195068359 55.99037551879883 L 55.97756195068359 56.74037551879883 L 55.97756195068359 71.62020111083984 L 55.97756195068359 72.33705902099609 L 56.69369888305664 72.36944580078125 C 60.95708465576172 72.56217956542969 65.15769958496094 73.12232208251953 69.1788330078125 74.03432464599609 L 69.90480041503906 74.198974609375 L 70.07488250732422 73.47425842285156 C 71.29857635498047 68.26001739501953 72.01667022705078 62.63819122314453 72.20919036865234 56.76494979858398 L 72.23457336425781 55.99037551879883 L 71.45958709716797 55.99037551879883 L 56.72756195068359 55.99037551879883 L 55.97756195068359 55.99037551879883 Z M 87.81366729736328 25.68645668029785 L 87.25761413574219 25.98192405700684 C 83.48162841796875 27.9884033203125 79.50413513183594 29.66944313049316 75.43561553955078 30.97834968566895 L 74.77797698974609 31.1899242401123 L 74.93492126464844 31.86269760131836 C 76.27175140380859 37.59336471557617 77.05769348144531 43.70736312866211 77.27093505859375 50.03488540649414 L 77.29536437988281 50.75961685180664 L 78.0205078125 50.75961685180664 L 96.66988372802734 50.75961685180664 L 97.47891235351562 50.75961685180664 L 97.41773986816406 49.95291137695312 C 96.76097869873047 41.29122924804688 93.57386016845703 33.07172393798828 88.20093536376953 26.1829776763916 L 87.81366729736328 25.68645668029785 Z M 69.90628051757812 32.52996444702148 L 69.18199157714844 32.69095230102539 C 65.04998779296875 33.60939025878906 60.8483772277832 34.16977691650391 56.69388198852539 34.35653686523438 L 55.97756195068359 34.38873672485352 L 55.97756195068359 35.10577774047852 L 55.97756195068359 50.00961685180664 L 55.97756195068359 50.75961685180664 L 56.72756195068359 50.75961685180664 L 71.45958709716797 50.75961685180664 L 72.23447418212891 50.75961685180664 L 72.20919036865234 49.98514938354492 C 72.01789855957031 44.12565612792969 71.29988098144531 38.49597549438477 70.07505798339844 33.25248336791992 L 69.90628051757812 32.52996444702148 Z M 36.6998291015625 32.50460433959961 L 36.5307502746582 33.22844314575195 C 35.30652236938477 38.46941757202148 34.58849716186523 44.107177734375 34.3966178894043 49.98514938354492 L 34.371337890625 50.75961685180664 L 35.14621734619141 50.75961685180664 L 49.99840545654297 50.75961685180664 L 50.74840545654297 50.75961685180664 L 50.74840545654297 50.00961685180664 L 50.74840545654297 35.10577774047852 L 50.74840545654297 34.38856506347656 L 50.03189849853516 34.35652542114258 C 45.82844543457031 34.16860198974609 41.5869255065918 33.6002311706543 37.42515182495117 32.66720199584961 L 36.6998291015625 32.50460433959961 Z M 18.91240310668945 25.71033668518066 L 18.52501678466797 26.20701789855957 C 13.14400386810303 33.10616302490234 9.965150833129883 41.30966949462891 9.332137107849121 49.93065643310547 L 9.273030281066895 50.73557662963867 L 10.08012390136719 50.73557662963867 L 28.58528327941895 50.73557662963867 L 29.31315040588379 50.73557662963867 L 29.33495140075684 50.00802993774414 C 29.52528381347656 43.65420532226562 30.3109245300293 37.54233551025391 31.6700439453125 31.84221649169922 L 31.83137702941895 31.16561698913574 L 31.1688175201416 30.95387077331543 C 27.18416404724121 29.68036460876465 23.24761772155762 28.01568412780762 19.46853637695312 26.00607109069824 L 18.91240310668945 25.71033668518066 Z M 55.97756195068359 9.664270401000977 L 55.97756195068359 10.9230842590332 L 55.97756195068359 28.56731033325195 L 55.97756195068359 29.35783004760742 L 56.76699066162109 29.31627082824707 C 60.47469711303711 29.12108421325684 64.15370941162109 28.63039016723633 67.70182800292969 27.85783004760742 L 68.52297973632812 27.67904472351074 L 68.25229644775391 26.88344383239746 C 65.44977569580078 18.64600372314453 61.37931060791016 12.58827018737793 57.08459091186523 10.26351070404053 L 55.97756195068359 9.664270401000977 Z M 50.74840545654297 9.578070640563965 L 49.64600372314453 10.164870262146 C 45.31316375732422 12.47121715545654 41.19744491577148 18.54669761657715 38.3541374206543 26.83352470397949 L 38.08166885375977 27.62759017944336 L 38.90132522583008 27.80917739868164 C 42.45636367797852 28.59673690795898 46.17687225341797 29.09571075439453 49.9594841003418 29.29225730895996 L 50.74840545654297 29.3332576751709 L 50.74840545654297 28.54327011108398 L 50.74840545654297 10.82692337036133 L 50.74840545654297 9.578070640563965 Z M 65.54659271240234 10.8176441192627 L 66.90732574462891 12.72833728790283 C 69.376708984375 16.19580459594727 71.48548126220703 20.53667068481445 73.17503356933594 25.63035011291504 L 73.40933990478516 26.33673667907715 L 74.11752319335938 26.10789680480957 C 77.23899078369141 25.09917640686035 80.34612274169922 23.83152389526367 83.35261535644531 22.34015083312988 L 84.32145690917969 21.85955047607422 L 83.53175354003906 21.12063026428223 C 78.93965911865234 16.82377624511719 73.63441467285156 13.6153507232666 67.76342010498047 11.5844841003418 L 65.54659271240234 10.8176441192627 Z M 41.00644302368164 10.8910436630249 L 38.79423141479492 11.65663051605225 C 32.98124313354492 13.66835021972656 27.732177734375 16.85293769836426 23.19284439086914 21.12192344665527 L 22.40708351135254 21.86088371276855 L 23.37340354919434 22.34016418457031 C 26.34804344177246 23.81554985046387 29.41362953186035 25.07475090026855 32.48503112792969 26.08279037475586 L 33.19338989257812 26.31528472900391 L 33.43011093139648 25.60831069946289 C 35.13214874267578 20.52492332458496 37.22516250610352 16.2154712677002 39.6509895324707 12.79965686798096 L 41.00644302368164 10.8910436630249 Z" stroke="none"/>
    <path d="M 53.1964225769043 4.875007629394531 C 40.29830932617188 4.922805786132812 28.16172027587891 9.982734680175781 19.02632141113281 19.12033081054688 C 9.900703430175781 28.29483032226562 4.875007629394531 40.46004486083984 4.875007629394531 53.37500381469727 C 4.875007629394531 66.29782104492188 9.908760070800781 78.46254730224609 19.04900360107422 87.62833404541016 C 28.16283416748047 96.76766204833984 40.2989501953125 101.8271179199219 53.22045135498047 101.875 L 53.38701629638672 101.875 C 80.12339019775391 101.875 101.875 80.11798858642578 101.875 53.37500381469727 C 101.875 26.63201904296875 80.11260223388672 4.875007629394531 53.36299133300781 4.875007629394531 L 53.1964225769043 4.875007629394531 M 51.49840545654297 30.12324523925781 L 49.92056274414062 30.041259765625 C 46.09657669067383 29.84254455566406 42.33458709716797 29.33792877197266 38.73910522460938 28.54143524169922 L 37.09980010986328 28.17827606201172 L 37.64471435546875 26.59011840820312 C 40.54904937744141 18.12551879882812 44.79490280151367 11.89743041992188 49.29360198974609 9.502830505371094 L 51.49840545654297 8.329231262207031 L 51.49840545654297 30.12324523925781 M 55.22756195068359 30.14834594726562 L 55.22756195068359 8.405448913574219 L 57.44161987304688 9.60394287109375 C 61.90054702758789 12.01758575439453 66.09967041015625 18.22769165039062 68.96233367919922 26.64187622070312 L 69.50367736816406 28.23307800292969 L 67.86138916015625 28.59066009521484 C 64.27384948730469 29.37181854248047 60.55441665649414 29.86793518066406 56.80641937255859 30.06523132324219 L 55.22756195068359 30.14834594726562 M 72.93177795410156 27.27925872802734 L 72.46316528320312 25.86647796630859 C 70.79720306396484 20.84388732910156 68.72240447998047 16.5699462890625 66.29640197753906 13.16339111328125 L 63.57498931884766 9.342018127441406 L 68.00860595703125 10.87567901611328 C 73.97966003417969 12.94117736816406 79.37481689453125 16.20381927490234 84.044189453125 20.57297515869141 L 85.62357330322266 22.05081939697266 L 83.68589019775391 23.01201629638672 C 80.64639282226562 24.51979064941406 77.50469970703125 25.80150604248047 74.34812927246094 26.82156372070312 L 72.93177795410156 27.27925872802734 M 33.66787719726562 27.26036071777344 L 32.25114440917969 26.79538726806641 C 29.14580535888672 25.77620697021484 26.04677581787109 24.50330352783203 23.04014587402344 23.01204681396484 L 21.10752105712891 22.05347442626953 L 22.67904663085938 20.5755615234375 C 27.29594421386719 16.23363494873047 32.63536071777344 12.99440002441406 38.5489501953125 10.9478759765625 L 42.97337341308594 9.416702270507812 L 40.26247406005859 13.23391723632812 C 37.87936401367188 16.58959197998047 35.81989288330078 20.83306121826172 34.14128875732422 25.846435546875 L 33.66787719726562 27.26036071777344 M 98.28791809082031 51.50961685180664 L 76.57020568847656 51.50961685180664 L 76.5213623046875 50.06013107299805 C 76.30977630615234 43.78141784667969 75.5302734375 37.71624755859375 74.20451354980469 32.03307342529297 L 73.89063262939453 30.68751525878906 L 75.20591735839844 30.26437377929688 C 79.232421875 28.96898651123047 83.16879272460938 27.30534362792969 86.90567779541016 25.31963348388672 L 88.01779174804688 24.72867584228516 L 88.79232788085938 25.72171783447266 C 94.25639343261719 32.72731781005859 97.49760437011719 41.08671569824219 98.16557312011719 49.89620208740234 L 98.28791809082031 51.50961685180664 M 30.04103088378906 51.48557662963867 L 8.465934753417969 51.48557662963867 L 8.584144592285156 49.875732421875 C 9.22808837890625 41.10626220703125 12.46107482910156 32.76226043701172 17.93361663818359 25.74575805664062 L 18.70838928222656 24.75240325927734 L 19.8206787109375 25.34388732910156 C 23.56021881103516 27.33247375488281 27.45510101318359 28.97957611083984 31.39713287353516 30.23946380615234 L 32.72224426269531 30.6629638671875 L 32.39958953857422 32.01615905761719 C 31.05229187011719 37.66670227050781 30.27341461181641 43.72758865356445 30.08461761474609 50.03049087524414 L 30.04103088378906 51.48557662963867 M 51.49840545654297 51.50961685180664 L 33.596435546875 51.50961685180664 L 33.64700317382812 49.96067428588867 C 33.84050750732422 44.03354644775391 34.56501770019531 38.34661865234375 35.80040740966797 33.05783081054688 L 36.13857269287109 31.61013031005859 L 37.5892333984375 31.93536376953125 C 41.70822906494141 32.85881805419922 45.90581893920898 33.42131805419922 50.06538772583008 33.60726165771484 L 51.49840545654297 33.67131805419922 L 51.49840545654297 51.50961685180664 M 73.00936126708984 51.50961685180664 L 55.22756195068359 51.50961685180664 L 55.22756195068359 33.67167663574219 L 56.66020202636719 33.60727691650391 C 60.77138900756836 33.42246246337891 64.92958068847656 32.86784362792969 69.01924133300781 31.95880126953125 L 70.46784973144531 31.63681793212891 L 70.80540466308594 33.08187866210938 C 72.04140472412109 38.373291015625 72.76589965820312 44.05214691162109 72.95878601074219 49.96067428588867 L 73.00936126708984 51.50961685180664 M 18.679931640625 81.96888732910156 L 17.90914916992188 80.97964477539062 C 12.46166229248047 73.98826599121094 9.228919982910156 65.64579010009766 8.560386657714844 56.85411834716797 L 8.437690734863281 55.24039077758789 L 30.01155853271484 55.24039077758789 L 30.06040191650391 56.68987655639648 C 30.27293395996094 62.99627685546875 31.05230712890625 69.06100463867188 32.37690734863281 74.715576171875 L 32.69124603271484 76.05741882324219 L 31.38076019287109 76.48401641845703 C 27.43526458740234 77.76837158203125 23.53560638427734 79.41748809814453 19.79009246826172 81.38555908203125 L 18.679931640625 81.96888732910156 M 36.13857269287109 75.11582946777344 L 35.80040740966797 73.66813659667969 C 34.56533050537109 68.38067626953125 33.8408203125 62.70188903808594 33.64700317382812 56.78953170776367 L 33.59622955322266 55.24039077758789 L 51.49840545654297 55.24039077758789 L 51.49840545654297 73.05429077148438 L 50.06576156616211 73.11869049072266 C 45.90011978149414 73.30594635009766 41.70240020751953 73.86846160888672 37.5892333984375 74.79060363769531 L 36.13857269287109 75.11582946777344 M 70.46488952636719 75.09503173828125 L 69.01294708251953 74.76573181152344 C 65.0350341796875 73.86355590820312 60.87884521484375 73.30940246582031 56.65981674194336 73.11867523193359 L 55.22756195068359 73.05393218994141 L 55.22756195068359 55.24039077758789 L 73.00955963134766 55.24039077758789 L 72.95878601074219 56.78953170776367 C 72.76466369628906 62.7120475769043 72.04003143310547 68.38326263427734 70.80504608154297 73.64559936523438 L 70.46488952636719 75.09503173828125 M 88.01531982421875 81.99595642089844 L 86.90568542480469 81.40631866455078 C 83.16876220703125 79.42061614990234 79.23239135742188 77.7569580078125 75.20591735839844 76.46157836914062 L 73.88941955566406 76.03803253173828 L 74.20484924316406 74.6915283203125 C 75.53007507324219 69.03423309326172 76.30946350097656 62.97760391235352 76.5213623046875 56.68987655639648 L 76.57020568847656 55.24039077758789 L 98.28826141357422 55.24039077758789 L 98.16555786132812 56.85411834716797 C 97.49416351318359 65.68374633789062 94.25224304199219 74.03561401367188 88.79029083251953 81.0068359375 L 88.01531982421875 81.99595642089844 M 55.22756195068359 98.34455871582031 L 55.22756195068359 76.57760620117188 L 56.80641937255859 76.66072082519531 C 60.55444717407227 76.85804748535156 64.27388000488281 77.35415649414062 67.86138916015625 78.13529968261719 L 69.50217437744141 78.49256134033203 L 68.96276092529297 80.08280181884766 C 66.10391998291016 88.51087951660156 61.90463256835938 94.73020172119141 57.44161987304688 97.14605712890625 L 55.22756195068359 98.34455871582031 M 51.49840545654297 98.41396331787109 L 49.29680252075195 97.24887847900391 C 44.80830383300781 94.87358856201172 40.56128692626953 88.63613128662109 37.64471435546875 80.13584899902344 L 37.09980010986328 78.54769134521484 L 38.73910522460938 78.18453216552734 C 42.32703399658203 77.38971710205078 46.08884811401367 76.88511657714844 49.92005920410156 76.68474578857422 L 51.49840545654297 76.60220336914062 L 51.49840545654297 98.41396331787109 M 63.59291839599609 97.41654968261719 L 66.3204345703125 93.58661651611328 C 68.74641418457031 90.18007659912109 70.82121276855469 85.90614318847656 72.48720550537109 80.88352966308594 L 72.95581817626953 79.47074890136719 L 74.37217712402344 79.92844390869141 C 77.50847625732422 80.94196319580078 80.65161895751953 82.23249053955078 83.71428680419922 83.76420593261719 L 85.64804840087891 84.73130798339844 L 84.0650634765625 86.20400238037109 C 79.46267700195312 90.48573303222656 73.91938781738281 93.82946014404297 68.03446197509766 95.87368774414062 L 63.59291839599609 97.41654968261719 M 42.98379135131836 97.39844512939453 L 38.53829193115234 95.82244873046875 C 32.58805847167969 93.71300506591797 27.24514770507812 90.46787261962891 22.657958984375 86.17721557617188 L 21.07788848876953 84.69928741455078 L 23.01612091064453 83.73796081542969 C 26.03863525390625 82.23881530761719 29.14684295654297 80.96556091308594 32.25441741943359 79.95353698730469 L 33.67095947265625 79.49221801757812 L 34.14196014404297 80.90556335449219 C 35.80064392089844 85.88280487060547 37.86083221435547 90.13503265380859 40.26528930664062 93.54410552978516 L 42.98379135131836 97.39844512939453 M 53.19475936889648 3.375007629394531 C 53.21878814697266 3.375007629394531 53.26686096191406 3.375007629394531 53.29088973999023 3.375007629394531 L 53.36299133300781 3.375007629394531 C 80.92845916748047 3.375007629394531 103.375 25.80288696289062 103.375 53.37500381469727 C 103.375 80.94712066650391 80.95249938964844 103.375 53.38701629638672 103.375 L 53.33896255493164 103.375 C 53.29088973999023 103.375 53.26686096191406 103.375 53.21878814697266 103.375 C 39.90468597412109 103.3269348144531 27.38364410400391 98.11058807373047 17.98686218261719 88.6875 C 8.566062927246094 79.24038696289062 3.375007629394531 66.71634674072266 3.375007629394531 53.37500381469727 C 3.375007629394531 40.03364562988281 8.566062927246094 27.50962066650391 17.96282958984375 18.06250762939453 C 27.38364410400391 8.639419555664062 39.88064575195312 3.423072814941406 53.19475936889648 3.375007629394531 Z M 49.99840545654297 28.54327392578125 L 49.99840545654297 10.82693481445312 C 45.88881683349609 13.01441955566406 41.85133361816406 18.95193481445312 39.06352996826172 27.07693481445312 C 42.64440155029297 27.87020111083984 46.2973747253418 28.35095977783203 49.99840545654297 28.54327392578125 Z M 56.72756195068359 28.56730651855469 C 60.38053131103516 28.37500762939453 64.00946044921875 27.89423370361328 67.54225921630859 27.12500762939453 C 64.80253601074219 19.07212066650391 60.81310272216797 13.13462066650391 56.72756195068359 10.92307281494141 L 56.72756195068359 28.56730651855469 Z M 67.51823425292969 12.29325866699219 C 70.01763153076172 15.80288696289062 72.18057250976562 20.25000762939453 73.88688659667969 25.39423370361328 C 77.01114654541016 24.38462066650391 80.06329345703125 23.13462066650391 83.01931762695312 21.66825866699219 C 78.54923248291016 17.48557281494141 73.28607177734375 14.28845977783203 67.51823425292969 12.29325866699219 Z M 32.71890258789062 25.37018585205078 C 34.42521667480469 20.27403259277344 36.56413269042969 15.85095977783203 39.03950500488281 12.36538696289062 C 33.34375762939453 14.33653259277344 28.12867736816406 17.50962066650391 23.70665740966797 21.66825866699219 C 26.61460113525391 23.11057281494141 29.64271545410156 24.36057281494141 32.71890258789062 25.37018585205078 Z M 96.66987609863281 50.00961685180664 C 96.02098846435547 41.45193481445312 92.89674377441406 33.42307281494141 87.60954284667969 26.64423370361328 C 83.76432800292969 28.68750762939453 79.77488708496094 30.37018585205078 75.66530609130859 31.69230651855469 C 77.01113128662109 37.46153259277344 77.80421447753906 43.59134674072266 78.0205078125 50.00961685180664 L 96.66987609863281 50.00961685180664 Z M 28.58528900146484 49.98557662963867 C 28.77754974365234 43.56730270385742 29.57061767578125 37.41345977783203 30.94049072265625 31.66825866699219 C 26.87895965576172 30.37018585205078 22.91357421875 28.68750762939453 19.11640167236328 26.66827392578125 C 13.82921600341797 33.44712066650391 10.70497894287109 41.47595977783203 10.08011627197266 49.98557662963867 L 28.58528900146484 49.98557662963867 Z M 49.99840545654297 50.00961685180664 L 49.99840545654297 35.10575866699219 C 45.69655990600586 34.91345977783203 41.44277191162109 34.33653259277344 37.26109313964844 33.39903259277344 C 36.05946350097656 38.54325866699219 35.33847808837891 44.12020492553711 35.14620208740234 50.00961685180664 L 49.99840545654297 50.00961685180664 Z M 71.4595947265625 50.00961685180664 C 71.267333984375 44.12020492553711 70.54634857177734 38.56732177734375 69.34471893310547 33.42307281494141 C 65.23513793945312 34.33653259277344 61.00537490844727 34.91345977783203 56.72756195068359 35.10575866699219 L 56.72756195068359 50.00961685180664 L 71.4595947265625 50.00961685180664 Z M 10.05607604980469 56.74039077758789 C 10.70497894287109 65.2740478515625 13.82921600341797 73.30288696289062 19.09237670898438 80.05770111083984 C 22.88953399658203 78.0625 26.85493469238281 76.37982177734375 30.91644287109375 75.05769348144531 C 29.57061767578125 69.3125 28.77754974365234 63.15866088867188 28.56126403808594 56.74039077758789 L 10.05607604980469 56.74039077758789 Z M 35.14620208740234 56.74039077758789 C 35.33847808837891 62.60577392578125 36.05946350097656 68.18269348144531 37.26109313964844 73.32693481445312 C 41.44277191162109 72.38943481445312 45.72058868408203 71.8125 49.99840545654297 71.62020874023438 L 49.99840545654297 56.74039077758789 L 35.14620208740234 56.74039077758789 Z M 69.34471893310547 73.30288696289062 C 70.54634857177734 68.18269348144531 71.267333984375 62.60577392578125 71.4595947265625 56.74039077758789 L 56.72756195068359 56.74039077758789 L 56.72756195068359 71.62020874023438 C 60.98134613037109 71.8125 65.21109008789062 72.36538696289062 69.34471893310547 73.30288696289062 Z M 87.60954284667969 80.08171844482422 C 92.9207763671875 73.30288696289062 96.02098846435547 65.2740478515625 96.66987609863281 56.74039077758789 L 78.0205078125 56.74039077758789 C 77.80421447753906 63.15864562988281 77.01113128662109 69.28845977783203 75.66530609130859 75.03364562988281 C 79.77490234375 76.35577392578125 83.76432800292969 78.03845977783203 87.60954284667969 80.08171844482422 Z M 56.72756195068359 95.82693481445312 C 60.81310272216797 93.61538696289062 64.80253601074219 87.67788696289062 67.54225921630859 79.60095977783203 C 64.00946044921875 78.83173370361328 60.38053131103516 78.35095977783203 56.72756195068359 78.15864562988281 L 56.72756195068359 95.82693481445312 Z M 49.99840545654297 95.92307281494141 L 49.99840545654297 78.18270111083984 C 46.32140350341797 78.375 42.64440155029297 78.85577392578125 39.06352996826172 79.64903259277344 C 41.85133361816406 87.77403259277344 45.86478805541992 93.73558807373047 49.99840545654297 95.92307281494141 Z M 67.54225921630859 94.45674896240234 C 73.28607177734375 92.46153259277344 78.57325744628906 89.26443481445312 83.04335021972656 85.10577392578125 C 80.11135864257812 83.63943481445312 77.03517150878906 82.36538696289062 73.91093444824219 81.35577392578125 C 72.20460510253906 86.50001525878906 70.04165649414062 90.94712829589844 67.54225921630859 94.45674896240234 Z M 39.03950500488281 94.40866088867188 C 36.56413269042969 90.89903259277344 34.42523193359375 86.5 32.71890258789062 81.37980651855469 C 29.61869049072266 82.38943481445312 26.590576171875 83.63943481445312 23.6826171875 85.08174896240234 C 28.12867736816406 89.24038696289062 33.34375762939453 92.38943481445312 39.03950500488281 94.40866088867188 Z" stroke="none" fill="#000"/>
  </g>
</svg>
