<svg xmlns="http://www.w3.org/2000/svg" width="20" height="19.995" viewBox="0 0 20 19.995"><defs><style>.a{fill:#fff;}</style></defs><path class="a" d="M13.373,3.375h-.034a10,10,0,0,0,0,20h.034a10,10,0,1,0,0-20ZM22.034,12.7H18.3a18.929,18.929,0,0,0-.471-3.663,14.642,14.642,0,0,0,2.389-1.009A8.611,8.611,0,0,1,22.034,12.7Zm-9.334,0H9.729a17.084,17.084,0,0,1,.423-3.321A14.623,14.623,0,0,0,12.7,9.72Zm0,1.346v2.975a14.685,14.685,0,0,0-2.547.341,17.082,17.082,0,0,1-.423-3.317Zm1.346,0h2.946a16.984,16.984,0,0,1-.423,3.312,14.347,14.347,0,0,0-2.523-.336Zm0-1.346V9.72a14.686,14.686,0,0,0,2.523-.336,17.034,17.034,0,0,1,.423,3.317ZM19.3,7.033a13.353,13.353,0,0,1-1.826.745A9.924,9.924,0,0,0,16.2,5.158,8.7,8.7,0,0,1,19.3,7.033Zm-3.1,1.091a13.527,13.527,0,0,1-2.163.288V4.884A5.824,5.824,0,0,1,16.208,8.124ZM12.7,4.865V8.407a13.294,13.294,0,0,1-2.187-.293A5.821,5.821,0,0,1,12.7,4.865Zm-2.192.308a10,10,0,0,0-1.264,2.6,13.653,13.653,0,0,1-1.8-.74A8.568,8.568,0,0,1,10.508,5.173ZM6.523,8.033a14.352,14.352,0,0,0,2.365,1,18.165,18.165,0,0,0-.471,3.663h-3.7A8.567,8.567,0,0,1,6.523,8.033ZM4.711,14.046h3.7a18.88,18.88,0,0,0,.471,3.663,15.228,15.228,0,0,0-2.365,1A8.612,8.612,0,0,1,4.711,14.046Zm2.725,5.667a13.452,13.452,0,0,1,1.807-.74,10.038,10.038,0,0,0,1.264,2.605A8.781,8.781,0,0,1,7.437,19.712Zm3.076-1.086a13.364,13.364,0,0,1,2.187-.293V21.88A5.812,5.812,0,0,1,10.513,18.626Zm3.533,3.235V18.328a13.527,13.527,0,0,1,2.163.288A5.821,5.821,0,0,1,14.046,21.861Zm2.163-.274a9.924,9.924,0,0,0,1.274-2.62,13.133,13.133,0,0,1,1.826.75A8.8,8.8,0,0,1,16.208,21.587Zm4.013-2.874A14.643,14.643,0,0,0,17.833,17.7a18.83,18.83,0,0,0,.471-3.658h3.73A8.574,8.574,0,0,1,20.222,18.713Z" transform="translate(-3.375 -3.375)"/></svg>