<svg xmlns="http://www.w3.org/2000/svg" width="18.85" height="18.125" viewBox="0 0 18.85 18.125"><defs><style>.a{fill:#00a6e6;}</style></defs><path class="a" d="M17.15,3.938H17.1a5.156,5.156,0,0,0-4.3,2.356A5.156,5.156,0,0,0,8.5,3.938H8.45a5.123,5.123,0,0,0-5.075,5.12,11.03,11.03,0,0,0,2.166,6.013A37.957,37.957,0,0,0,12.8,22.063a37.957,37.957,0,0,0,7.259-6.992,11.03,11.03,0,0,0,2.166-6.013A5.123,5.123,0,0,0,17.15,3.938Zm1.885,10.386A34.754,34.754,0,0,1,12.8,20.468a34.806,34.806,0,0,1-6.235-6.149A9.775,9.775,0,0,1,4.644,9.058,3.845,3.845,0,0,1,8.459,5.211H8.5a3.8,3.8,0,0,1,1.862.489A3.959,3.959,0,0,1,11.74,6.992a1.273,1.273,0,0,0,2.13,0A4,4,0,0,1,15.247,5.7a3.8,3.8,0,0,1,1.862-.489h.041a3.845,3.845,0,0,1,3.815,3.847A9.9,9.9,0,0,1,19.035,14.323Z" transform="translate(-3.375 -3.938)"/></svg>