<?xml version="1.0" encoding="utf-8"?>
<!-- Generator: Adobe Illustrator 16.0.0, SVG Export Plug-In . SVG Version: 6.00 Build 0)  -->
<!DOCTYPE svg PUBLIC "-//W3C//DTD SVG 1.1//EN" "http://www.w3.org/Graphics/SVG/1.1/DTD/svg11.dtd">
<svg version="1.1" id="Layer_1" xmlns="http://www.w3.org/2000/svg" xmlns:xlink="http://www.w3.org/1999/xlink" x="0px" y="0px"
	 width="18.91px" height="18.119px" viewBox="9.992 10.274 18.91 18.119" enable-background="new 9.992 10.274 18.91 18.119"
	 xml:space="preserve">
<g transform="translate(0 0.282)">
	<g transform="translate(9.992 9.992)">
		<g transform="translate(0)">
			<g transform="translate(0 0)">
				<path fill="#FFFFFF" d="M0,10.833c0-0.465,0.184-0.912,0.513-1.24c-0.37-0.408-0.552-0.952-0.5-1.5
					c0.126-1.033,1.01-1.805,2.05-1.79H6.93C6.571,5.288,6.359,4.227,6.3,3.152C6.3,1.443,7.752,0,8.664,0
					c0.515,0.008,1.014,0.175,1.428,0.48c0.094,0.075,0.148,0.188,0.148,0.308V3.46l2.27,4.916l0.094,0.048v-0.15
					c0-0.217,0.176-0.395,0.393-0.395c0.002,0,0.003,0,0.004,0h3.939c1.088,0.001,1.969,0.883,1.971,1.97v6.3
					c-0.001,1.088-0.883,1.97-1.971,1.97h-2.363c-0.83,0-1.57-0.52-1.854-1.3c-0.651,0.316-1.361,0.491-2.085,0.515H3.4
					c-0.843,0.012-1.583-0.559-1.785-1.377c-0.09-0.398-0.04-0.816,0.142-1.184c-0.869-0.437-1.222-1.493-0.789-2.363
					C0.374,12.109,0,11.499,0,10.833z M1.662,11.805c0.216,0.024,0.371,0.221,0.346,0.437c-0.011,0.092-0.054,0.178-0.121,0.241
					c-0.395,0.367-0.417,0.985-0.049,1.38c0.16,0.172,0.377,0.28,0.611,0.305c0.216,0.025,0.371,0.221,0.346,0.438
					c-0.011,0.092-0.054,0.178-0.121,0.241c-0.258,0.239-0.367,0.599-0.285,0.94c0.121,0.457,0.542,0.771,1.016,0.758h7.232
					c0.746-0.012,1.473-0.246,2.085-0.674c0.153-0.154,0.403-0.154,0.558,0c0.074,0.074,0.115,0.174,0.115,0.279
					c0,0.652,0.529,1.182,1.182,1.184h2.363c0.652-0.001,1.182-0.529,1.182-1.183v-6.3c0-0.652-0.529-1.182-1.182-1.182h-3.545
					v0.394c-0.002,0.137-0.072,0.264-0.188,0.336c-0.116,0.071-0.261,0.077-0.384,0.017l-0.787-0.394
					c-0.08-0.04-0.145-0.106-0.182-0.187L9.491,3.711C9.467,3.659,9.455,3.603,9.455,3.546V1.001
					C9.214,0.865,8.944,0.791,8.667,0.787C7.719,1.193,7.101,2.12,7.091,3.151c0.09,1.166,0.347,2.313,0.762,3.405
					c0.078,0.203-0.023,0.43-0.226,0.508C7.582,7.081,7.533,7.09,7.485,7.09H2.063c-0.635-0.02-1.182,0.442-1.27,1.071
					C0.751,8.609,0.969,9.042,1.354,9.276C1.539,9.391,1.596,9.635,1.481,9.82C1.443,9.88,1.39,9.929,1.327,9.962
					c-0.482,0.239-0.679,0.824-0.439,1.307C1.036,11.568,1.328,11.771,1.662,11.805L1.662,11.805z"/>
			</g>
			<g transform="translate(12.534 8.431)">
				<g transform="translate(0 0)">
					<path fill="#FFFFFF" d="M0.447,0c0.232-0.013,0.432,0.166,0.445,0.398c0,0,0,0.001,0,0.001v7.116
						C0.863,7.762,0.64,7.939,0.394,7.91c-0.207-0.024-0.37-0.188-0.395-0.395V0.4C0.013,0.167,0.211-0.013,0.445,0
						C0.445,0,0.446,0,0.447,0z"/>
				</g>
			</g>
		</g>
	</g>
	<g transform="translate(0 -0.282)">
	</g>
</g>
</svg>
