<?xml version="1.0" encoding="utf-8"?>
<!-- Generator: Adobe Illustrator 16.0.0, SVG Export Plug-In . SVG Version: 6.00 Build 0)  -->
<!DOCTYPE svg PUBLIC "-//W3C//DTD SVG 1.1//EN" "http://www.w3.org/Graphics/SVG/1.1/DTD/svg11.dtd">
<svg version="1.1" id="Layer_1" xmlns="http://www.w3.org/2000/svg" xmlns:xlink="http://www.w3.org/1999/xlink" x="0px" y="0px"
	 width="24.246px" height="19.195px" viewBox="0 0 24.246 19.195" enable-background="new 0 0 24.246 19.195" xml:space="preserve">
<path d="M23.742,10.096L1.726,10.108l8.236,8.227c0.194,0.201,0.186,0.521-0.015,0.714c-0.195,0.187-0.503,0.187-0.698,0
	L0.151,9.961c-0.196-0.197-0.196-0.518,0-0.715l0,0L9.239,0.15C9.44-0.044,9.76-0.037,9.953,0.164
	c0.183,0.19,0.188,0.488,0.014,0.686L9.955,0.862L1.729,9.097l22.012-0.011c0.278,0,0.504,0.226,0.504,0.505
	C24.245,9.869,24.02,10.095,23.742,10.096L23.742,10.096z"/>
<path fill="#FFFFFF" d="M9.594,0.002C9.46,0.001,9.33,0.055,9.236,0.15L0.149,9.246c-0.197,0.197-0.197,0.518,0,0.715l9.097,9.088
	c0.201,0.192,0.521,0.186,0.714-0.016c0.187-0.195,0.187-0.503,0-0.698L1.22,9.604l8.732-8.74c0.197-0.197,0.199-0.516,0.001-0.714
	C9.857,0.055,9.729,0.002,9.594,0.002z"/>
<path fill="#FFFFFF" d="M23.742,9.082L0.506,9.094C0.228,9.095,0.002,9.322,0.003,9.601c0,0.277,0.226,0.502,0.503,0.503
	l23.236-0.012c0.279-0.001,0.504-0.228,0.504-0.507C24.244,9.307,24.02,9.082,23.742,9.082z"/>
</svg>
