<svg xmlns="http://www.w3.org/2000/svg" width="24.246" height="19.196" viewBox="0 0 24.246 19.196"><defs><style>.a{fill:#fff;}</style></defs><path class="a" d="M.516,62.413H22.533L14.3,54.183a.505.505,0,0,1,.714-.714l9.092,9.092a.505.505,0,0,1,0,.714h0l-9.092,9.092a.505.505,0,0,1-.727-.7l.012-.012,8.23-8.231H.517a.505.505,0,0,1,0-1.01Z" transform="translate(-0.011 -53.327)"/><path class="a" d="M.505,72.515a.5.5,0,0,0,.358-.148l9.092-9.092a.505.505,0,0,0,0-.714L.863,53.468a.505.505,0,0,0-.714.714l8.735,8.735L.148,71.652a.505.505,0,0,0,.357.863Z" transform="translate(14.143 -53.327)"/><path class="a" d="M.513,246.2H23.749a.505.505,0,0,0,0-1.01H.513a.505.505,0,0,0,0,1.01Z" transform="translate(-0.008 -236.099)"/></svg>