<svg xmlns="http://www.w3.org/2000/svg" width="24.593" height="36.684" viewBox="0 0 24.593 36.684"><defs><style>.a{opacity:0.5;}.b{fill:#fff;}</style></defs><g class="a" transform="translate(-10.816 18.346) rotate(-45)"><path class="b" d="M17.838,22.74l-.075.006a1.031,1.031,0,0,0-.6.281l-4.027,4.027a4.54,4.54,0,0,1-6.421-6.421l4.277-4.277a4.513,4.513,0,0,1,.711-.58,4.582,4.582,0,0,1,.923-.468,4.365,4.365,0,0,1,.935-.231,4.42,4.42,0,0,1,.636-.044c.087,0,.175.006.287.012A4.527,4.527,0,0,1,17.4,16.356a4.47,4.47,0,0,1,1.066,1.7.981.981,0,0,0,1.2.63c.006,0,.012-.006.019-.006s.012,0,.012-.006a.974.974,0,0,0,.655-1.191,5.649,5.649,0,0,0-1.534-2.556A6.563,6.563,0,0,0,15.232,13.1c-.118-.019-.237-.037-.355-.05a6.433,6.433,0,0,0-.692-.037c-.162,0-.324.006-.48.019a6.287,6.287,0,0,0-1.01.156c-.069.012-.131.031-.2.05a6.485,6.485,0,0,0-1.216.455,6.4,6.4,0,0,0-1.727,1.241L5.276,19.211a6.576,6.576,0,0,0-1.9,4.644,6.555,6.555,0,0,0,11.184,4.632l4.071-4.071A.987.987,0,0,0,17.838,22.74Z" transform="translate(0 -1.093)"/><path class="b" d="M28.539,5.289a6.569,6.569,0,0,0-9.27,0L15.3,9.26a1,1,0,0,0,.63,1.708,1.013,1.013,0,0,0,.792-.287L20.7,6.716a4.54,4.54,0,0,1,6.421,6.421l-4.277,4.277a4.513,4.513,0,0,1-.711.58,4.582,4.582,0,0,1-.923.468,4.365,4.365,0,0,1-.935.231,4.42,4.42,0,0,1-.636.044c-.087,0-.181-.006-.287-.012a4.48,4.48,0,0,1-3.94-2.9,1,1,0,0,0-1.191-.611,1.007,1.007,0,0,0-.7,1.278,5.694,5.694,0,0,0,1.477,2.338h0l.012.012a6.563,6.563,0,0,0,3.946,1.876,6.433,6.433,0,0,0,.692.037q.243,0,.486-.019a7.127,7.127,0,0,0,1.2-.2,6.485,6.485,0,0,0,1.216-.455,6.4,6.4,0,0,0,1.727-1.241l4.277-4.277a6.562,6.562,0,0,0-.012-9.276Z" transform="translate(-1.144)"/></g></svg>