<svg xmlns="http://www.w3.org/2000/svg" width="20" height="20" viewBox="0 0 20 20"><defs><style>.a{fill:none;}.b{fill:#00A6E6;}</style></defs><g transform="translate(0.037)"><rect class="a" width="20" height="20" transform="translate(-0.037)"/><g transform="translate(3 2)"><path class="b" d="M25.136,15.083H20.512a2.177,2.177,0,0,1-2.277-2.054V2.971A2.177,2.177,0,0,1,20.512.917h4.7a.483.483,0,0,0,.508-.458A.483.483,0,0,0,25.211,0h-4.7a3.148,3.148,0,0,0-3.293,2.971V13.029A3.148,3.148,0,0,0,20.512,16h4.625a.461.461,0,1,0,0-.917Z" transform="translate(-17.219 0)"/><path class="b" d="M132.918,139.7l-3.229-3.229a.508.508,0,1,0-.719.719l2.363,2.363H121.027a.508.508,0,0,0,0,1.016h10.307l-2.363,2.363a.51.51,0,0,0,.357.869.5.5,0,0,0,.357-.151l3.229-3.229A.508.508,0,0,0,132.918,139.7Z" transform="translate(-118.317 -132.061)"/></g></g></svg>