<svg xmlns="http://www.w3.org/2000/svg" width="29.14" height="21.95" viewBox="0 0 29.14 21.95"><defs><style>.a{fill:#fff;stroke:#fff;stroke-width:0.2px;}</style></defs><path class="a" d="M3.285,17.5H25.654a3.289,3.289,0,0,0,3.285-3.285V-.965A3.289,3.289,0,0,0,25.654-4.25H3.285A3.289,3.289,0,0,0,0-.965V14.214A3.289,3.289,0,0,0,3.285,17.5Zm0-.979a2.292,2.292,0,0,1-1.4-.472l6.69-6.842a.489.489,0,1,0-.7-.684L1.251,15.3a2.3,2.3,0,0,1-.273-1.087V.114L12.351,9.743a3.275,3.275,0,0,0,4.248,0L27.961.1V14.214a2.292,2.292,0,0,1-.274,1.09L21.02,8.521a.489.489,0,0,0-.7.686l6.726,6.844a2.292,2.292,0,0,1-1.394.47Zm0-19.792H25.654a2.31,2.31,0,0,1,2.3,2.1L15.966,9a2.3,2.3,0,0,1-2.983,0L.988-1.161a2.309,2.309,0,0,1,2.3-2.111Zm0,0" transform="translate(0.1 4.35)"/></svg>