<svg xmlns="http://www.w3.org/2000/svg" width="20" height="20" viewBox="0 0 20 20"><defs><style>.a{fill:none;}.b{fill:#fff;}</style></defs><g transform="translate(-73.598 2)"><rect class="a" width="20" height="20" transform="translate(73.598 -2)"/><path class="b" d="M88.408,4.1l-1.051-.881-.239-1.351a.937.937,0,0,0-.924-.774H84.821L83.77.219a.937.937,0,0,0-1.206,0l-1.05.883H80.143a.937.937,0,0,0-.923.776l-.237,1.351-1.05.883A.937.937,0,0,0,77.724,5.3l.687,1.187L78.174,7.84a.937.937,0,0,0,.6,1.044l1.156.42,0,5.758a.938.938,0,0,0,1.473.771l1.748-1.213,1.748,1.213a.938.938,0,0,0,1.473-.771V9.31l1.191-.435a.937.937,0,0,0,.6-1.045l-.239-1.35.685-1.188A.937.937,0,0,0,88.408,4.1Zm-4.981,9.558a.469.469,0,0,0-.535,0l-2.015,1.4h0l0-4.359a.936.936,0,0,0,1.014.249l1.288-.47,1.289.468a.937.937,0,0,0,.977-.212v4.326Zm3.694-7.651a.939.939,0,0,0-.111.632l.239,1.35-1.288.47a.94.94,0,0,0-.409.295l-.015.019a.929.929,0,0,0-.067.1l-.684,1.188h0L83.5,9.6a.94.94,0,0,0-.642,0l-1.288.47-.687-1.187a.936.936,0,0,0-.132-.175l-.014-.015a.94.94,0,0,0-.347-.222L79.1,8l.237-1.351a.94.94,0,0,0-.112-.632l-.687-1.187,1.05-.883a.939.939,0,0,0,.32-.556l.237-1.351h1.371a.939.939,0,0,0,.6-.22l1.05-.883,1.051.881a.94.94,0,0,0,.6.219h1.372l.239,1.351a.94.94,0,0,0,.321.555l1.051.881Z" transform="translate(0 0)"/><path class="b" d="M172.025,93.29a2.7,2.7,0,1,0,2.7,2.7A2.7,2.7,0,0,0,172.025,93.29Zm0,4.463a1.763,1.763,0,1,1,1.763-1.763A1.765,1.765,0,0,1,172.025,97.753Z" transform="translate(-88.853 -90.37)"/></g></svg>