<svg xmlns="http://www.w3.org/2000/svg" width="28.125" height="28.119" viewBox="0 0 28.125 28.119"><defs><style>.a,.b{fill:#fff;}.a{stroke:#fff;stroke-width:0.3px;}</style></defs><g transform="translate(0.156 0.15)"><path class="a" d="M.464,27.822A.464.464,0,0,1,.029,27.2l2.138-5.833a13.917,13.917,0,1,1,4.494,4.416L.61,27.8a.463.463,0,0,1-.146.024Zm6.257-3.013a.463.463,0,0,1,.248.072,12.98,12.98,0,1,0-3.9-3.828.464.464,0,0,1,.048.415L1.23,26.614l5.344-1.781a.461.461,0,0,1,.147-.024Zm0,0" transform="translate(0 -0.003)"/><path class="b" d="M96.925,188.463a.468.468,0,0,1-.207-.049l-5.356-2.678-5.357,2.678a.464.464,0,0,1-.586-.683l5.564-7.882a.463.463,0,0,1,.6-.139l4.871,2.657,5.338-3.114a.464.464,0,0,1,.629.642l-5.1,8.346a.464.464,0,0,1-.4.223Zm-5.563-3.709a.465.465,0,0,1,.207.049l5.183,2.591,3.92-6.414L96.7,183.3a.461.461,0,0,1-.456.007L91.5,180.722l-4.262,6.037,3.914-1.957A.474.474,0,0,1,91.362,184.753Zm0,0" transform="translate(-80.698 -169.453)"/></g></svg>