<svg xmlns="http://www.w3.org/2000/svg" width="20" height="20" viewBox="0 0 20 20"><defs><style>.a{fill:none;}.b{fill:#00A6E6;}</style></defs><g transform="translate(0.037)"><rect class="a" width="20" height="20" transform="translate(-0.037)"/><g transform="translate(2 2)"><path class="b" d="M13.774,2.345A8,8,0,0,0,1.929,13.072a3,3,0,0,1-1.26,1.457.746.746,0,0,0,.215,1.407,3.81,3.81,0,0,0,.566.044h0a5.177,5.177,0,0,0,2.876-.931,8,8,0,0,0,9.449-12.7Zm-.64,10.67a7.1,7.1,0,0,1-8.611,1.1.451.451,0,0,0-.506.03,4.311,4.311,0,0,1-2.51.921,4.553,4.553,0,0,0,1.371-1.893.455.455,0,0,0-.077-.482,7.1,7.1,0,1,1,10.333.322Z" transform="translate(-0.117)"/><path class="b" d="M132.419,160h-6.685a.451.451,0,0,0,0,.9h6.685a.451.451,0,0,0,0-.9Z" transform="translate(-121.077 -154.639)"/><path class="b" d="M132.419,225.3h-6.685a.451.451,0,1,0,0,.9h6.685a.451.451,0,0,0,0-.9Z" transform="translate(-121.077 -217.751)"/><path class="b" d="M132.419,290.6h-6.685a.451.451,0,0,0,0,.9h6.685a.451.451,0,0,0,0-.9Z" transform="translate(-121.077 -280.863)"/></g></g></svg>