<svg xmlns="http://www.w3.org/2000/svg" width="100" height="100" viewBox="0 0 100 100">
  <g id="online-education" transform="translate(0 -0.607)">
    <g id="Path_192" data-name="Path 192" transform="translate(-56.827 -56.678)" fill="rgba(255,255,255,0.9)">
      <path d="M 106.8270568847656 119.0485916137695 C 98.88327789306641 119.0485916137695 90.91342163085938 117.2269134521484 83.77909088134766 113.7804870605469 C 83.03253173828125 113.4197616577148 82.55010986328125 112.6510162353516 82.55010986328125 111.8220291137695 L 82.55010986328125 92.79508209228516 L 82.55010986328125 92.27680206298828 L 82.0653076171875 92.09353637695312 L 72.77604675292969 88.58201599121094 C 71.93505096435547 88.26418304443359 71.37004089355469 87.44663238525391 71.37004089355469 86.54761505126953 C 71.37004089355469 85.64847564697266 71.93505096435547 84.83084869384766 72.77599334716797 84.51306915283203 L 106.0580902099609 71.93158721923828 C 106.3045806884766 71.83846282958984 106.5633316040039 71.79122161865234 106.8270034790039 71.79122161865234 C 107.090690612793 71.79122161865234 107.3495101928711 71.83847808837891 107.5962677001953 71.93166351318359 L 140.8780822753906 84.51264190673828 C 141.7190704345703 84.83058166503906 142.2841186523438 85.64822387695312 142.2841186523438 86.54722595214844 L 142.2841186523438 97.68609619140625 C 142.2841186523438 98.88539886474609 141.3084106445312 99.86109161376953 140.1091003417969 99.86109161376953 C 138.9098052978516 99.86109161376953 137.9341125488281 98.88539886474609 137.9341125488281 97.68609619140625 L 137.9341125488281 90.78004455566406 L 137.9341125488281 89.6947021484375 L 136.9188842773438 90.07850646972656 L 131.5888061523438 92.09354400634766 L 131.1040191650391 92.27681732177734 L 131.1040191650391 92.79508209228516 L 131.1040191650391 111.8220291137695 C 131.1040191650391 112.6510162353516 130.6215972900391 113.4197616577148 129.8749847412109 113.780517578125 C 122.7407073974609 117.2269134521484 114.7708435058594 119.0485916137695 106.8270568847656 119.0485916137695 Z M 86.90010833740234 93.92128753662109 L 86.90010833740234 95.00660705566406 L 86.90010833740234 109.9476165771484 L 86.90010833740234 110.4387817382812 L 87.350341796875 110.6351089477539 C 93.44769287109375 113.2937240600586 100.1826324462891 114.6989974975586 106.8270568847656 114.6989974975586 C 113.4712982177734 114.6989974975586 120.2062377929688 113.2937240600586 126.3037719726562 110.6351089477539 L 126.7540130615234 110.4387969970703 L 126.7540130615234 109.9476165771484 L 126.7540130615234 95.00660705566406 L 126.7540130615234 93.92128753662109 L 125.7388076782227 94.3050537109375 L 107.5960388183594 101.1634521484375 C 107.3495483398438 101.2565841674805 107.0907821655273 101.303825378418 106.8270721435547 101.303825378418 C 106.563346862793 101.303825378418 106.3045806884766 101.2565841674805 106.0579528808594 101.1634063720703 L 87.91530609130859 94.3050537109375 L 86.90010833740234 93.92128753662109 Z M 106.8270568847656 76.29133605957031 L 106.5618591308594 76.39158630371094 L 81.55188751220703 85.84588623046875 L 79.69606781005859 86.54742431640625 L 81.55188751220703 87.24898529052734 L 106.5618591308594 96.70347595214844 L 106.8270568847656 96.80372619628906 L 107.0922622680664 96.70347595214844 L 132.1022186279297 87.24917602539062 L 133.9580383300781 86.54763793945312 L 132.1022186279297 85.84607696533203 L 107.0922622680664 76.39158630371094 L 106.8270568847656 76.29133605957031 Z" stroke="none"/>
      <path d="M 106.8270034790039 72.54121398925781 C 106.6542129516602 72.54121398925781 106.4846343994141 72.57218170166016 106.3232879638672 72.63312530517578 L 73.04110717773438 85.21463775634766 C 72.49017333984375 85.42282104492188 72.12004089355469 85.95850372314453 72.12004089355469 86.54761505126953 C 72.12004089355469 87.13660430908203 72.49018859863281 87.67221069335938 73.04124450683594 87.88045501708984 L 83.30010986328125 91.75851440429688 L 83.30010986328125 111.822021484375 C 83.30010986328125 112.3651580810547 83.6162109375 112.8688354492188 84.10531616210938 113.1051559448242 C 91.13853454589844 116.5027236938477 98.99559020996094 118.2985916137695 106.8270721435547 118.2985916137695 C 114.6585464477539 118.2985916137695 122.5155944824219 116.5027236938477 129.5487060546875 113.1052017211914 C 130.0379028320312 112.8688354492188 130.35400390625 112.3651580810547 130.35400390625 111.822021484375 L 130.35400390625 91.75853729248047 L 138.6841125488281 88.60935974121094 L 138.6841125488281 97.68608856201172 C 138.6841125488281 98.47183227539062 139.3233642578125 99.11109161376953 140.1091003417969 99.11109161376953 C 140.8948669433594 99.11109161376953 141.5341186523438 98.47183227539062 141.5341186523438 97.68608856201172 L 141.5341186523438 86.54722595214844 C 141.5341186523438 85.95821380615234 141.1638793945312 85.42250061035156 140.6128845214844 85.21418762207031 L 107.3312835693359 72.63329315185547 C 107.1694946289062 72.57218933105469 106.9998321533203 72.54121398925781 106.8270034790039 72.54121398925781 M 106.8270721435547 97.60552215576172 L 77.57504272460938 86.54742431640625 L 106.8270721435547 75.48953247070312 L 136.0790710449219 86.54763793945312 L 106.8270721435547 97.60552215576172 M 106.8270568847656 100.553825378418 C 106.9998931884766 100.553825378418 107.1694946289062 100.5228576660156 107.3308334350586 100.4619140625 L 127.5040130615234 92.83596801757812 L 127.5040130615234 110.9299697875977 L 126.6035232543945 111.3226013183594 C 120.4122009277344 114.022102355957 113.573616027832 115.4489898681641 106.8270721435547 115.4489898681641 C 100.0803146362305 115.4489898681641 93.24171447753906 114.022102355957 87.05058288574219 111.3225936889648 L 86.15011596679688 110.9299545288086 L 86.15011596679688 92.83596801757812 L 106.3229904174805 100.461799621582 C 106.4846267700195 100.5228576660156 106.6542205810547 100.553825378418 106.8270568847656 100.553825378418 M 106.8269958496094 71.04122161865234 C 107.1774597167969 71.04122161865234 107.527946472168 71.10415649414062 107.8612442016602 71.23003387451172 L 141.1432800292969 83.81108856201172 C 142.2813720703125 84.24137115478516 143.0341186523438 85.330810546875 143.0341186523438 86.54722595214844 L 143.0341186523438 97.68608856201172 C 143.0341186523438 99.30152130126953 141.7245483398438 100.6110916137695 140.1091003417969 100.6110916137695 C 138.49365234375 100.6110916137695 137.1841125488281 99.30152130126953 137.1841125488281 97.68608856201172 L 137.1841125488281 90.78004455566406 L 131.85400390625 92.79508209228516 L 131.85400390625 111.822021484375 C 131.85400390625 112.9440994262695 131.2118377685547 113.9675369262695 130.2012786865234 114.455810546875 C 122.9657211303711 117.9511337280273 114.8831100463867 119.7985916137695 106.8270721435547 119.7985916137695 C 98.77101135253906 119.7985916137695 90.68840026855469 117.9511337280273 83.45285034179688 114.455810546875 C 82.44229125976562 113.9675369262695 81.80010986328125 112.9443054199219 81.80010986328125 111.822021484375 L 81.80010986328125 92.79508209228516 L 72.51084899902344 89.28355407714844 L 72.5108642578125 89.28355407714844 C 71.37277221679688 88.85346984863281 70.62004089355469 87.76402282714844 70.62004089355469 86.54761505126953 C 70.62004089355469 85.33101654052734 71.37277221679688 84.24155426025391 72.5108642578125 83.81147766113281 L 105.7928924560547 71.23003387451172 C 106.1260986328125 71.10415649414062 106.4765319824219 71.04122161865234 106.8269958496094 71.04122161865234 Z M 106.8270721435547 96.00192260742188 L 131.8370208740234 86.54762268066406 L 106.8270721435547 77.09313201904297 L 81.81709289550781 86.54743194580078 L 106.8270721435547 96.00192260742188 Z M 106.8270645141602 102.053825378418 C 106.4765777587891 102.053825378418 106.1260833740234 101.9908828735352 105.7928771972656 101.8650054931641 L 87.65011596679688 95.00659942626953 L 87.65011596679688 109.9476165771484 C 93.66319274902344 112.5694885253906 100.2547988891602 113.9489898681641 106.8270721435547 113.9489898681641 C 113.3993377685547 113.9489898681641 119.9907379150391 112.5694885253906 126.0040130615234 109.9476165771484 L 126.0040130615234 95.00659942626953 L 107.8612365722656 101.8650054931641 C 107.5280380249023 101.9908828735352 107.1775512695312 102.053825378418 106.8270645141602 102.053825378418 Z" stroke="none" fill="#000"/>
    </g>
    <g id="Path_193" data-name="Path 193" transform="translate(0 0)" fill="rgba(255,255,255,0.9)">
      <path d="M 80.17558288574219 99.85698699951172 L 19.82441329956055 99.85698699951172 C 18.62512016296387 99.85698699951172 17.6494140625 98.878173828125 17.6494140625 97.67504119873047 C 17.6494140625 96.47190856933594 18.62512016296387 95.49308013916016 19.82441329956055 95.49308013916016 L 38.31016159057617 95.49308013916016 L 39.06016159057617 95.49308013916016 L 39.06016159057617 94.74308013916016 L 39.06016159057617 89.20829010009766 L 39.06016159057617 88.45829010009766 L 38.31016159057617 88.45829010009766 L 5.849999904632568 88.45829010009766 C 3.037853240966797 88.45829010009766 0.75 86.16421508789062 0.75 83.34441375732422 L 0.75 6.470880508422852 C 0.75 3.651067018508911 3.037853240966797 1.356986999511719 5.849999904632568 1.356986999511719 L 94.15000152587891 1.356986999511719 C 96.96214294433594 1.356986999511719 99.25 3.651067018508911 99.25 6.470880508422852 L 99.25 83.34421539306641 C 99.25 86.16401672363281 96.96214294433594 88.45809173583984 94.15000152587891 88.45809173583984 L 61.68983840942383 88.45809173583984 L 60.93983840942383 88.45809173583984 L 60.93983840942383 89.20809173583984 L 60.93983840942383 94.74308013916016 L 60.93983840942383 95.49308013916016 L 61.68983840942383 95.49308013916016 L 80.17558288574219 95.49308013916016 C 81.3748779296875 95.49308013916016 82.3505859375 96.47190856933594 82.3505859375 97.67504119873047 C 82.3505859375 98.878173828125 81.3748779296875 99.85698699951172 80.17558288574219 99.85698699951172 Z M 43.41016006469727 88.45809173583984 L 43.41016006469727 89.20809173583984 L 43.41016006469727 94.74288177490234 L 43.41016006469727 95.49288177490234 L 44.16016006469727 95.49288177490234 L 55.8398551940918 95.49288177490234 L 56.5898551940918 95.49288177490234 L 56.5898551940918 94.74288177490234 L 56.5898551940918 89.20809173583984 L 56.5898551940918 88.45809173583984 L 55.8398551940918 88.45809173583984 L 44.16016006469727 88.45809173583984 L 43.41016006469727 88.45809173583984 Z M 5.099999904632568 76.76319885253906 L 5.099999904632568 77.51319885253906 L 5.099999904632568 83.34421539306641 L 5.099999904632568 84.09421539306641 L 5.849999904632568 84.09421539306641 L 94.15001678466797 84.09421539306641 L 94.90001678466797 84.09421539306641 L 94.90354919433594 83.34401702880859 L 94.90333557128906 77.51317596435547 L 94.90330505371094 76.76319885253906 L 94.15333557128906 76.76319885253906 L 5.849999904632568 76.76319885253906 L 5.099999904632568 76.76319885253906 Z M 5.099999904632568 5.720880508422852 L 5.099999904632568 6.470880508422852 L 5.099999904632568 71.64930725097656 L 5.099999904632568 72.39930725097656 L 5.849999904632568 72.39930725097656 L 94.15312957763672 72.39930725097656 L 94.90317535400391 72.39930725097656 L 94.90312957763672 71.64926910400391 L 94.90000152587891 6.470840454101562 L 94.89996337890625 5.720880508422852 L 94.15000152587891 5.720880508422852 L 5.849999904632568 5.720880508422852 L 5.099999904632568 5.720880508422852 Z" stroke="none"/>
      <path d="M 5.849998474121094 2.106986999511719 C 3.451393127441406 2.106986999511719 1.5 4.064628601074219 1.5 6.47088623046875 L 1.5 83.34439849853516 C 1.5 85.75065612792969 3.451393127441406 87.70829010009766 5.849998474121094 87.70829010009766 L 39.81015396118164 87.70829010009766 L 39.81015396118164 96.24307250976562 L 19.82440948486328 96.24307250976562 C 19.03866577148438 96.24307250976562 18.3994140625 96.88544464111328 18.3994140625 97.67503356933594 C 18.3994140625 98.46461486816406 19.03866577148438 99.10698699951172 19.82440948486328 99.10698699951172 L 80.17558288574219 99.10698699951172 C 80.96132659912109 99.10698699951172 81.6005859375 98.46461486816406 81.6005859375 97.67503356933594 C 81.6005859375 96.88544464111328 80.96132659912109 96.24307250976562 80.17558288574219 96.24307250976562 L 60.18983840942383 96.24307250976562 L 60.18983840942383 87.70808410644531 L 94.14999389648438 87.70808410644531 C 96.54859924316406 87.70808410644531 98.5 85.75045776367188 98.5 83.34420013427734 L 98.5 6.470870971679688 C 98.5 4.064613342285156 96.54859924316406 2.106986999511719 94.14999389648438 2.106986999511719 L 5.849998474121094 2.106986999511719 M 95.6531982421875 73.14929962158203 L 4.349998474121094 73.14929962158203 L 4.349998474121094 4.970870971679688 L 95.64992523193359 4.97088623046875 L 95.6531982421875 73.14929962158203 M 95.65000915527344 84.84420013427734 L 4.350013732910156 84.84420013427734 L 4.350013732910156 76.01319885253906 L 95.65326690673828 76.01319885253906 L 95.65355682373047 83.34400177001953 L 95.65000915527344 84.84420013427734 M 57.3398551940918 96.24288940429688 L 42.66015243530273 96.24288940429688 L 42.66015243530273 87.70808410644531 L 57.3398551940918 87.70808410644531 L 57.3398551940918 96.24288940429688 M 5.849998474121094 0.6069869995117188 L 94.14999389648438 0.6069869995117188 C 97.37577819824219 0.6069869995117188 100 3.237442016601562 100 6.470870971679688 L 100 83.34420013427734 C 100 86.57764434814453 97.37557983398438 89.20808410644531 94.14999389648438 89.20808410644531 L 61.68983840942383 89.20808410644531 L 61.68983840942383 94.74307250976562 L 80.17558288574219 94.74307250976562 C 81.79100799560547 94.74307250976562 83.1005859375 96.05574035644531 83.1005859375 97.67503356933594 C 83.1005859375 99.29430389404297 81.79100799560547 100.6069869995117 80.17558288574219 100.6069869995117 L 19.82440948486328 100.6069869995117 C 18.208984375 100.6069869995117 16.8994140625 99.29430389404297 16.8994140625 97.67503356933594 C 16.8994140625 96.05574035644531 18.208984375 94.74307250976562 19.82440948486328 94.74307250976562 L 38.31015396118164 94.74307250976562 L 38.31015396118164 89.20829010009766 L 5.849998474121094 89.20829010009766 C 2.624214172363281 89.20829010009766 0 86.57764434814453 0 83.34439849853516 L 0 6.47088623046875 C 0 3.237442016601562 2.624214172363281 0.6069869995117188 5.849998474121094 0.6069869995117188 Z M 94.15312194824219 71.64929962158203 L 94.14999389648438 6.47088623046875 L 5.849998474121094 6.470870971679688 L 5.849998474121094 71.64929962158203 L 94.15312194824219 71.64929962158203 Z M 94.15000915527344 83.34420013427734 C 94.15254211425781 83.34420013427734 94.15372467041016 83.34400177001953 94.15352630615234 83.34400177001953 L 94.15332794189453 77.51319885253906 L 5.850013732910156 77.51319885253906 L 5.850013732910156 83.34420013427734 L 94.15000915527344 83.34420013427734 Z M 55.8398551940918 94.74288940429688 L 55.8398551940918 89.20808410644531 L 44.16015243530273 89.20808410644531 L 44.16015243530273 94.74288940429688 L 55.8398551940918 94.74288940429688 Z" stroke="none" fill="#000"/>
    </g>
  </g>
</svg>
