<svg xmlns="http://www.w3.org/2000/svg" width="20" height="20" viewBox="0 0 20 20"><defs><style>.a{fill:none;}.b{fill:#fff;}</style></defs><g transform="translate(-73.598 2)"><rect class="a" width="20" height="20" transform="translate(73.598 -2)"/><path class="b" d="M15.678,5.6a2.078,2.078,0,0,1,.429.679,2.061,2.061,0,0,1,.179.786V17.346a.854.854,0,0,1-.857.857h-12a.854.854,0,0,1-.857-.857V3.061A.854.854,0,0,1,3.428,2.2h8a2.061,2.061,0,0,1,.786.179,2.078,2.078,0,0,1,.679.429ZM11.714,3.418V6.775h3.357a.976.976,0,0,0-.2-.366L12.08,3.614a.975.975,0,0,0-.366-.2Zm3.429,13.643V7.918H11.428a.854.854,0,0,1-.857-.857V3.346H3.714V17.061H15.142Zm-4.589-5.295a6.793,6.793,0,0,0,.75.5,8.86,8.86,0,0,1,1.045-.062q1.313,0,1.58.438a.432.432,0,0,1,.018.464.026.026,0,0,1-.009.018l-.018.018v.009q-.054.339-.634.339a3.683,3.683,0,0,1-1.027-.179,6.51,6.51,0,0,1-1.161-.473,16.077,16.077,0,0,0-3.5.741q-1.366,2.339-2.161,2.339a.519.519,0,0,1-.25-.062l-.214-.107q-.009-.009-.054-.045a.369.369,0,0,1-.054-.321,1.939,1.939,0,0,1,.5-.817A4.315,4.315,0,0,1,6.544,13.7a.13.13,0,0,1,.205.054.051.051,0,0,1,.018.036q.464-.759.955-1.759a13.627,13.627,0,0,0,.929-2.339A7.217,7.217,0,0,1,8.379,8.27a3.472,3.472,0,0,1,.058-1.138q.1-.357.375-.357h.2a.376.376,0,0,1,.313.134.713.713,0,0,1,.08.607.194.194,0,0,1-.036.071.232.232,0,0,1,.009.071v.268a11.692,11.692,0,0,1-.125,1.714,4.517,4.517,0,0,0,1.3,2.125ZM5.41,15.436a3.942,3.942,0,0,0,1.223-1.411,5.09,5.09,0,0,0-.781.75A2.968,2.968,0,0,0,5.41,15.436ZM8.964,7.221A2.655,2.655,0,0,0,8.946,8.4q.009-.062.063-.393,0-.027.063-.384a.2.2,0,0,1,.036-.071A.026.026,0,0,1,9.1,7.534a.018.018,0,0,0,0-.013.018.018,0,0,1,0-.013.514.514,0,0,0-.116-.321.026.026,0,0,1-.009.018v.018Zm-1.107,5.9a13.1,13.1,0,0,1,2.536-.723,1.347,1.347,0,0,1-.116-.085,1.6,1.6,0,0,1-.143-.121A4.729,4.729,0,0,1,9,10.623a11.931,11.931,0,0,1-.741,1.759q-.268.5-.4.741Zm5.768-.143a2.137,2.137,0,0,0-1.25-.214,3.377,3.377,0,0,0,1.107.25.866.866,0,0,0,.161-.009q0-.009-.018-.027Z" transform="translate(74.027 -2.204)"/></g></svg>