<svg xmlns="http://www.w3.org/2000/svg" width="28.13" height="28.123" viewBox="0 0 28.13 28.123"><defs><style>.a,.b{fill:#fff;}.b{stroke:#fff;stroke-width:0.3px;}</style></defs><g transform="translate(0.157 0.15)"><g transform="translate(6.029 6.491)"><path class="a" d="M125.03,129.045a9.122,9.122,0,0,1-1.994-.5,1.967,1.967,0,0,0-2.065.441l-.694.692a11.466,11.466,0,0,1-3.821-3.812l.7-.694a1.957,1.957,0,0,0,.441-2.06,9.079,9.079,0,0,1-.5-2,1.943,1.943,0,0,0-1.951-1.679H112.9c-.058,0-.117,0-.174.008a1.953,1.953,0,0,0-1.771,2.128,15.252,15.252,0,0,0,2.36,6.656,15.091,15.091,0,0,0,4.616,4.608,15.334,15.334,0,0,0,6.65,2.358c.06.006.121.008.183.008a1.956,1.956,0,0,0,1.949-1.96v-2.229A1.955,1.955,0,0,0,125.03,129.045Zm.76,1.973v2.236a1.027,1.027,0,0,1-1.022,1.029c-.033,0-.067,0-.091,0a14.394,14.394,0,0,1-6.24-2.217,14.171,14.171,0,0,1-4.336-4.328,14.318,14.318,0,0,1-2.218-6.245,1.026,1.026,0,0,1,.933-1.113c.03,0,.06,0,.09,0h2.253a1.031,1.031,0,0,1,1.019.878,10,10,0,0,0,.548,2.2,1.026,1.026,0,0,1-.23,1.079l-.947.946a.463.463,0,0,0-.076.558,12.4,12.4,0,0,0,4.651,4.641.464.464,0,0,0,.556-.075l.946-.944a1.032,1.032,0,0,1,1.087-.23,10.063,10.063,0,0,0,2.194.546,1.026,1.026,0,0,1,.884,1.041S125.79,131.014,125.79,131.018Z" transform="translate(-110.951 -119.443)"/></g><g transform="translate(0 0)"><g transform="translate(0 0)"><path class="b" d="M13.912,0A13.91,13.91,0,0,0,2.167,21.369L.028,27.2a.464.464,0,0,0,.435.623A.468.468,0,0,0,.61,27.8l6.051-2.017A13.911,13.911,0,1,0,13.912,0Zm0,26.9A12.94,12.94,0,0,1,6.97,24.885a.467.467,0,0,0-.249-.072.453.453,0,0,0-.147.024L1.231,26.618l1.887-5.147a.464.464,0,0,0-.048-.415A12.983,12.983,0,1,1,13.912,26.9Z" transform="translate(0 -0.003)"/></g></g></g></svg>