<svg xmlns="http://www.w3.org/2000/svg" width="61.801" height="61.801" viewBox="0 0 61.801 61.801"><defs><style>.a{fill:#fff;}</style></defs><path class="a" d="M50.765,0H11.036A11.049,11.049,0,0,0,0,11.036V50.765A11.049,11.049,0,0,0,11.036,61.8H50.765A11.049,11.049,0,0,0,61.8,50.765V11.036A11.049,11.049,0,0,0,50.765,0ZM41.936,33.108H33.108v8.829a2.207,2.207,0,0,1-4.414,0V33.108H19.865a2.207,2.207,0,1,1,0-4.414h8.829V19.865a2.207,2.207,0,1,1,4.414,0v8.829h8.829a2.207,2.207,0,1,1,0,4.414Z"/></svg>