<svg xmlns="http://www.w3.org/2000/svg" width="101.512" height="101.51" viewBox="0 0 101.512 101.51">
  <g id="presentation" transform="translate(0.756 0.75)">
    <g id="Group_923" data-name="Group 923" transform="translate(5.04)">
      <g id="Group_922" data-name="Group 922">
        <path id="Path_194" data-name="Path 194" d="M40.709,0a15.1,15.1,0,1,0,15.1,15.1A15.119,15.119,0,0,0,40.709,0Zm0,25.168A10.067,10.067,0,1,1,50.776,15.1,10.066,10.066,0,0,1,40.709,25.168Z" transform="translate(-25.609)" fill="rgba(255,255,255,0.9)" stroke="#000" stroke-width="1.5"/>
      </g>
    </g>
    <g id="Group_925" data-name="Group 925" transform="translate(39.606 24.5)">
      <g id="Group_924" data-name="Group 924">
        <path id="Path_195" data-name="Path 195" d="M260.175,128H209.842a5.033,5.033,0,0,0-5.033,5.033v3.844l5.033,2.517v-6.36h50.333V173.3H209.842v-5.983l-5.033-1.257v7.24a5.033,5.033,0,0,0,5.033,5.033h20.724l-12.815,21.356a2.516,2.516,0,0,0,4.317,2.585L232.492,184.9V200.98a2.517,2.517,0,0,0,5.033,0V184.9l10.426,17.373a2.516,2.516,0,0,0,2.158,1.223,2.469,2.469,0,0,0,1.294-.359,2.512,2.512,0,0,0,.866-3.451l-12.815-21.356h20.722a5.033,5.033,0,0,0,5.033-5.033V133.033A5.033,5.033,0,0,0,260.175,128Z" transform="translate(-204.809 -128)" fill="rgba(255,255,255,0.9)" stroke="#000" stroke-width="1.5"/>
      </g>
    </g>
    <g id="Group_927" data-name="Group 927" transform="translate(0.006 34.567)">
      <g id="Group_926" data-name="Group 926">
        <path id="Path_196" data-name="Path 196" d="M87.325,183.541a2.475,2.475,0,0,0-3.087-1.725L53.415,190.69a4.988,4.988,0,0,0-1.222-.891L32.212,179.733a4.974,4.974,0,0,0-2.235-.532H10a5.007,5.007,0,0,0-4.915,4.132l-5,27.681a5.062,5.062,0,0,0,1.079,4.126A4.982,4.982,0,0,0,5,216.949H8.194L10.014,240a5.009,5.009,0,0,0,4.979,4.634h9.99a5.009,5.009,0,0,0,4.965-4.476l4.364-39.574,14.436,3.636a4.972,4.972,0,0,0,4.284-.916,5.048,5.048,0,0,0,1.921-3.968v-3.854l30.659-8.827A2.513,2.513,0,0,0,87.325,183.541ZM49.959,199.334,29.978,194.3l-5,45.3h-9.99l-2.185-27.683H5l5-27.681H17.49v15.311a2.5,2.5,0,1,0,5,0V184.234h7.493L49.959,194.3Z" transform="translate(-0.006 -179.201)" fill="rgba(255,255,255,0.9)" stroke="#000" stroke-width="1.5"/>
      </g>
    </g>
  </g>
</svg>
