<svg height='300px' width='300px'  fill="#ffffff" xmlns="http://www.w3.org/2000/svg" xmlns:xlink="http://www.w3.org/1999/xlink" version="1.1" x="0px" y="0px" viewBox="0 0 64 64" enable-background="new 0 0 64 64" xml:space="preserve"><g><path fill="#ffffff" d="M59.495,57.407c0,0.197,0,0.391-0.001,0.583v0.017H15.218V57.99c-0.001-0.192-0.001-0.385-0.001-0.583   c0,0-0.095-3.474,4.299-3.369h35.679C59.59,53.933,59.495,57.407,59.495,57.407z"></path><path fill="#ffffff" d="M54.995,47.727c-0.743-5.628-3.482-10.114-8.566-13.08c-2.472-1.443-4.954-2.303-7.419-2.589v-2.064   c0.526,0.001,1.039,0.042,1.54-0.014c0.383-0.043,0.795-0.143,1.116-0.343c0.61-0.379,0.833-1.163,0.622-1.841   c-0.206-0.663-0.797-1.148-1.516-1.158c-1.552-0.023-3.104-0.014-4.655-0.015c-0.798,0-1.597-0.016-2.394,0.02   c-0.867,0.039-1.505,0.73-1.531,1.593c-0.03,1.004,0.682,1.724,1.755,1.755c0.538,0.015,1.077,0.003,1.6,0.003v2.044   c-3.002,0.313-5.962,1.492-8.83,3.528c-4.252,3.018-6.555,7.167-7.178,12.169c-0.908,0.244-1.577,1.073-1.577,2.058v0   c0,1.177,0.954,2.131,2.131,2.131h34.369c1.177,0,2.131-0.954,2.131-2.131v0C56.594,48.798,55.915,47.963,54.995,47.727z"></path><path fill="#ffffff" d="M62.074,19.498c-6.357-1.916-11.035-5.022-11.035-5.022c-4.758-3.264-14.207-6.846-14.207-6.846   C29.338,4.34,23.1,6.758,20.153,8.397c-2.815,1.057-4.507,2.445-4.507,2.445c-0.013,0-0.04,0.013-0.053,0.013   c-1.996,1.256-4.322,1.903-6.648,1.612c-0.093-0.132-1.137-0.225-1.282-0.278c-0.502-0.04-1.018,0.172-1.335,0.595l-4.626,6.251   c-0.093,0.119-0.172,0.251-0.211,0.37c-0.053,0.145-0.066,0.277-0.066,0.396c0,0.093-0.013,0.172,0,0.278   c0.04,0.172,0.093,0.33,0.198,0.502c0.991,0.978,5.987,3.7,7.401,4.11c3.093,0.912,6.423,1.612,9.608,0.793   c1.797-0.463,3.555-1.176,5.339-1.731c4.467-1.388,8.789-3.476,13.705-2.921c2.062,0.211,4.084,0.555,6.145,0.78   c0.198,0.04,0.41,0.053,0.608,0.066c0.753,0.079,1.559,0.093,2.326-0.013c0.251-0.04,0.502-0.079,0.753-0.145   c0.605-0.159,1.153-0.582,1.122-1.263c-0.051-1.121-1.372-1.359-2.218-1.618c-1.123-0.344-2.392-0.74-3.582-1.044   c-0.581-0.159-1.137-0.278-1.652-0.357c-1.705-0.278-3.396-0.476-5.101-0.608c-0.634-0.053-1.256-0.106-1.89-0.132   c-0.515-0.026-1.044-0.026-1.546-0.026c-0.568-0.013-1.229,0.185-1.784,0.013c-1.322-0.396-0.515-1.07,0.291-1.48   c2.934-1.467,6.951-0.608,9.978,0.053c1.599,0.344,3.145,0.859,4.652,1.467c0.132,0.053,0.264,0.106,0.41,0.159   c0,0,6.767,1.678,3.502,5.881c1.044,0.33,2.392,0.793,3.436,1.097c1.176,0.33,2.26,0.344,2.775-0.925   c0-0.026,0.013-0.04,0.013-0.053c0.383,0.066,0.568,0.066,0.568,0.066c2.987-0.093,3.515-0.727,3.41-1.269   C64.148,21.19,62.074,19.498,62.074,19.498z"></path></g></svg>