<svg xmlns="http://www.w3.org/2000/svg" width="30" height="30" viewBox="0 0 30 30"><defs><style>.a,.b{fill:none;}.b{stroke:rgba(255,255,255,0.9);stroke-width:2px;}</style></defs><g transform="translate(-1116 -41)"><rect class="a" width="30" height="30" transform="translate(1116 41)"/><path class="b" d="M4.642,17.933H14.99a1.449,1.449,0,0,1,1.025,2.472L10.84,27.579a1.441,1.441,0,0,1-2.044,0l-5.18-7.174A1.449,1.449,0,0,1,4.642,17.933ZM16.015,11.6,10.84,4.429a1.441,1.441,0,0,0-2.044,0L3.617,11.6a1.449,1.449,0,0,0,1.025,2.472H14.99A1.449,1.449,0,0,0,16.015,11.6Z" transform="translate(1120.808 39.996)"/></g></svg>