<svg xmlns="http://www.w3.org/2000/svg" width="174" height="174.005" viewBox="0 0 174 174.005"><defs><style>.a{fill:#f3f5f9;}.b{fill:#e1e6f0;}.c{fill:#00a6e6;}.d{fill:none;}</style></defs><g transform="translate(-0.008 0)"><path class="a" d="M173.556,84.9a68.435,68.435,0,0,0-8.309-13.391A68.3,68.3,0,0,0,167.8,55.955a5.08,5.08,0,0,0-1.608-3.883,77.946,77.946,0,0,0-13.139-9.195,68.447,68.447,0,0,0-3.6-15.348,5.1,5.1,0,0,0-2.967-2.967,60.491,60.491,0,0,0-15.348-3.939,68.628,68.628,0,0,0-9.195-12.8,4.631,4.631,0,0,0-3.883-1.6A68.3,68.3,0,0,0,102.5,8.764,68.469,68.469,0,0,0,89.109.455a5.073,5.073,0,0,0-4.2,0A68.434,68.434,0,0,0,71.516,8.764,68.3,68.3,0,0,0,55.959,6.215a4.551,4.551,0,0,0-3.883,1.6,68.613,68.613,0,0,0-9.195,12.8,60.491,60.491,0,0,0-15.348,3.939,5.1,5.1,0,0,0-2.967,2.967,60.491,60.491,0,0,0-3.939,15.348,68.626,68.626,0,0,0-12.8,9.195,5.106,5.106,0,0,0-1.6,3.883A68.3,68.3,0,0,0,8.768,71.511,68.445,68.445,0,0,0,.46,84.9a5.111,5.111,0,0,0,0,4.2A68.434,68.434,0,0,0,8.768,102.5a68.3,68.3,0,0,0-2.549,15.557,5.106,5.106,0,0,0,1.6,3.883,68.614,68.614,0,0,0,12.8,9.195,60.491,60.491,0,0,0,3.939,15.348,5.094,5.094,0,0,0,2.972,2.967,68.362,68.362,0,0,0,15.343,3.6,77.906,77.906,0,0,0,9.195,13.139,4.811,4.811,0,0,0,3.883,1.608,68.238,68.238,0,0,0,15.552-2.549,68.843,68.843,0,0,0,13.4,8.309,5.1,5.1,0,0,0,4.2,0,68.72,68.72,0,0,0,13.391-8.309,68.3,68.3,0,0,0,15.557,2.549,4.8,4.8,0,0,0,3.883-1.608,68.444,68.444,0,0,0,9.195-12.8,60.418,60.418,0,0,0,15.343-3.939,5.094,5.094,0,0,0,2.972-2.967,60.491,60.491,0,0,0,3.939-15.348,68.413,68.413,0,0,0,12.8-9.195,5.077,5.077,0,0,0,1.608-3.883,68.3,68.3,0,0,0-2.549-15.557A68.445,68.445,0,0,0,173.556,89.1,5.111,5.111,0,0,0,173.556,84.9Z" transform="translate(0)"/><path class="b" d="M258.1,173.552a68.718,68.718,0,0,0,13.391-8.309,68.3,68.3,0,0,0,15.557,2.549,4.8,4.8,0,0,0,3.883-1.608,68.444,68.444,0,0,0,9.195-12.8,60.419,60.419,0,0,0,15.343-3.939,5.1,5.1,0,0,0,2.972-2.967,60.492,60.492,0,0,0,3.939-15.348,68.412,68.412,0,0,0,12.8-9.195,5.077,5.077,0,0,0,1.608-3.883,68.3,68.3,0,0,0-2.549-15.557A68.442,68.442,0,0,0,342.552,89.1a5.111,5.111,0,0,0,0-4.2,68.431,68.431,0,0,0-8.309-13.391,68.3,68.3,0,0,0,2.549-15.557,5.079,5.079,0,0,0-1.608-3.883,77.943,77.943,0,0,0-13.139-9.195,68.447,68.447,0,0,0-3.6-15.348,5.1,5.1,0,0,0-2.967-2.967,60.491,60.491,0,0,0-15.348-3.939,68.628,68.628,0,0,0-9.195-12.8,4.631,4.631,0,0,0-3.883-1.6A68.3,68.3,0,0,0,271.5,8.765,68.445,68.445,0,0,0,258.1.455,5.072,5.072,0,0,0,256,0V174A5.077,5.077,0,0,0,258.1,173.552Z" transform="translate(-168.996 0)"/><path class="c" d="M176.736,118.827a52.109,52.109,0,0,0,7.442-10.853,52.13,52.13,0,0,0-7.442-10.853,5.106,5.106,0,0,1-1.055-5.3A52.093,52.093,0,0,0,178.4,78.941a55.631,55.631,0,0,0-11.372-7.179,5.108,5.108,0,0,1-3-4.5,51.676,51.676,0,0,0-2.41-12.938,52.077,52.077,0,0,0-12.943-2.414,5.117,5.117,0,0,1-4.5-3A55.5,55.5,0,0,0,137,37.54a52.094,52.094,0,0,0-12.884,2.723,5.078,5.078,0,0,1-5.3-1.055,52.109,52.109,0,0,0-10.853-7.442,52.131,52.131,0,0,0-10.853,7.442,5.117,5.117,0,0,1-5.3,1.055A52.094,52.094,0,0,0,78.937,37.54a55.5,55.5,0,0,0-7.179,11.372,5.117,5.117,0,0,1-4.5,3,51.676,51.676,0,0,0-12.938,2.41A52.077,52.077,0,0,0,51.91,67.267a5.117,5.117,0,0,1-3,4.5,55.5,55.5,0,0,0-11.372,7.179A52.094,52.094,0,0,0,40.26,91.825a5.107,5.107,0,0,1-1.055,5.3,52.109,52.109,0,0,0-7.442,10.853A52.131,52.131,0,0,0,39.2,118.827a5.106,5.106,0,0,1,1.055,5.3,52.094,52.094,0,0,0-2.723,12.884,55.5,55.5,0,0,0,11.372,7.179,5.117,5.117,0,0,1,3,4.5,51.676,51.676,0,0,0,2.41,12.938,52.285,52.285,0,0,0,12.949,2.419,5.1,5.1,0,0,1,4.49,3,55.631,55.631,0,0,0,7.179,11.372,52.067,52.067,0,0,0,12.879-2.723,5.105,5.105,0,0,1,5.292,1.05,52.523,52.523,0,0,0,10.863,7.447,52.323,52.323,0,0,0,10.857-7.442,5.1,5.1,0,0,1,5.292-1.055A52.093,52.093,0,0,0,137,178.408a55.631,55.631,0,0,0,7.179-11.372,5.1,5.1,0,0,1,4.49-3,52.287,52.287,0,0,0,12.943-2.419,52.031,52.031,0,0,0,2.414-12.938,5.109,5.109,0,0,1,3-4.5,55.631,55.631,0,0,0,11.372-7.179,52.1,52.1,0,0,0-2.723-12.884A5.108,5.108,0,0,1,176.736,118.827Z" transform="translate(-20.962 -20.97)"/><path class="d" d="M272.152,175.685a52.094,52.094,0,0,0,12.884,2.723,55.631,55.631,0,0,0,7.179-11.372,5.1,5.1,0,0,1,4.49-3,52.287,52.287,0,0,0,12.943-2.419,52.033,52.033,0,0,0,2.414-12.938,5.109,5.109,0,0,1,3-4.5,55.63,55.63,0,0,0,11.372-7.179,52.1,52.1,0,0,0-2.723-12.884,5.107,5.107,0,0,1,1.055-5.3,52.11,52.11,0,0,0,7.442-10.853,52.13,52.13,0,0,0-7.442-10.853,5.106,5.106,0,0,1-1.055-5.3,52.1,52.1,0,0,0,2.723-12.884,55.63,55.63,0,0,0-11.372-7.179,5.108,5.108,0,0,1-3-4.5,51.676,51.676,0,0,0-2.409-12.938,52.078,52.078,0,0,0-12.944-2.414,5.117,5.117,0,0,1-4.5-3,55.5,55.5,0,0,0-7.179-11.372,52.093,52.093,0,0,0-12.884,2.723,5.078,5.078,0,0,1-5.3-1.055A52.11,52.11,0,0,0,256,31.767V184.183a52.323,52.323,0,0,0,10.857-7.442,5.1,5.1,0,0,1,5.292-1.056Z" transform="translate(-168.995 -20.971)"/><path class="a" d="M215.731,165.848l-14.422-14.417a5.1,5.1,0,0,0-7.209,0l-18.021,18.024-10.2,10.2-7.831-7.831a5.1,5.1,0,0,0-7.209,0l-14.417,14.417a5.1,5.1,0,0,0,0,7.209L162.279,219.3a5.1,5.1,0,0,0,7.209,0l6.591-6.591,39.652-39.652a5.095,5.095,0,0,0,0-7.208Z" transform="translate(-89.071 -98.982)"/><path class="d" d="M297.148,169.453a5.093,5.093,0,0,0-1.494-3.6l-14.422-14.417a5.1,5.1,0,0,0-7.208,0L256,169.456v43.253l39.652-39.652A5.093,5.093,0,0,0,297.148,169.453Z" transform="translate(-168.995 -98.982)"/></g></svg>