<svg xmlns="http://www.w3.org/2000/svg" width="64.333" height="56.613" viewBox="0 0 64.333 56.613"><defs><style>.a{opacity:0.5;}.b,.c{fill:#fff;}.b{stroke:#fff;stroke-width:1.5px;}.d,.f{stroke:none;}.e{fill:none;}.f{fill:#fff;}</style></defs><g class="a" transform="translate(0 -24)"><g class="b" transform="translate(19.83 37.956)"><circle class="d" cx="4.417" cy="4.417" r="4.417"/><circle class="e" cx="4.417" cy="4.417" r="3.667"/></g><g class="c" transform="translate(0 0)"><path class="d" d="M 51.3190803527832 80.01303863525391 C 48.50313949584961 80.01303863525391 45.78887939453125 79.02529144287109 43.46974945068359 77.15657806396484 L 43.30493927001953 77.02378082275391 L 43.09328842163086 77.02378082275391 L 8.655489921569824 77.02378082275391 C 6.481625080108643 77.02378082275391 4.45360803604126 76.19907379150391 2.944228172302246 74.70139312744141 C 1.432523846626282 73.13700103759766 0.6000000834465027 71.12021636962891 0.6000000834465027 69.02201080322266 L 0.6000000834465027 63.34850692749023 L 0.6000000834465027 60.72526931762695 L 0.6000000834465027 32.60176849365234 C 0.6000000834465027 30.44378852844238 1.429463982582092 28.43006896972656 2.935497760772705 26.93105697631836 C 4.510701656341553 25.42774963378906 6.541807651519775 24.59999847412109 8.655489921569824 24.59999847412109 L 44.25963973999023 24.59999847412109 C 46.43363952636719 24.59999847412109 48.46173477172852 25.42477798461914 49.97114181518555 26.92263031005859 C 51.48267364501953 28.48696708679199 52.31512069702148 30.50367164611816 52.31512069702148 32.60176849365234 L 52.31512069702148 54.92974853515625 L 52.31512069702148 55.45843887329102 L 52.839599609375 55.52497863769531 C 55.55929946899414 55.87001800537109 58.07337188720703 57.05817413330078 60.11052322387695 58.96103668212891 C 62.44658660888672 61.28591918945313 63.73300170898438 64.38195037841797 63.73300170898438 67.67988586425781 C 63.73300170898438 70.98082733154297 62.44422912597656 74.07952117919922 60.10409927368164 76.40513610839844 C 57.76296997070313 78.73172760009766 54.64305114746094 80.01303863525391 51.3190803527832 80.01303863525391 Z M 41.40114974975586 70.61196899414063 C 41.46189117431641 70.95981597900391 41.57538986206055 71.34162139892578 41.73867034912109 71.74727630615234 L 41.74802017211914 71.77051544189453 L 41.75928115844727 71.79290008544922 C 41.82817840576172 71.92984771728516 41.89482879638672 72.04576110839844 41.95928955078125 72.15785217285156 C 42.01813888549805 72.26020050048828 42.07373046875 72.35688018798828 42.12760162353516 72.46395111083984 C 42.32278823852539 72.85189056396484 42.52458190917969 73.25296783447266 42.81005859375 73.60762023925781 L 42.8309211730957 73.63352966308594 L 42.85451889038086 73.65697479248047 C 42.93024063110352 73.73223114013672 43.01237869262695 73.82746887207031 43.09933853149414 73.92829132080078 C 43.19728851318359 74.04183959960938 43.29856109619141 74.15925598144531 43.40700149536133 74.26702117919922 C 43.51723098754883 74.37657928466797 43.63077926635742 74.50352478027344 43.75099945068359 74.63793182373047 C 43.87751007080078 74.77938079833984 44.00833129882813 74.92563629150391 44.14363098144531 75.06009674072266 L 44.14749908447266 75.06394195556641 L 44.15142822265625 75.06771087646484 C 46.04217147827148 76.87958526611328 48.63230133056641 77.91876220703125 51.2576904296875 77.91876220703125 C 54.02988052368164 77.91876220703125 56.62178039550781 76.86019897460938 58.555908203125 74.93807983398438 L 58.55963897705078 74.93437194824219 L 58.56330871582031 74.93059539794922 C 60.49365997314453 72.9437255859375 61.5567512512207 70.390380859375 61.55673980712891 67.74089050292969 C 61.55673980712891 64.98348999023438 60.49103164672852 62.40581893920898 58.555908203125 60.48270797729492 L 58.55218124389648 60.47900009155273 L 58.54838180541992 60.47534942626953 C 56.55012130737305 58.55797958374023 53.96089935302734 57.50203704833984 51.2576789855957 57.50203704833984 C 48.41870880126953 57.50203704833984 45.82418823242188 58.56324768066406 43.95206069946289 60.49018859863281 C 42.02170944213867 62.47708892822266 40.95862197875977 65.05210113525391 40.95862197875977 67.74089050292969 C 40.95862197875977 68.45846557617188 41.0263786315918 69.17446136474609 41.15457916259766 69.81144714355469 L 41.15740966796875 69.82551574707031 L 41.16091156005859 69.83943176269531 C 41.19726181030273 69.98392486572266 41.24782180786133 70.13468170166016 41.29671859741211 70.28045654296875 C 41.33732604980469 70.40151977539063 41.37582778930664 70.51631927490234 41.40114974975586 70.61196899414063 Z M 7.994110107421875 74.96038818359375 L 7.994110107421875 75.11249542236328 L 8.594110488891602 75.11249542236328 L 40.08535003662109 75.11249542236328 L 41.25550079345703 75.11249542236328 L 40.57255935668945 74.16231536865234 C 40.35569000244141 73.86058044433594 40.16078186035156 73.46360778808594 39.9722900390625 73.07969665527344 C 39.94384384155273 73.02175140380859 39.91554641723633 72.96412658691406 39.88732147216797 72.90708923339844 L 39.88732147216797 72.87114715576172 L 39.84392166137695 72.76333618164063 C 39.61005783081055 72.18231201171875 39.43575286865234 71.60626220703125 39.25179672241211 70.99687957763672 C 39.21986770629883 70.87104034423828 39.18844985961914 70.76174926757813 39.15803146362305 70.65592193603516 C 39.12912368774414 70.55540466308594 39.10176086425781 70.46022033691406 39.07466506958008 70.35361480712891 C 38.86982345581055 69.33274841308594 38.78237152099609 68.56893920898438 38.78237152099609 67.80189514160156 C 38.78237152099609 64.50094604492188 40.07114028930664 61.40226745605469 42.41125869750977 59.07666778564453 L 42.42544174194336 59.06258010864258 L 42.43864059448242 59.04757690429688 C 42.82448577880859 58.60935592651367 43.27095794677734 58.21937561035156 43.76613235473633 57.88804244995117 C 43.84181213378906 57.84798049926758 43.89912796020508 57.81000900268555 43.94644927978516 57.77864837646484 C 43.98654937744141 57.75209045410156 44.00872039794922 57.73759841918945 44.03549957275391 57.72430038452148 L 44.06888198852539 57.70771026611328 L 44.09994888305664 57.68711853027344 C 44.18017196655273 57.63396835327148 44.2487907409668 57.59305953979492 44.32144165039063 57.54973983764648 C 44.39965057373047 57.50310516357422 44.48041915893555 57.45493698120117 44.57873916625977 57.39022064208984 L 45.02730941772461 57.12274932861328 L 45.48770904541016 56.84821701049805 L 45.49993133544922 56.84092712402344 L 45.51179122924805 56.83306884765625 C 45.58975982666016 56.78141784667969 45.67765045166016 56.74198913574219 45.79928970336914 56.68741989135742 C 45.87635040283203 56.65285873413086 45.96369171142578 56.61367797851563 46.061279296875 56.56517791748047 L 46.09463882446289 56.54860687255859 L 46.12569046020508 56.52803039550781 C 46.25930786132813 56.43949508666992 46.33358383178711 56.40122604370117 46.45526504516602 56.35970687866211 C 46.60171890258789 56.32150268554688 46.74021148681641 56.26988983154297 46.86320114135742 56.22404861450195 C 46.97309112548828 56.18309783935547 47.07688903808594 56.1444091796875 47.16667938232422 56.12210845947266 L 47.20600891113281 56.11233901977539 L 47.24367904663086 56.09737014770508 C 47.51295852661133 55.99030685424805 47.73239135742188 55.93579864501953 47.96469879150391 55.87808990478516 L 47.98696136474609 55.87255859375 L 48.00873184204102 55.86534881591797 L 48.28495025634766 55.77383804321289 L 48.56121063232422 55.68232727050781 L 49.48435974121094 55.37649917602539 L 48.79690933227539 54.68862915039063 L 39.83449172973633 45.72082901000977 L 39.41059875488281 45.29668807983398 L 38.98620986938477 45.72032928466797 L 25.30867958068848 59.37392044067383 C 25.09400177001953 59.5634880065918 24.81856727600098 59.66772842407227 24.53156089782715 59.66772842407227 C 24.25073051452637 59.66772842407227 23.9948902130127 59.56717681884766 23.81118011474609 59.38460922241211 L 14.54183006286621 50.17278671264648 L 14.11769962310791 49.75128936767578 L 13.69474983215332 50.17397689819336 L 2.829339981079102 61.03293991088867 L 2.653480052947998 61.20869827270508 L 2.653480052947998 61.45732879638672 L 2.653480052947998 63.34850692749023 L 2.653480052947998 69.02201843261719 C 2.653480052947998 70.56571960449219 3.256580114364624 72.05519104003906 4.351690292358398 73.21607208251953 L 4.358340263366699 73.22310638427734 L 4.365200042724609 73.22994232177734 C 5.362307548522949 74.22084045410156 6.633320808410645 74.82318878173828 7.994110107421875 74.96038818359375 Z M 4.433341503143311 28.44813919067383 C 3.302143096923828 29.50594139099121 2.653480052947998 31.01932716369629 2.653480052947998 32.60176849365234 L 2.653480052947998 56.82091903686523 L 2.653480052947998 58.27597808837891 L 3.679090023040771 57.24382781982422 L 13.37814998626709 47.48295974731445 C 13.63020038604736 47.23248672485352 13.91649055480957 47.17935943603516 14.11180019378662 47.17935943603516 C 14.39288997650146 47.17935943603516 14.66643047332764 47.29098892211914 14.86229038238525 47.48563003540039 L 24.13023948669434 56.75705718994141 L 24.55413055419922 57.18111801147461 L 24.97846984863281 56.75751876831055 L 38.66764831542969 43.09230041503906 C 38.92140960693359 42.84010696411133 39.20769882202148 42.78697967529297 39.40301132202148 42.78697967529297 C 39.68410110473633 42.78697967529297 39.9576416015625 42.89860916137695 40.15349960327148 43.0932502746582 L 49.23870086669922 52.12204742431641 L 50.26163864135742 53.13863754272461 L 50.26163864135742 51.69646835327148 L 50.26163864135742 32.66276931762695 C 50.26163864135742 31.08556938171387 49.63193893432617 29.59115791320801 48.48852920532227 28.45484924316406 C 47.34613037109375 27.31953811645508 45.84428024291992 26.69429779052734 44.25963973999023 26.69429779052734 L 8.655489921569824 26.69429779052734 C 7.073945045471191 26.69429779052734 5.574920177459717 27.31704521179199 4.433341503143311 28.44813919067383 Z"/><path class="f" d="M 51.3190803527832 79.41304016113281 C 54.48348999023438 79.41304016113281 57.45320129394531 78.19367218017578 59.68115997314453 75.97956085205078 C 61.90710830688477 73.76741027832031 63.13299942016602 70.81986236572266 63.13299942016602 67.67988586425781 C 63.13299942016602 64.54602813720703 61.91170120239258 61.60367965698242 59.69399642944336 59.39301300048828 C 57.75074005126953 57.58041763305664 55.35492706298828 56.44890594482422 52.76409149169922 56.12020874023438 L 51.71511840820313 55.98712921142578 L 51.71511840820313 54.92974853515625 L 51.71511840820313 32.60176849365234 C 51.71511840820313 30.66208457946777 50.94412612915039 28.7953052520752 49.54402160644531 27.34407615661621 C 48.14823532104492 25.96138954162598 46.27200698852539 25.19999885559082 44.25963973999023 25.19999885559082 L 8.655489921569824 25.19999885559082 C 6.698968887329102 25.19999885559082 4.816815376281738 25.96725273132324 3.354419708251953 27.36064147949219 C 1.965098261833191 28.74578094482422 1.200000047683716 30.60667419433594 1.200000047683716 32.60176849365234 L 1.200000047683716 60.72526931762695 L 1.200000047683716 63.34850692749023 L 1.200000047683716 69.02201080322266 C 1.200000047683716 70.96155548095703 1.970947861671448 72.82826995849609 3.370888471603394 74.27949523925781 C 4.766702651977539 75.66233825683594 6.642998218536377 76.42378234863281 8.655489921569824 76.42378234863281 L 43.09328842163086 76.42378234863281 L 43.5166015625 76.42378234863281 L 43.84621047973633 76.68937683105469 C 46.05752944946289 78.47120666503906 48.6416015625 79.41304016113281 51.3190803527832 79.41304016113281 M 40.81515121459961 70.74365234375 C 40.79402542114258 70.66851043701172 40.76046371459961 70.56845855712891 40.72785949707031 70.47126007080078 C 40.67533874511719 70.31466674804688 40.62104034423828 70.15275573730469 40.57904052734375 69.98577880859375 L 40.57204055786133 69.95796203613281 L 40.56637954711914 69.92982482910156 C 40.43046188354492 69.25450134277344 40.35861968994141 68.49756622314453 40.35861968994141 67.74089050292969 C 40.35861968994141 64.89509582519531 41.48196029663086 62.17160034179688 43.52172088623047 60.07209014892578 C 45.50780868530273 58.02784729003906 48.25516128540039 56.90203857421875 51.2576789855957 56.90203857421875 C 54.11650848388672 56.90203857421875 56.8532600402832 58.01730728149414 58.96379089355469 60.04241943359375 L 58.97138977050781 60.04970932006836 L 58.97885131835938 60.05712890625 C 61.02814865112305 62.09370803833008 62.15673828125 64.82251739501953 62.15673828125 67.74089050292969 C 62.1567497253418 70.54737854003906 61.03340911865234 73.24922180175781 58.99364852905273 75.34870147705078 L 58.98632049560547 75.35624694824219 L 58.97885131835938 75.36367034912109 C 56.93154144287109 77.39826202392578 54.1894416809082 78.51876068115234 51.2576904296875 78.51876068115234 C 48.47909164428711 78.51876068115234 45.73765182495117 77.41880035400391 43.73630142211914 75.50090789794922 L 43.72843170166016 75.49337005615234 L 43.72069931030273 75.48568725585938 C 43.57287979125977 75.33879089355469 43.43608093261719 75.18583679199219 43.30379104614258 75.03792572021484 C 43.18962097167969 74.91028594970703 43.08177947998047 74.78971862792969 42.98405838012695 74.69261169433594 C 42.85927963256836 74.56859588623047 42.74544143676758 74.43661499023438 42.64500045776367 74.32016754150391 C 42.56578063964844 74.22831726074219 42.49095916748047 74.14157104492188 42.43157958984375 74.08256530761719 L 42.38439178466797 74.03567504882813 L 42.34268188476563 73.98384857177734 C 42.01723861694336 73.57955932617188 41.79114151000977 73.13016510009766 41.59162139892578 72.73361968994141 C 41.54526138305664 72.64147186279297 41.49608993530273 72.55596160888672 41.43915176391602 72.45693969726563 C 41.3737907409668 72.34327697753906 41.29970932006836 72.21443939208984 41.22330093383789 72.06256866455078 L 41.20077133178711 72.01779937744141 L 41.18206024169922 71.97130584716797 C 41.00750350952148 71.53762817382813 40.88418960571289 71.12495422363281 40.81515121459961 70.74365234375 M 7.394110202789307 75.48023223876953 C 6.101744174957275 75.23994445800781 4.905417919158936 74.61267852783203 3.942260026931763 73.655517578125 L 3.928529977798462 73.64186859130859 L 3.915250062942505 73.62779235839844 C 2.714670181274414 72.35511016845703 2.05348014831543 70.71942138671875 2.05348014831543 69.02201843261719 L 2.05348014831543 63.34850692749023 L 2.05348014831543 61.45732879638672 L 2.05348014831543 60.96006011962891 L 2.405200004577637 60.60854721069336 L 13.27060985565186 49.74958801269531 L 14.11649990081787 48.90419769287109 L 14.96477031707764 49.74720001220703 L 24.234130859375 58.95903015136719 C 24.32929992675781 59.05360794067383 24.46133041381836 59.06772994995117 24.53156089782715 59.06772994995117 C 24.61098480224609 59.06772994995117 24.76182174682617 59.04996109008789 24.89999389648438 58.93411254882813 L 38.56232070922852 45.29570007324219 L 39.41109848022461 44.44839859008789 L 40.25888061523438 45.29669952392578 L 49.22129821777344 54.26449966430664 L 50.59621047973633 55.64022827148438 L 48.74990081787109 56.25188827514648 L 48.47362899780273 56.34340667724609 L 48.19741821289063 56.43490982055664 L 48.15386962890625 56.4493293762207 L 48.10934829711914 56.46038818359375 C 47.87894058227539 56.51762771606445 47.69694900512695 56.56283950805664 47.46532821655273 56.6549186706543 L 47.38999938964844 56.68486785888672 L 47.31132888793945 56.70440673828125 C 47.25455093383789 56.7185173034668 47.1621208190918 56.75296783447266 47.07271957397461 56.78627777099609 C 46.94205093383789 56.83497619628906 46.79566192626953 56.8895263671875 46.62980651855469 56.93416213989258 C 46.58003997802734 56.95188522338867 46.54595184326172 56.96932983398438 46.45708847045898 57.0282096862793 L 46.39498901367188 57.06935882568359 L 46.32826995849609 57.10250854492188 C 46.22006988525391 57.15626907348633 46.12292861938477 57.19984817504883 46.04487991333008 57.23485946655273 C 45.95285034179688 57.27613830566406 45.88016891479492 57.30875015258789 45.84315872192383 57.33326721191406 L 45.81943893432617 57.34897994995117 L 45.79500198364258 57.36354827880859 L 45.33459854125977 57.63808822631836 L 44.89724349975586 57.89886474609375 C 44.79279327392578 57.96724319458008 44.70597839355469 58.01902008056641 44.62871932983398 58.06507873535156 C 44.55949020385742 58.10635757446289 44.49969863891602 58.14200973510742 44.43136978149414 58.18729019165039 L 44.36922836303711 58.22846984863281 L 44.30871200561523 58.25852584838867 C 44.29782867431641 58.26525115966797 44.28791427612305 58.27215576171875 44.27783966064453 58.27882766723633 C 44.23028564453125 58.31034088134766 44.16389465332031 58.35432815551758 44.07683944702148 58.40214157104492 C 43.63396072387695 58.70125961303711 43.23455047607422 59.05158233642578 42.88896942138672 59.4440803527832 L 42.862548828125 59.47407913208008 L 42.83420181274414 59.50225830078125 C 40.60824966430664 61.71438980102539 39.38236999511719 64.66191864013672 39.38236999511719 67.80189514160156 C 39.38236999511719 68.5233154296875 39.46543121337891 69.24795532226563 39.65981292724609 70.22000885009766 C 39.68357467651367 70.31240081787109 39.70845794677734 70.39896392822266 39.73466873168945 70.49013519287109 C 39.76536178588867 70.59688568115234 39.79701995849609 70.70703125 39.83002090454102 70.83615112304688 C 40.00857925415039 71.42761993408203 40.17824935913086 71.98705291748047 40.40053176879883 72.53929901123047 L 40.48731994628906 72.75492858886719 L 40.48731994628906 72.76728820800781 C 40.49516296386719 72.78325653076172 40.50301361083984 72.79924774169922 40.51087951660156 72.81526947021484 C 40.68849945068359 73.17704010009766 40.87216949462891 73.55113220214844 41.05976867675781 73.81214141845703 L 42.42564010620117 75.71250152587891 L 40.08535003662109 75.71250152587891 L 8.594110488891602 75.71250152587891 L 7.394110202789307 75.71250152587891 L 7.394110202789307 75.48023223876953 M 4.017126560211182 28.01590347290039 C 5.271036148071289 26.77664184570313 6.917581081390381 26.09429931640625 8.655489921569824 26.09429931640625 L 44.25963973999023 26.09429931640625 C 46.00384140014648 26.09429931640625 47.65589141845703 26.78147888183594 48.91147994995117 28.02926826477051 C 50.16905975341797 29.27904891967773 50.86164093017578 30.92459869384766 50.86164093017578 32.66276931762695 L 50.86164093017578 51.69646835327148 L 50.86164093017578 54.58081817626953 L 48.81576156616211 52.54763793945313 L 39.73056030273438 43.51882934570313 C 39.646240234375 43.43503952026367 39.52685928344727 43.38697814941406 39.40301132202148 43.38697814941406 C 39.28311157226563 43.38697814941406 39.17768096923828 43.43133926391602 39.0915412902832 43.51692962646484 L 25.4023609161377 57.18214797973633 L 24.55368041992188 58.02935028076172 L 23.70589065551758 57.18124771118164 L 14.43935012817383 47.91121673583984 C 14.35503005981445 47.82741928100586 14.23564052581787 47.77935791015625 14.11180019378662 47.77935791015625 C 13.99277114868164 47.77935791015625 13.88799381256104 47.82307434082031 13.80034255981445 47.90931701660156 L 4.104700088500977 57.666748046875 L 2.05348014831543 59.73103713989258 L 2.05348014831543 56.82091903686523 L 2.05348014831543 32.60176849365234 C 2.05348014831543 30.85677528381348 2.768999814987183 29.18646430969238 4.017126560211182 28.01590347290039 M 51.3190803527832 80.613037109375 C 48.18835830688477 80.613037109375 45.36458969116211 79.45394897460938 43.09328842163086 77.623779296875 L 8.655489921569824 77.623779296875 C 6.261420249938965 77.623779296875 4.112890243530273 76.70870208740234 2.516839981079102 75.12255859375 C 0.982180118560791 73.53640747070313 9.155273517080786e-08 71.40122222900391 9.155273517080786e-08 69.02201080322266 L 9.155273517080786e-08 63.34850692749023 L 9.155273517080786e-08 60.72526931762695 L 9.155273517080786e-08 32.60176849365234 C 9.155273517080786e-08 30.22255897521973 0.9208000898361206 28.08735847473145 2.516839981079102 26.50121879577637 C 4.112890243530273 24.97608947753906 6.261420249938965 23.99999809265137 8.655489921569824 23.99999809265137 L 44.25963973999023 23.99999809265137 C 46.65370941162109 23.99999809265137 48.80223083496094 24.91507911682129 50.39828109741211 26.50121879577637 C 51.93294906616211 28.08735847473145 52.91511917114258 30.22255897521973 52.91511917114258 32.60176849365234 L 52.91511917114258 54.92974853515625 C 55.80028915405273 55.2957878112793 58.43991088867188 56.57689666748047 60.52703857421875 58.52906799316406 C 62.8597297668457 60.84726715087891 64.33300018310547 64.08056640625 64.33300018310547 67.67988586425781 C 64.33300018310547 71.27920532226563 62.8597297668457 74.51249694824219 60.52703857421875 76.83071899414063 C 58.19435882568359 79.14891052246094 54.94087982177734 80.613037109375 51.3190803527832 80.613037109375 Z M 51.2576789855957 58.1020393371582 C 48.55667877197266 58.1020393371582 46.10123062133789 59.13913726806641 44.38240051269531 60.90828704833984 C 42.66358947753906 62.67744827270508 41.55862045288086 65.05665588378906 41.55862045288086 67.74089050292969 C 41.55862045288086 68.41194152832031 41.62001037597656 69.0830078125 41.74279022216797 69.69306945800781 C 41.80416870117188 69.93709564208984 41.92694091796875 70.24211883544922 41.98833084106445 70.48614501953125 C 42.04972076416016 70.85216522216797 42.17248916625977 71.21820068359375 42.29526901245117 71.52323913574219 C 42.41804122924805 71.76725769042969 42.54082107543945 71.95027160644531 42.66358947753906 72.19429016113281 C 42.84775161743164 72.56031799316406 43.03190994262695 72.92636108398438 43.27745056152344 73.23139190673828 C 43.46160888671875 73.41439819335938 43.64577102661133 73.65841674804688 43.82992935180664 73.8414306640625 C 44.07546997070313 74.08544921875 44.32101821899414 74.39048767089844 44.56657028198242 74.63450622558594 C 46.2853889465332 76.28164672851563 48.67945861816406 77.31875610351563 51.2576904296875 77.31875610351563 C 53.95869064331055 77.31875610351563 56.35276031494141 76.28164672851563 58.13296890258789 74.51249694824219 C 59.85179901123047 72.74334716796875 60.95674896240234 70.36412811279297 60.95674133300781 67.74089050292969 C 60.95674133300781 65.05667114257813 59.91316986083984 62.67744827270508 58.13296890258789 60.90828704833984 C 56.35276031494141 59.20013809204102 53.95867919921875 58.1020393371582 51.2576789855957 58.1020393371582 Z M 40.08535003662109 74.51249694824219 C 39.77841186523438 74.08544921875 39.53287124633789 73.53640747070313 39.28731918334961 73.04837036132813 L 39.28731918334961 72.98736572265625 C 39.04177093505859 72.37731170654297 38.85760879516602 71.76725769042969 38.6734504699707 71.15719604492188 C 38.6120719909668 70.91318511962891 38.55067825317383 70.73017120361328 38.48929977416992 70.48614501953125 C 38.30514144897461 69.57106018066406 38.18236923217773 68.71697998046875 38.18236923217773 67.80189514160156 C 38.18236923217773 64.20257568359375 39.6556396484375 60.96928787231445 41.98831939697266 58.65108871459961 C 42.41802978515625 58.16304016113281 42.90913009643555 57.73600006103516 43.46160888671875 57.36996841430664 C 43.58438110351563 57.30896759033203 43.64575958251953 57.24795913696289 43.76853942871094 57.18695831298828 C 43.95269012451172 57.06493759155273 44.07546997070313 57.00393676757813 44.25962829589844 56.88192749023438 C 44.56655883789063 56.69890975952148 44.87348937988281 56.51589965820313 45.180419921875 56.33287811279297 C 45.36458969116211 56.21086883544922 45.54874038696289 56.14986801147461 45.79428863525391 56.02785873413086 C 45.97845077514648 55.90583801269531 46.10121917724609 55.8448371887207 46.28538131713867 55.78382873535156 C 46.53092956542969 55.72282028198242 46.77647018432617 55.60080718994141 47.02201843261719 55.53981018066406 C 47.32894897460938 55.41778945922852 47.57448959350586 55.35678863525391 47.82004165649414 55.2957878112793 C 48.00419998168945 55.23477935791016 48.18835830688477 55.17377853393555 48.37252044677734 55.11277008056641 L 39.41009902954102 46.14496994018555 L 25.72092056274414 59.81018829345703 C 25.3832950592041 60.11521530151367 24.95359039306641 60.26772689819336 24.53155899047852 60.26772689819336 C 24.10952758789063 60.26772689819336 23.69516944885254 60.11521530151367 23.38824081420898 59.81018829345703 L 14.11888980865479 50.59836959838867 L 3.253480195999146 61.45732879638672 L 3.253480195999146 63.34850692749023 L 3.253480195999146 69.02201843261719 C 3.253480195999146 70.48614501953125 3.867350101470947 71.82826232910156 4.788140296936035 72.80435180664063 C 5.77032995223999 73.78042602539063 7.120830059051514 74.39048767089844 8.594110488891602 74.39048767089844 L 8.594110488891602 74.51249694824219 L 40.08535003662109 74.51249694824219 Z M 8.655489921569824 27.29429817199707 C 7.182219982147217 27.29429817199707 5.831719875335693 27.90434837341309 4.849530220031738 28.88042831420898 C 3.867350101470947 29.79551887512207 3.253480195999146 31.13763809204102 3.253480195999146 32.60176849365234 L 3.253480195999146 56.82091903686523 L 12.95254039764404 47.0600471496582 C 13.28216934204102 46.73246383666992 13.69946098327637 46.5793571472168 14.1117992401123 46.5793571472168 C 14.54414176940918 46.5793571472168 14.97102642059326 46.74779510498047 15.28522968292236 47.0600471496582 L 24.55458068847656 56.33287811279297 L 38.24375915527344 42.66765975952148 C 38.57338333129883 42.34008026123047 38.99067306518555 42.18697357177734 39.40301132202148 42.18697357177734 C 39.83535003662109 42.18697357177734 40.26223754882813 42.35541152954102 40.57643890380859 42.66765975952148 L 49.66164016723633 51.69646835327148 L 49.66164016723633 32.66276931762695 C 49.66164016723633 31.19863891601563 49.04777145385742 29.85651779174805 48.06558990478516 28.88042831420898 C 47.08340835571289 27.90434837341309 45.73291015625 27.29429817199707 44.25963973999023 27.29429817199707 L 8.655489921569824 27.29429817199707 Z"/></g><g class="c" transform="translate(-252.765 -203.849)"><path class="d" d="M 304.0296630859375 277.6996459960938 C 303.5213623046875 277.6996459960938 303.1231689453125 277.3014526367188 303.1231689453125 276.7931518554688 L 303.1231689453125 270.04443359375 L 303.1231689453125 268.2338256835938 L 301.8428649902344 269.5140991210938 L 300.8755493164063 270.4813842773438 C 300.6891479492188 270.6458129882813 300.4508972167969 270.7362060546875 300.2028503417969 270.7362060546875 C 299.9693908691406 270.7362060546875 299.757080078125 270.6552429199219 299.6029052734375 270.5078430175781 C 299.2738952636719 270.1321105957031 299.2667846679688 269.5487365722656 299.5905151367188 269.2250061035156 L 303.3943176269531 265.4211730957031 C 303.525634765625 265.2898864746094 303.6130065917969 265.2476806640625 303.6533813476563 265.2341918945313 C 303.7658996582031 265.1967163085938 303.9059448242188 265.1500244140625 303.9683227539063 265.1500244140625 L 304.0296630859375 265.1500244140625 L 304.0910339355469 265.1500244140625 C 304.1439514160156 265.1500244140625 304.252685546875 265.18359375 304.3531494140625 265.2166748046875 C 304.5541687011719 265.3212890625 304.6375427246094 265.3936462402344 304.6649780273438 265.4211120605469 L 308.4544677734375 269.2106018066406 C 308.7813415527344 269.58154296875 308.7929992675781 270.15673828125 308.4808959960938 270.4833984375 C 308.2948303222656 270.6465759277344 308.0574951171875 270.7362060546875 307.8105163574219 270.7362060546875 C 307.5706787109375 270.7362060546875 307.3532104492188 270.6507873535156 307.1981506347656 270.4957275390625 L 306.2164916992188 269.5140991210938 L 304.9361877441406 268.2338256835938 L 304.9361877441406 270.04443359375 L 304.9361877441406 276.7931518554688 C 304.9361877441406 277.3014526367188 304.5379943847656 277.6996459960938 304.0296630859375 277.6996459960938 Z"/><path class="f" d="M 304.0296936035156 265.9007873535156 C 304.008056640625 265.9071655273438 303.9803466796875 265.9160461425781 303.9523315429688 265.9252624511719 C 303.9450073242188 265.9317626953125 303.9357299804688 265.9403991699219 303.9246520996094 265.9514770507813 L 300.1208190917969 269.7553405761719 C 300.0961303710938 269.780029296875 300.0843505859375 269.8847961425781 300.1395263671875 269.97607421875 C 300.1548767089844 269.9818725585938 300.1770629882813 269.9862060546875 300.2028503417969 269.9862060546875 C 300.2314453125 269.9862060546875 300.3016662597656 269.9803161621094 300.3671569824219 269.9290771484375 L 301.3125305175781 268.9837646484375 L 303.8731689453125 266.4231872558594 L 303.8731689453125 270.04443359375 L 303.8731689453125 276.7931518554688 C 303.8731689453125 276.8852844238281 303.9375305175781 276.9496459960938 304.0296630859375 276.9496459960938 C 304.121826171875 276.9496459960938 304.1861877441406 276.8852844238281 304.1861877441406 276.7931518554688 L 304.1861877441406 270.04443359375 L 304.1861877441406 266.4231872558594 L 306.746826171875 268.9837646484375 L 307.7284851074219 269.9653930664063 C 307.7388305664063 269.9757385253906 307.7703247070313 269.9862060546875 307.8104858398438 269.9862060546875 C 307.83544921875 269.9862060546875 307.89208984375 269.9817199707031 307.9496459960938 269.946533203125 C 307.9671020507813 269.901123046875 307.9656066894531 269.8003540039063 307.902099609375 269.7189025878906 L 304.1489868164063 265.9657592773438 C 304.1376647949219 265.9575805664063 304.1093139648438 265.9381713867188 304.0578308105469 265.9093933105469 C 304.0477294921875 265.9062194824219 304.0382385253906 265.9033203125 304.0296936035156 265.9007873535156 M 303.9683227539063 264.4000244140625 C 303.9683227539063 264.4000244140625 303.9683227539063 264.4000244140625 304.0296630859375 264.4000244140625 C 304.0296630859375 264.4000244140625 304.0296630859375 264.4000244140625 304.0910339355469 264.4000244140625 C 304.2750854492188 264.4000244140625 304.4591674804688 264.4613647460938 304.6431884765625 264.522705078125 C 304.8886108398438 264.6454467773438 305.0726928710938 264.7681274414063 305.1953735351563 264.8908386230469 L 308.9992065429688 268.6946716308594 C 309.6127014160156 269.3695373535156 309.6127014160156 270.4125366210938 308.9992065429688 271.0260314941406 C 308.6617431640625 271.3328247070313 308.2322998046875 271.4862060546875 307.8104858398438 271.4862060546875 C 307.3887023925781 271.4862060546875 306.9745788574219 271.3328247070313 306.6678161621094 271.0260314941406 L 305.6861877441406 270.04443359375 L 305.6861877441406 276.7931518554688 C 305.6861877441406 277.7134399414063 304.9499816894531 278.4496459960938 304.0296630859375 278.4496459960938 C 303.109375 278.4496459960938 302.3731689453125 277.7134399414063 302.3731689453125 276.7931518554688 L 302.3731689453125 270.04443359375 L 301.3915405273438 271.0260314941406 C 301.0541076660156 271.3328247070313 300.6246337890625 271.4862060546875 300.2028503417969 271.4862060546875 C 299.7810668945313 271.4862060546875 299.366943359375 271.3328247070313 299.0601806640625 271.0260314941406 C 298.4466552734375 270.3511962890625 298.4466552734375 269.3081970214844 299.0601806640625 268.6946716308594 L 302.8639831542969 264.8908386230469 C 303.0480651855469 264.706787109375 303.2321166992188 264.5840759277344 303.4161987304688 264.522705078125 C 303.6002197265625 264.4613647460938 303.7843017578125 264.4000244140625 303.9683227539063 264.4000244140625 Z"/></g></g></svg>