<svg xmlns="http://www.w3.org/2000/svg" width="39.755" height="25.242" viewBox="0 0 39.755 25.242"><defs><style>.a{fill:#fff;}</style></defs><path class="a" d="M34.383,103.357a4.539,4.539,0,1,0-5.207,0,7.864,7.864,0,0,0-2.682,1.573,10.177,10.177,0,0,0-3.681-2.006,5.75,5.75,0,1,0-5.947,0,10.261,10.261,0,0,0-3.642,1.982,7.928,7.928,0,0,0-2.651-1.542,4.539,4.539,0,1,0-5.207,0A7.967,7.967,0,0,0,0,110.893v.519a.034.034,0,0,0,.031.031h9.62a10.58,10.58,0,0,0-.087,1.329v.535a4.183,4.183,0,0,0,4.185,4.185H25.942a4.183,4.183,0,0,0,4.185-4.185v-.535a10.58,10.58,0,0,0-.087-1.329h9.683a.034.034,0,0,0,.031-.031v-.519A8,8,0,0,0,34.383,103.357ZM28.5,99.636a3.28,3.28,0,1,1,3.343,3.28h-.126A3.275,3.275,0,0,1,28.5,99.636ZM15.331,98a4.492,4.492,0,1,1,4.751,4.484h-.519A4.5,4.5,0,0,1,15.331,98ZM4.665,99.636a3.28,3.28,0,1,1,3.343,3.28H7.882A3.281,3.281,0,0,1,4.665,99.636Zm5.207,10.541h-8.6a6.721,6.721,0,0,1,6.623-6h.094a6.651,6.651,0,0,1,4.287,1.6A10.328,10.328,0,0,0,9.872,110.177Zm18.981,3.131a2.931,2.931,0,0,1-2.926,2.926H13.734a2.931,2.931,0,0,1-2.926-2.926v-.535a9.036,9.036,0,0,1,8.755-9.022c.087.008.181.008.267.008s.181,0,.267-.008a9.036,9.036,0,0,1,8.755,9.022Zm.936-3.131a10.3,10.3,0,0,0-2.383-4.374,6.683,6.683,0,0,1,4.326-1.628h.094a6.721,6.721,0,0,1,6.623,6Z" transform="translate(0 -92.25)"/></svg>