<svg xmlns="http://www.w3.org/2000/svg" width="103" height="73" viewBox="0 0 103 73">
  <path id="Icon_awesome-users" data-name="Icon awesome-users" d="M15,32.25a10,10,0,1,0-10-10A10.009,10.009,0,0,0,15,32.25Zm70,0a10,10,0,1,0-10-10A10.009,10.009,0,0,0,85,32.25Zm5,5H80a9.971,9.971,0,0,0-7.047,2.906A22.855,22.855,0,0,1,84.688,57.25H95a5,5,0,0,0,5-5v-5A10.009,10.009,0,0,0,90,37.25Zm-40,0a17.5,17.5,0,1,0-17.5-17.5A17.491,17.491,0,0,0,50,37.25Zm12,5H60.7a24.161,24.161,0,0,1-21.406,0H38a18,18,0,0,0-18,18v4.5a7.5,7.5,0,0,0,7.5,7.5h45a7.5,7.5,0,0,0,7.5-7.5v-4.5A18,18,0,0,0,62,42.25ZM27.047,40.156A9.971,9.971,0,0,0,20,37.25H10a10.009,10.009,0,0,0-10,10v5a5,5,0,0,0,5,5H15.3A22.913,22.913,0,0,1,27.047,40.156Z" transform="translate(1.5 -0.75)" fill="none" stroke="rgba(255,255,255,0.9)" stroke-width="3"/>
</svg>
