<svg xmlns="http://www.w3.org/2000/svg" width="41.569" height="26.613" viewBox="0 0 41.569 26.613"><defs><style>.a{fill:#fff;stroke:#fff;stroke-width:0.6px;}</style></defs><path class="a" d="M35.432,103.7a4.677,4.677,0,1,0-5.366,0,8.1,8.1,0,0,0-2.764,1.621,10.487,10.487,0,0,0-3.794-2.067,5.926,5.926,0,1,0-6.128,0,10.574,10.574,0,0,0-3.753,2.043,8.17,8.17,0,0,0-2.732-1.589,4.677,4.677,0,1,0-5.366,0A8.21,8.21,0,0,0,0,111.462V112a.035.035,0,0,0,.032.032H9.946a10.9,10.9,0,0,0-.089,1.37v.551a4.311,4.311,0,0,0,4.313,4.312H26.734a4.311,4.311,0,0,0,4.313-4.312V113.4a10.9,10.9,0,0,0-.089-1.37h9.979a.035.035,0,0,0,.032-.032v-.535A8.242,8.242,0,0,0,35.432,103.7Zm-6.063-3.834a3.38,3.38,0,1,1,3.445,3.38h-.13A3.375,3.375,0,0,1,29.369,99.862ZM15.8,98.176a4.629,4.629,0,1,1,4.9,4.621H20.16A4.635,4.635,0,0,1,15.8,98.176ZM4.807,99.862a3.38,3.38,0,1,1,3.445,3.38h-.13A3.381,3.381,0,0,1,4.807,99.862Zm5.366,10.862H1.313a6.926,6.926,0,0,1,6.825-6.185h.1a6.854,6.854,0,0,1,4.418,1.646A10.643,10.643,0,0,0,10.173,110.724Zm19.56,3.226a3.02,3.02,0,0,1-3.016,3.016H14.153a3.02,3.02,0,0,1-3.016-3.016V113.4a9.312,9.312,0,0,1,9.022-9.3c.089.008.186.008.276.008s.186,0,.276-.008a9.312,9.312,0,0,1,9.022,9.3Zm.965-3.226a10.615,10.615,0,0,0-2.456-4.507,6.887,6.887,0,0,1,4.458-1.678h.1a6.926,6.926,0,0,1,6.825,6.185Z" transform="translate(0.3 -91.95)"/></svg>