<svg xmlns="http://www.w3.org/2000/svg" width="20" height="20" viewBox="0 0 20 20"><defs><style>.a{fill:none;}.b{fill:#00A6E6;}</style></defs><g transform="translate(0.037)"><rect class="a" width="20" height="20" transform="translate(-0.037)"/><g transform="translate(2 2)"><g transform="translate(0 0)"><path class="b" d="M15.276,8.067V5.818a1.451,1.451,0,0,0-1.339-1.443L11.849.728A1.439,1.439,0,0,0,9.874.2L2.715,4.364H1.458A1.456,1.456,0,0,0,0,5.818v8.727A1.456,1.456,0,0,0,1.458,16H13.821a1.456,1.456,0,0,0,1.455-1.455V12.3A1.089,1.089,0,0,0,16,11.273V9.091A1.089,1.089,0,0,0,15.276,8.067Zm-2.184-3.7H9.922L12.3,2.98ZM11.938,2.349,8.477,4.364H7.041l4.538-2.642ZM10.24.825a.7.7,0,0,1,.54-.073.713.713,0,0,1,.437.338h0L5.6,4.364H4.16Zm4.308,13.721a.728.728,0,0,1-.727.727H1.458a.728.728,0,0,1-.727-.727V5.818a.728.728,0,0,1,.727-.727H13.821a.728.728,0,0,1,.727.727V8H12.367a2.182,2.182,0,1,0,0,4.364h2.182v2.182Zm.727-3.273a.364.364,0,0,1-.364.364H12.367a1.455,1.455,0,0,1,0-2.909h2.545a.364.364,0,0,1,.364.364Z" transform="translate(-0.04 0)"/><path class="b" d="M342.056,277.341a.719.719,0,1,0,.719.719A.72.72,0,0,0,342.056,277.341Z" transform="translate(-329.415 -267.875)"/></g></g></g></svg>