<svg id="arrow-down-short" xmlns="http://www.w3.org/2000/svg" width="12" height="11.999" viewBox="0 0 12 11.999">
  <path id="Path_108" data-name="Path 108" d="M.252.237a.895.895,0,0,1,1.213,0L6,4.509,10.535.237a.9.9,0,0,1,1.213,0,.775.775,0,0,1,0,1.143L6.607,6.222a.895.895,0,0,1-1.213,0L.252,1.38A.784.784,0,0,1,0,.808.784.784,0,0,1,.252.237Z" transform="translate(0 5.54)" fill="#fff" fill-rule="evenodd"/>
  <path id="Path_109" data-name="Path 109" d="M.807,0a.838.838,0,0,1,.807.865V9.518a.838.838,0,0,1-.807.865A.838.838,0,0,1,0,9.518V.865A.838.838,0,0,1,.807,0Z" transform="translate(5.193)" fill="#fff" fill-rule="evenodd"/>
</svg>
