<svg xmlns="http://www.w3.org/2000/svg" width="20.498" height="33.046" viewBox="0 0 20.498 33.046">
  <g id="Group_23" data-name="Group 23" transform="translate(0 0)">
    <g id="Group_22" data-name="Group 22">
      <path id="Path_54" data-name="Path 54" d="M1984.283,5110.529q0-5.2,0-10.4c0-1.313.519-1.853,1.816-1.855,4.074-.006,8.148,0,12.222,0a.979.979,0,0,1,.774.314c1.711,1.732,3.428,3.459,5.165,5.165a1.61,1.61,0,0,1,.521,1.269c-.019,5.27-.01,10.541-.011,15.811,0,1.421-.471,1.9-1.874,1.9q-8.316,0-16.631,0c-1.52,0-1.979-.468-1.98-2Q1984.281,5115.63,1984.283,5110.529Zm14.047-11.585c-.3-.014-.523-.036-.751-.036q-5.669,0-11.339,0c-1.064,0-1.308.234-1.309,1.285q-.009,4.788-.007,9.575,0,5.576.005,11.152c0,.871.266,1.188,1.02,1.189q8.6.015,17.2.005a.875.875,0,0,0,1.005-1.007c.005-5.27,0-10.541.011-15.812,0-.457-.172-.568-.6-.561-1.2.022-2.394.016-3.591,0-1.141-.012-1.638-.522-1.644-1.674C1998.324,5101.717,1998.329,5100.374,1998.329,5098.944Z" transform="translate(-1984.282 -5098.275)" fill="#00a5e5"/>
      <path id="Path_55" data-name="Path 55" d="M2017.324,5157.488c-.033-1.1-.127-2.153.829-2.922.64-.516.831-.49,1.27.174a.785.785,0,1,0,1.411-.183c.224-.423.481-.442.858-.228a2.279,2.279,0,0,1,1.2,1.81,12.349,12.349,0,0,1,.008,1.349Z" transform="translate(-2013.143 -5147.146)" fill="#00a5e5"/>
      <path id="Path_56" data-name="Path 56" d="M2021.369,5205.338q-2.8,0-5.6,0c-.3,0-.7.088-.685-.407.012-.434.371-.378.66-.378q5.7,0,11.394,0c.306,0,.709-.056.69.415s-.433.365-.728.369c-1.07.01-2.14,0-3.21,0Z" transform="translate(-2011.199 -5191.153)" fill="#00a5e5"/>
      <path id="Path_57" data-name="Path 57" d="M2021.418,5230.446q-2.676,0-5.353,0c-.209,0-.42,0-.629-.018a.369.369,0,0,1-.363-.425c0-.241.174-.322.372-.349a3.008,3.008,0,0,1,.44-.015c3.674,0,7.347-.007,11.021.008.331,0,.889-.191.906.37.019.63-.567.417-.915.419C2025.071,5230.456,2023.244,5230.445,2021.418,5230.446Z" transform="translate(-2011.192 -5213.063)" fill="#00a5e5"/>
      <path id="Path_58" data-name="Path 58" d="M2021.3,5255.849q-2.77,0-5.543,0a2.77,2.77,0,0,1-.562-.043.343.343,0,0,1-.269-.376.333.333,0,0,1,.29-.355,2.688,2.688,0,0,1,.439-.019l11.149,0c.168,0,.337,0,.5.014.234.021.406.132.4.394s-.187.361-.42.373-.462.013-.693.013H2021.3Z" transform="translate(-2011.062 -5235.293)" fill="#00a5e5"/>
      <path id="Path_59" data-name="Path 59" d="M2029.489,5126.056a1.612,1.612,0,0,1-1.743,1.64,1.678,1.678,0,0,1-1.6-1.743,1.705,1.705,0,0,1,1.738-1.623A1.64,1.64,0,0,1,2029.489,5126.056Z" transform="translate(-2020.865 -5121.045)" fill="#00a5e5"/>
      <path id="Path_60" data-name="Path 60" d="M2073.372,5173.463c-.752,0-1.505-.008-2.258,0-.309.006-.573-.066-.591-.4-.019-.378.3-.407.577-.409q2.32-.012,4.64-.006c.256,0,.536.022.554.364.019.364-.235.448-.54.448h-2.383Z" transform="translate(-2059.653 -5163.274)" fill="#00a5e5"/>
    </g>
    <g id="pdf" transform="translate(4.542 27.254)">
      <path id="Path_61" data-name="Path 61" d="M28.06,10.952v-.827H24.75v5.792h.827V13.435h2.069v-.827H25.577V10.952Z" transform="translate(-16.475 -10.125)" fill="#00a5e5"/>
      <path id="Path_62" data-name="Path 62" d="M4.732,10.125H2.25v5.792h.827V13.849H4.732a.827.827,0,0,0,.827-.827V10.952A.827.827,0,0,0,4.732,10.125Zm0,2.9H3.077V10.952H4.732Z" transform="translate(-2.25 -10.125)" fill="#00a5e5"/>
      <path id="Path_63" data-name="Path 63" d="M15.155,15.917H13.5V10.125h1.655A1.655,1.655,0,0,1,16.81,11.78v2.482A1.655,1.655,0,0,1,15.155,15.917Zm-.827-.827h.827a.827.827,0,0,0,.827-.827V11.78a.827.827,0,0,0-.827-.827h-.827Z" transform="translate(-9.363 -10.125)" fill="#00a5e5"/>
    </g>
  </g>
</svg>
