<svg xmlns="http://www.w3.org/2000/svg" xmlns:xlink="http://www.w3.org/1999/xlink" width="173" height="60" viewBox="0 0 173 60"><defs><style>.a{fill:url(#a);}.b,.c{fill-rule:evenodd;}.c{fill:#0095da;}</style><linearGradient id="a" x1="0.5" x2="0.5" y2="1" gradientUnits="objectBoundingBox"><stop offset="0" stop-color="#007cb8"/><stop offset="1" stop-color="#11b3f2"/></linearGradient></defs><g transform="translate(-1045 -85)"><g transform="translate(1113.12 97.135)"><path class="a" d="M392.674,169.976h-9.023c-.043-.634-.083-1.213-.135-1.985-1.852,1.281-3.666,2.418-5.971,2.423-5.68.012-9.59-2.831-11.005-8.322-1.153-4.475-.825-8.832,2.116-12.594a10.108,10.108,0,0,1,14.223-1.666,5.783,5.783,0,0,0,.624.336v-10.7h9.171Zm-9.1-11.748c0-2.795-.986-4.489-2.986-5.118a4.087,4.087,0,0,0-5.148,2.9c-.949,3,.292,6.409,2.624,7.205C381.105,164.259,383.567,162.029,383.57,158.228Z" transform="translate(-302.383 -134.586)"/><path class="a" d="M294.594,169.235H278.678c.814,3.655,5.086,4.7,9.695,1.088l4.387,4.83a12.311,12.311,0,0,1-8.009,3.961c-4.613.55-8.989-.045-12.4-3.621-3.37-3.53-4.083-9.6-1.8-14.422,2.037-4.3,6.987-6.966,12.181-6.561,4.555.356,8.362,2,10.421,6.378A19.152,19.152,0,0,1,294.594,169.235Zm-16.281-4.58c2.167,0,4.187.007,6.208-.006a8.208,8.208,0,0,0,1.035-.134c-.317-2.472-1.248-3.535-3.179-3.691C280.368,160.662,279.129,161.758,278.313,164.655Z" transform="translate(-251.985 -143.446)"/><path class="a" d="M236.414,169.258V152.515h-3.2V146.59l3.019-.148a2.684,2.684,0,0,0,.213-1.627c.04-4.622,2.208-7.436,6.753-8.308a15.6,15.6,0,0,1,10.285,1.46l-3.03,6.17c-1.446-.489-2.859-1.445-4.342-.269-.835.663-.754,1.536-.537,2.632h4.665v5.942h-4.724v16.815Z" transform="translate(-233.218 -133.926)"/><path class="a" d="M338.422,178.845h-8.936V155.008h8.867v3.446c2.169-2.582,4.475-3.855,7.488-3.96v8.023c-.1.054-.2.154-.3.152-5.514-.084-7.11,1.459-7.117,6.9C338.419,172.609,338.422,175.652,338.422,178.845Z" transform="translate(-283.393 -143.459)"/><path class="a" d="M433.021,155.46h8.789V179.3h-8.789Z" transform="translate(-337.355 -143.962)"/><path class="a" d="M437.38,140.762a4.658,4.658,0,1,1,4.715-4.516A4.458,4.458,0,0,1,437.38,140.762Z" transform="translate(-337.217 -131.447)"/></g><g transform="translate(1045 85)"><path class="b" d="M151.173,231.7c.358,2.471,2.865,1.072,3.677,2.61,3.243,1.057,3.983-2.04,1.8-2.092a10.891,10.891,0,0,1-3.081-.073C152.543,231.856,152.135,231.3,151.173,231.7Z" transform="translate(-125.063 -174.527)"/><path class="b" d="M143.578,135.331a13.283,13.283,0,0,1-1.138,1.836l-1.573,1.412c-.4.324-.175.218-.432.5l-2.993,2.876c-.136.227-.207.427-.345.689-.721,1.383-.4,3.734.126,5.084a6.524,6.524,0,0,1,.047,3.6c-.6,1.449-1.711,1.043-3.315,2.553-1.533,1.444-.35,1.033-.171,2a4.927,4.927,0,0,1,.074.531c.08,1.086,1.238.968,1.146-.026a11.673,11.673,0,0,0-.293-1.594,5.161,5.161,0,0,1,1.376-1.007c.609-.364,1.064-.414,1.486-.843a4.509,4.509,0,0,0,1.1-3.578,3.725,3.725,0,0,0-.389-2.045,7.246,7.246,0,0,1-.4-1.937c-.4-2.754,1.631-4.11,3.6-5.7.365-.294.794-.8,1.2-1.129s.172-.034.462-.467L145.115,135a15.446,15.446,0,0,0,.841-2.618c.041-.227.127-.877.13-1.089.009-.419-.163-.512-.273-.733-1.875-.231-3.263,1.024-5.105,1.024a1.763,1.763,0,0,1-.48-.734c-.28-.624-.034-.228-.5-.614l-1.626-1.352c-.585-.419-.5-.411-.723-.96-.363-.874-.047-.864-.9-1.335a1.923,1.923,0,0,1-.883-1.446,3.45,3.45,0,0,0-1.188-2.27,4.976,4.976,0,0,0-.513-.6c-.389-.363-.223-.294-.476-.644-1.072-1.478-.307-.7-.348-2.577a3.983,3.983,0,0,0-.148-.945c-.18-.813.044-.978-2.248-1.192-1.828-.171-1.284.536-4.063.063a3.587,3.587,0,0,1-.863-.244c-.16-.068-1.835-1.629-3,.219a5.236,5.236,0,0,0-.325.782c-1-.022-2.431-1.2-3.126-1.422-1.579-.5-1.446.279-1.03-1.163.688-2.382-.575-1.986-1.6-1.986-1.6,0-3.456-.082-5.014.009-1.034.226-1.875,1.158-3.185.575-2-.889-1.868.187-2.554.74-1.726,1.391-2.033,1.127-2.68,3.2-.441,1.41-2.009.808-2.667,1.89a5.708,5.708,0,0,1-.87,1.276c-.9,1.063-.813.035-1.534,1.633-.539,1.192-.987,1.5-.644,2.954a4.14,4.14,0,0,1-.612,3.073c-.759,1.266.294,3.182,1.082,4.309l1.034,1.487a11.318,11.318,0,0,0,1.576,1.776c.183.186.311.349.5.523l1.136.82a2.689,2.689,0,0,0,2.207.54,5.735,5.735,0,0,1,1.732-.192c.642,0,1.316.019,1.954.005,1.008-.026,1.09-.927,2.876-1.051.794-.054.925.234,1.226.731.609,1.008,2.131.192,3.172.731.249.966-.678,2-.4,3.394a5.6,5.6,0,0,0,1.567,2.257,6.6,6.6,0,0,1,1.338,2.491c1.073,2.512.639,2.3-.306,4.058a3.209,3.209,0,0,0-.512,1.369,3.592,3.592,0,0,0,.339,2.446l.284.459c.01.018.022.042.031.062s.019.046.029.066a1.21,1.21,0,0,0,.087.194l.244.312a4.462,4.462,0,0,1,.813,1.724h1.164a8.382,8.382,0,0,0-1.348-3.012c-.184-.248-.09,0-.293-.359a3.164,3.164,0,0,1-.184-.47c-.463-1.351.494-2.192,1.175-3.561s-.024-2.677-.468-3.977l-.831-1.693c-.4-.8-.949-.887-1.405-1.666-.251-.429-.607-.723-.593-1.332.018-.763.387-1.348.451-2.07.263-2.932-2.715-1.512-3.373-2.132a4.013,4.013,0,0,0-1.152-1.081c-.242-.144-.084.018-.3-.189a6.953,6.953,0,0,0-2.508.513c-1.795.775-.28.685-3.821.67a3.585,3.585,0,0,0-1.251.207c-.77.158-1.975-.743-2.374-1.252-.706-.9-.887-.631-1.149-1.086l-.164-.306c-.011-.014-.03-.035-.043-.05l-2.214-3.2a4.578,4.578,0,0,1-.393-1.109c-.26-.92.681-1.1.93-3.424.152-1.418-.776-1.336.5-3.588.723-1.279.552.046,2.127-2.346.9-1.376,2.272-.057,3.068-2.895.372-1.324.447-.685,2.184-2.29a4.171,4.171,0,0,1,.822-.75c.426-.035,1.185,1.073,3.23.245a5.285,5.285,0,0,1,.971-.415,53.45,53.45,0,0,1,5.54-.022,3.325,3.325,0,0,1-.281,1.011c-.313.479-.493.143-.442.975.572.456.563.735,1.444.934,2.263.511,1.125.313,3.447,1.389.477.221,1.613.428,2.048.07.265-.267-.014-1.956,1.105-1.38a8.186,8.186,0,0,0,.786.429,7.9,7.9,0,0,0,4.308.273,9.191,9.191,0,0,1,2.155.141,3.237,3.237,0,0,1,.111,1.487,1.829,1.829,0,0,0-.065,1.555,7.066,7.066,0,0,0,1.108,1.688c.012.013.031.035.043.05l.14.141c.148.15.073.034.215.252.44.677.23.279.588.713.018.022.064.085.081.107l.085.1c.012.015.031.035.043.05a3.126,3.126,0,0,1,.416,1.456c.253,1.331,1.1,1.243,1.52,2.119.094.194.49,1.009.6,1.169l1.386,1.315c.188.119.383.178.605.327.338.226.464.572.759,1.105s.224.767.926.856a4.485,4.485,0,0,0,1.727-.125c.858-.254,1.953-.584,2.781-.873A9.09,9.09,0,0,1,143.578,135.331Z" transform="translate(-96.64 -113.131)"/><path class="b" d="M143.176,203.028a.585.585,0,0,1,1.168-.083c.169,2.374,2.2,3.411,4.694,3.8a31.675,31.675,0,0,0,8.118-.177,2.444,2.444,0,0,0,1.444-.722.515.515,0,0,0,.118-.289.382.382,0,0,0-.083-.234,1.425,1.425,0,0,0-.9-.451,18.834,18.834,0,0,0-5.08.01,16.877,16.877,0,0,0-4.736,1.127.584.584,0,1,1-.494-1.058,17.991,17.991,0,0,1,5.1-1.231,19.994,19.994,0,0,1,5.428,0,2.561,2.561,0,0,1,1.631.909,1.527,1.527,0,0,1,.307.958,1.667,1.667,0,0,1-.357.962,3.54,3.54,0,0,1-2.131,1.161.612.612,0,0,1-.089.018,32.655,32.655,0,0,1-8.448.169C145.846,207.43,143.395,206.112,143.176,203.028Z" transform="translate(-120.894 -159.399)"/><path class="b" d="M145.887,212.66a.585.585,0,1,1,.376,1.107,1.6,1.6,0,0,0-.612.331.307.307,0,0,0-.1.232.791.791,0,0,0,.161.384h0a2.333,2.333,0,0,0,.738.649,12.2,12.2,0,0,0,5.388,1.075,49.064,49.064,0,0,0,5.937-.3,2.627,2.627,0,0,0,1.5-.614.246.246,0,0,0,.07-.122.14.14,0,0,0-.037-.068l-.019-.024a1.621,1.621,0,0,0-.91-.359,22.98,22.98,0,0,0-5.11.006,20.12,20.12,0,0,0-4.764.933.583.583,0,0,1-.417-1.09,21.147,21.147,0,0,1,5.071-1.006,24.145,24.145,0,0,1,5.4,0,2.687,2.687,0,0,1,1.616.75c.014.015.028.029.041.045a1.252,1.252,0,0,1,.3.852,1.362,1.362,0,0,1-.348.84,3.71,3.71,0,0,1-2.2,1.009h0a.372.372,0,0,1-.041.006,50.251,50.251,0,0,1-6.113.305,13.285,13.285,0,0,1-5.938-1.226,3.535,3.535,0,0,1-1.122-1h0a1.935,1.935,0,0,1-.372-1,1.437,1.437,0,0,1,.444-1.111A2.693,2.693,0,0,1,145.887,212.66Z" transform="translate(-121.521 -164.662)"/><path class="b" d="M145.887,221.14a.585.585,0,1,1,.376,1.107,1.6,1.6,0,0,0-.612.331.307.307,0,0,0-.1.232.791.791,0,0,0,.161.384h0a2.344,2.344,0,0,0,.738.651,12.214,12.214,0,0,0,5.388,1.074,49.379,49.379,0,0,0,5.937-.3,2.636,2.636,0,0,0,1.5-.615.252.252,0,0,0,.07-.121.143.143,0,0,0-.037-.069l-.019-.024a1.624,1.624,0,0,0-.91-.359,22.985,22.985,0,0,0-5.11.006,20.1,20.1,0,0,0-4.764.933.583.583,0,0,1-.417-1.09,21.145,21.145,0,0,1,5.071-1.006,24.145,24.145,0,0,1,5.4,0,2.685,2.685,0,0,1,1.616.751c.014.014.028.029.041.045a1.254,1.254,0,0,1,.3.852,1.362,1.362,0,0,1-.348.84,3.71,3.71,0,0,1-2.2,1.009h0a.371.371,0,0,1-.041.006,50.252,50.252,0,0,1-6.113.3,13.245,13.245,0,0,1-5.938-1.226,3.523,3.523,0,0,1-1.122-1h0a1.929,1.929,0,0,1-.372-1,1.435,1.435,0,0,1,.444-1.11A2.688,2.688,0,0,1,145.887,221.14Z" transform="translate(-121.521 -169.082)"/><path class="c" d="M133.22,140.3l-.068-.269-.005-.013a3.674,3.674,0,0,0-.289-.976h0c-.038-.009-.048.248-.268.746a.7.7,0,0,0-.059.37.076.076,0,0,0,.019.035h0a.258.258,0,0,0,.1.056A1.387,1.387,0,0,0,133.22,140.3Zm8.864.522a.576.576,0,1,1,.393-1.083,2.286,2.286,0,0,0,2.717-.4,6.569,6.569,0,0,0,1.218-2.995l.5-2.408c.327-1.584.2-2.5-.122-2.9a.412.412,0,0,0-.254-.164.614.614,0,0,0-.363.079,2.288,2.288,0,0,0-1.019,1.74l-.241,1.632a4.775,4.775,0,0,0-.043,1.567,1.227,1.227,0,0,0,.721.923.577.577,0,0,1-.483,1.047,2.315,2.315,0,0,1-1.366-1.74,5.677,5.677,0,0,1,.03-1.964l.241-1.632a3.445,3.445,0,0,1,1.641-2.6,1.741,1.741,0,0,1,1.063-.186,1.53,1.53,0,0,1,.971.582c.512.64.757,1.879.353,3.845l-.5,2.408a7.6,7.6,0,0,1-1.495,3.536C145.175,141.071,143.927,141.493,142.084,140.82Zm-5.128,0a.576.576,0,1,1,.393-1.083,2.286,2.286,0,0,0,2.717-.4,6.575,6.575,0,0,0,1.219-2.995l.5-2.408c.327-1.584.2-2.5-.122-2.9a.416.416,0,0,0-.254-.164.611.611,0,0,0-.363.079,2.29,2.29,0,0,0-1.02,1.74l-.241,1.632a4.763,4.763,0,0,0-.044,1.567,1.228,1.228,0,0,0,.721.923.577.577,0,0,1-.484,1.047,2.319,2.319,0,0,1-1.366-1.74,5.737,5.737,0,0,1,.03-1.964l.242-1.632a3.441,3.441,0,0,1,1.641-2.6,1.738,1.738,0,0,1,1.063-.186,1.536,1.536,0,0,1,.971.582c.512.64.757,1.879.352,3.845l-.5,2.408a7.594,7.594,0,0,1-1.494,3.536C140.047,141.071,138.8,141.493,136.956,140.82ZM135.818,140a.575.575,0,1,1-.88-.74,4.381,4.381,0,0,0,.7-1.274,11.119,11.119,0,0,0,.456-1.648l.5-2.408c.327-1.584.2-2.5-.123-2.9a.41.41,0,0,0-.253-.164.609.609,0,0,0-.362.079,2.286,2.286,0,0,0-1.02,1.74l-.241,1.632a4.762,4.762,0,0,0-.044,1.567,1.225,1.225,0,0,0,.721.923.577.577,0,0,1-.483,1.047,2.319,2.319,0,0,1-1.367-1.74,5.737,5.737,0,0,1,.03-1.964l.241-1.632a3.446,3.446,0,0,1,1.643-2.6,1.738,1.738,0,0,1,1.063-.186,1.537,1.537,0,0,1,.972.582c.512.64.757,1.879.351,3.845l-.5,2.408a12.317,12.317,0,0,1-.506,1.823A5.488,5.488,0,0,1,135.818,140Zm12.671.025-.07.269a1.392,1.392,0,0,0,.572-.052.258.258,0,0,0,.1-.056h0a.076.076,0,0,0,.019-.035.7.7,0,0,0-.06-.37c-.219-.5-.229-.756-.267-.746h0a3.677,3.677,0,0,0-.288.976Zm-2.18,23.422c-.576-4.447-1.139-19.82,1.062-23.7h0c.247-1.056.611-1.691,1.112-1.829h0c.585-.158,1.13.281,1.633,1.412l.013.034a1.8,1.8,0,0,1,.1,1.069,1.211,1.211,0,0,1-.321.566h0a1.418,1.418,0,0,1-.518.322,2.7,2.7,0,0,1-1.25.093c-1.914,3.695-1.184,18.345-.679,22.029Zm-7.1-.1c1.74-4.616-2.426-19.51-5.713-21.925a2.7,2.7,0,0,1-1.248-.093,1.421,1.421,0,0,1-.519-.322h0a1.211,1.211,0,0,1-.321-.566,1.788,1.788,0,0,1,.1-1.069l.013-.034c.5-1.131,1.049-1.57,1.633-1.412h0c.5.138.866.773,1.113,1.829h0c2.834,2.661,7.681,17.879,6.1,23.593Z" transform="translate(-114.742 -121.776)"/></g></g></svg>