<?xml version="1.0" encoding="utf-8"?>
<!-- Generator: Adobe Illustrator 16.0.0, SVG Export Plug-In . SVG Version: 6.00 Build 0)  -->
<!DOCTYPE svg PUBLIC "-//W3C//DTD SVG 1.1//EN" "http://www.w3.org/Graphics/SVG/1.1/DTD/svg11.dtd">
<svg version="1.1" id="ferdi-logo-black" xmlns="http://www.w3.org/2000/svg" xmlns:xlink="http://www.w3.org/1999/xlink" x="0px"
	 y="0px" width="32.876px" height="40.005px" viewBox="0.005 -0.006 32.876 40.005"
	 enable-background="new 0.005 -0.006 32.876 40.005" xml:space="preserve">
<g id="icon">
	<path id="Path_7" fill="#FFFFFF" d="M17.357,38.119c0.238,1.642,1.9,0.712,2.444,1.734c2.156,0.7,2.648-1.355,1.2-1.391
		c-0.682,0.081-1.371,0.064-2.048-0.048C18.268,38.225,17.996,37.852,17.357,38.119z"/>
	<path id="Path_8" fill="#FFFFFF" d="M31.201,14.815c-0.219,0.428-0.471,0.838-0.756,1.225l-1.046,0.942
		c-0.264,0.216-0.116,0.145-0.287,0.332l-1.989,1.919c-0.091,0.152-0.138,0.285-0.229,0.46c-0.388,1.104-0.358,2.311,0.084,3.393
		c0.234,0.781,0.245,1.613,0.031,2.4c-0.4,0.967-1.138,0.699-2.2,1.699c-1.019,0.965-0.233,0.69-0.114,1.336
		c0.023,0.117,0.039,0.234,0.049,0.354c0.053,0.725,0.823,0.646,0.762-0.018c-0.04-0.357-0.104-0.714-0.194-1.063
		c0.266-0.272,0.575-0.5,0.915-0.672c0.4-0.243,0.708-0.276,0.988-0.562c0.577-0.653,0.844-1.524,0.731-2.389
		c0.045-0.471-0.045-0.943-0.259-1.365c-0.146-0.416-0.235-0.852-0.264-1.293c-0.264-1.838,1.084-2.743,2.4-3.807
		c0.243-0.2,0.528-0.533,0.8-0.754c0.272-0.221,0.115-0.023,0.307-0.312l1.306-2.049c0.238-0.564,0.425-1.149,0.559-1.747
		c0.027-0.152,0.084-0.585,0.087-0.727c0.006-0.28-0.108-0.342-0.182-0.489c-1.246-0.154-2.169,0.683-3.394,0.683
		c-0.146-0.134-0.256-0.302-0.319-0.49c-0.186-0.416-0.022-0.152-0.334-0.41l-1.081-0.9c-0.389-0.28-0.329-0.274-0.481-0.641
		c-0.241-0.583-0.031-0.577-0.6-0.891c-0.334-0.213-0.551-0.57-0.587-0.965c-0.059-0.588-0.342-1.13-0.79-1.515
		c-0.103-0.142-0.217-0.276-0.341-0.4c-0.259-0.242-0.148-0.2-0.317-0.429c-0.712-0.986-0.2-0.469-0.231-1.72
		c-0.008-0.214-0.042-0.426-0.1-0.631c-0.119-0.543,0.029-0.653-1.494-0.8c-1.215-0.114-0.853,0.358-2.7,0.042
		c-0.198-0.03-0.391-0.084-0.574-0.163c-0.106-0.045-1.22-1.087-2,0.146c-0.086,0.168-0.158,0.343-0.216,0.522
		c-0.668-0.014-1.616-0.8-2.078-0.949c-1.05-0.332-0.961,0.186-0.685-0.776c0.457-1.59-0.382-1.325-1.063-1.325
		c-1.064,0-2.3-0.055-3.333,0.006C9.295,0.174,8.736,0.796,7.865,0.407c-1.33-0.593-1.242,0.125-1.7,0.494
		C5.018,1.829,4.814,1.653,4.383,3.035C4.09,3.976,3.048,3.574,2.61,4.297C2.457,4.606,2.262,4.893,2.032,5.149
		c-0.6,0.71-0.541,0.023-1.02,1.09c-0.358,0.8-0.656,1-0.428,1.971c0.137,0.711-0.009,1.447-0.407,2.051
		c-0.5,0.845,0.2,2.124,0.719,2.876l0.687,0.992c0.307,0.431,0.658,0.828,1.048,1.185c0.122,0.124,0.207,0.233,0.334,0.349
		L3.72,16.21c0.411,0.332,0.948,0.464,1.467,0.361c0.375-0.102,0.763-0.145,1.151-0.128c0.427,0,0.875,0.013,1.3,0
		c0.67-0.017,0.724-0.618,1.912-0.7c0.528-0.036,0.615,0.156,0.815,0.488c0.4,0.673,1.416,0.128,2.109,0.488
		c0.165,0.645-0.451,1.337-0.267,2.265c0.217,0.581,0.575,1.098,1.042,1.506c0.413,0.483,0.716,1.051,0.889,1.662
		c0.714,1.677,0.425,1.535-0.2,2.707c-0.182,0.275-0.299,0.588-0.341,0.914c-0.12,0.555-0.04,1.132,0.225,1.633l0.189,0.306
		l0.021,0.041c0.006,0.015,0.013,0.031,0.019,0.044c0.015,0.045,0.035,0.089,0.058,0.131l0.162,0.207
		c0.261,0.341,0.445,0.733,0.54,1.151h0.774c-0.164-0.724-0.47-1.406-0.9-2.011c-0.123-0.164-0.06,0-0.195-0.239
		c-0.049-0.102-0.09-0.206-0.122-0.313c-0.308-0.9,0.328-1.464,0.781-2.377c0.453-0.912-0.016-1.787-0.311-2.654l-0.552-1.129
		c-0.263-0.533-0.631-0.592-0.934-1.112c-0.167-0.286-0.4-0.482-0.394-0.889c0.012-0.509,0.257-0.9,0.3-1.382
		c0.175-1.957-1.8-1.009-2.242-1.423c-0.205-0.289-0.465-0.534-0.765-0.721c-0.161-0.1-0.056,0.012-0.2-0.126
		c-0.572,0.01-1.138,0.126-1.667,0.343c-1.193,0.517-0.186,0.457-2.54,0.447c-0.284-0.004-0.565,0.042-0.832,0.138
		c-0.512,0.105-1.313-0.5-1.578-0.835c-0.469-0.6-0.59-0.421-0.764-0.725l-0.109-0.2c-0.007-0.01-0.02-0.023-0.028-0.033
		L1.06,11.911c-0.119-0.234-0.206-0.483-0.261-0.74c-0.173-0.614,0.453-0.731,0.618-2.285c0.1-0.946-0.516-0.891,0.333-2.395
		c0.481-0.853,0.367,0.031,1.414-1.566c0.6-0.918,1.51-0.038,2.04-1.932c0.247-0.883,0.3-0.457,1.452-1.529
		c0.159-0.19,0.343-0.358,0.546-0.5C7.485,0.94,7.99,1.68,9.349,1.128c0.206-0.114,0.422-0.207,0.646-0.277
		c1.227-0.069,2.456-0.073,3.683-0.014c-0.027,0.233-0.09,0.461-0.187,0.674c-0.208,0.32-0.328,0.1-0.294,0.651
		c0.38,0.3,0.374,0.49,0.96,0.623c1.5,0.341,0.748,0.209,2.291,0.927c0.317,0.147,1.072,0.286,1.361,0.047
		c0.176-0.178-0.01-1.305,0.735-0.921c0.169,0.105,0.343,0.2,0.522,0.286c0.919,0.326,1.911,0.389,2.864,0.182
		c0.479-0.025,0.96,0.006,1.432,0.094c0.102,0.321,0.126,0.66,0.074,0.992c-0.167,0.322-0.184,0.703-0.043,1.038
		c0.19,0.409,0.439,0.788,0.737,1.126l0.028,0.033l0.093,0.094c0.1,0.1,0.049,0.023,0.143,0.168
		c0.292,0.452,0.153,0.186,0.391,0.476c0.012,0.014,0.043,0.057,0.054,0.071l0.056,0.067c0.008,0.01,0.021,0.023,0.029,0.033
		c0.17,0.296,0.265,0.63,0.276,0.972c0.168,0.888,0.729,0.83,1.011,1.414c0.062,0.13,0.326,0.673,0.4,0.78l0.921,0.878
		c0.125,0.08,0.255,0.119,0.4,0.218c0.224,0.151,0.308,0.382,0.5,0.738s0.149,0.512,0.615,0.571
		c0.385,0.047,0.774,0.019,1.148-0.084c0.57-0.169,1.3-0.39,1.849-0.582C31.937,13.258,31.649,14.08,31.201,14.815z"/>
	<path id="Path_9" fill="#FFFFFF" d="M14.812,29.094c-0.013-0.215,0.151-0.398,0.365-0.411c0.211-0.013,0.394,0.146,0.411,0.356
		c0.112,1.578,1.46,2.268,3.12,2.525c1.797,0.192,3.612,0.152,5.4-0.119c0.365-0.046,0.704-0.215,0.96-0.479
		c0.045-0.054,0.073-0.121,0.079-0.192c0-0.057-0.02-0.111-0.055-0.155c-0.157-0.17-0.37-0.276-0.6-0.3
		c-1.121-0.15-2.257-0.148-3.377,0.006c-1.08,0.096-2.14,0.348-3.148,0.749c-0.185,0.107-0.423,0.044-0.53-0.142
		s-0.044-0.422,0.141-0.529c0.02-0.012,0.04-0.021,0.062-0.029c1.083-0.438,2.225-0.713,3.389-0.819
		c1.197-0.163,2.411-0.163,3.608,0c0.424,0.057,0.811,0.271,1.084,0.601c0.136,0.184,0.207,0.408,0.2,0.637
		c-0.01,0.232-0.093,0.456-0.237,0.639c-0.367,0.416-0.869,0.689-1.417,0.771c-0.02,0.006-0.039,0.01-0.059,0.012
		c-1.859,0.28-3.747,0.318-5.616,0.112C16.587,32.02,14.957,31.145,14.812,29.094z"/>
	<path id="Path_10" fill="#FFFFFF" d="M16.197,32.021c0.201-0.077,0.426,0.022,0.503,0.223s-0.021,0.426-0.222,0.503
		c-0.01,0.005-0.021,0.008-0.032,0.011c-0.15,0.043-0.289,0.118-0.407,0.221c-0.044,0.038-0.07,0.095-0.069,0.153
		c0.012,0.094,0.049,0.183,0.107,0.257l0,0c0.131,0.177,0.298,0.324,0.49,0.432c1.124,0.508,2.349,0.752,3.582,0.715
		c1.318,0.014,2.637-0.054,3.947-0.2c0.368-0.026,0.718-0.17,1-0.408c0.023-0.021,0.039-0.05,0.046-0.081
		c-0.004-0.017-0.013-0.032-0.025-0.045l-0.013-0.016c-0.172-0.141-0.383-0.224-0.605-0.239c-1.13-0.126-2.27-0.126-3.4,0
		c-1.077,0.078-2.14,0.286-3.167,0.62c-0.204,0.067-0.423-0.043-0.49-0.246c-0.063-0.191,0.029-0.398,0.213-0.479
		c1.092-0.359,2.224-0.584,3.371-0.668c1.193-0.135,2.396-0.135,3.589,0c0.404,0.039,0.783,0.216,1.074,0.5l0.027,0.029
		c0.135,0.158,0.207,0.359,0.2,0.567c-0.011,0.207-0.092,0.403-0.231,0.558c-0.399,0.381-0.914,0.617-1.463,0.672l0,0h-0.027
		c-1.349,0.148-2.706,0.215-4.063,0.199c-1.361,0.036-2.711-0.242-3.947-0.814c-0.293-0.166-0.548-0.393-0.746-0.664l0,0
		c-0.143-0.193-0.228-0.424-0.247-0.663c-0.012-0.278,0.097-0.548,0.3-0.738C15.694,32.234,15.935,32.1,16.197,32.021z"/>
	<path id="Path_11" fill="#FFFFFF" d="M16.197,34.721c0.201-0.077,0.426,0.021,0.503,0.223c0.078,0.199-0.021,0.426-0.222,0.503
		c-0.01,0.004-0.021,0.008-0.032,0.011c-0.15,0.043-0.289,0.117-0.407,0.22c-0.044,0.039-0.07,0.095-0.069,0.154
		c0.012,0.093,0.049,0.182,0.107,0.256l0,0c0.131,0.178,0.298,0.325,0.49,0.433c1.125,0.508,2.35,0.752,3.582,0.715
		c1.318,0.012,2.637-0.055,3.947-0.2c0.368-0.028,0.718-0.171,1-0.409c0.022-0.021,0.038-0.05,0.046-0.08
		c-0.004-0.018-0.013-0.033-0.025-0.046l-0.013-0.017c-0.172-0.14-0.383-0.223-0.605-0.238c-1.13-0.127-2.27-0.127-3.4,0
		c-1.077,0.078-2.14,0.286-3.167,0.62c-0.204,0.067-0.423-0.044-0.49-0.247c-0.063-0.189,0.029-0.396,0.213-0.477
		c1.092-0.361,2.224-0.586,3.371-0.67c1.193-0.134,2.396-0.134,3.589,0c0.404,0.04,0.783,0.217,1.074,0.5l0.027,0.03
		c0.135,0.157,0.207,0.36,0.2,0.567c-0.011,0.207-0.092,0.403-0.231,0.558c-0.399,0.381-0.914,0.617-1.463,0.671l0,0h-0.027
		c-1.349,0.149-2.706,0.216-4.063,0.2c-1.361,0.037-2.712-0.241-3.947-0.815c-0.293-0.165-0.548-0.391-0.746-0.664l0,0
		c-0.143-0.193-0.229-0.423-0.247-0.662c-0.012-0.278,0.097-0.548,0.3-0.738C15.694,34.934,15.935,34.797,16.197,34.721z"/>
	<path id="Path_12" fill="#0095DA" d="M12.283,12.312l-0.046-0.179v-0.009c-0.033-0.224-0.098-0.443-0.192-0.649l0,0
		c-0.025-0.006-0.032,0.165-0.178,0.5c-0.035,0.077-0.049,0.162-0.039,0.246c0.002,0.009,0.007,0.017,0.013,0.023l0,0
		c0.019,0.017,0.041,0.029,0.065,0.037C12.028,12.317,12.157,12.328,12.283,12.312z M18.175,12.659
		c-0.2-0.068-0.307-0.286-0.239-0.486c0.068-0.2,0.286-0.307,0.486-0.239c0.004,0.002,0.009,0.003,0.014,0.005
		c0.594,0.323,1.33,0.215,1.806-0.265c0.432-0.586,0.71-1.27,0.81-1.991l0.33-1.6c0.217-1.053,0.133-1.659-0.081-1.925
		c-0.04-0.057-0.101-0.096-0.169-0.109c-0.083-0.008-0.168,0.01-0.241,0.052c-0.393,0.26-0.644,0.687-0.678,1.157l-0.16,1.085
		c-0.067,0.343-0.077,0.695-0.029,1.041c0.045,0.273,0.226,0.504,0.479,0.614c0.193,0.088,0.278,0.317,0.189,0.51
		c-0.088,0.193-0.317,0.278-0.51,0.19c-0.479-0.207-0.821-0.643-0.908-1.157c-0.069-0.433-0.063-0.875,0.02-1.305l0.16-1.085
		c0.072-0.716,0.476-1.357,1.091-1.73c0.217-0.115,0.464-0.158,0.707-0.123c0.257,0.042,0.487,0.181,0.645,0.387
		c0.437,0.78,0.522,1.709,0.235,2.556l-0.33,1.6c-0.125,0.855-0.467,1.665-0.994,2.35c-0.673,0.729-1.75,0.921-2.633,0.47V12.659z
		 M14.766,12.659c-0.2-0.068-0.308-0.286-0.239-0.486c0.068-0.2,0.286-0.307,0.486-0.239c0.005,0.002,0.01,0.003,0.014,0.005
		c0.594,0.323,1.33,0.215,1.806-0.265c0.432-0.586,0.71-1.27,0.81-1.991l0.33-1.6c0.217-1.053,0.133-1.659-0.081-1.925
		c-0.041-0.057-0.101-0.095-0.169-0.109c-0.084-0.008-0.168,0.01-0.241,0.052c-0.393,0.26-0.643,0.687-0.678,1.157l-0.16,1.085
		c-0.067,0.343-0.077,0.695-0.029,1.041c0.045,0.273,0.226,0.504,0.479,0.614c0.193,0.088,0.278,0.317,0.189,0.51
		c-0.089,0.193-0.317,0.278-0.511,0.19c-0.479-0.207-0.821-0.643-0.908-1.157c-0.068-0.433-0.062-0.875,0.02-1.305l0.161-1.085
		c0.071-0.716,0.476-1.357,1.091-1.73c0.216-0.115,0.464-0.158,0.707-0.123c0.256,0.042,0.488,0.181,0.646,0.387
		c0.437,0.78,0.522,1.709,0.234,2.556l-0.329,1.6c-0.125,0.855-0.466,1.665-0.993,2.35c-0.673,0.731-1.751,0.923-2.636,0.47V12.659z
		 M14.01,12.117c-0.136,0.161-0.377,0.182-0.538,0.046c-0.162-0.136-0.183-0.377-0.047-0.539l0,0
		c0.201-0.254,0.358-0.541,0.465-0.847c0.128-0.358,0.229-0.726,0.3-1.1l0.33-1.6c0.217-1.053,0.132-1.659-0.082-1.925
		c-0.04-0.056-0.1-0.095-0.168-0.109c-0.084-0.008-0.168,0.01-0.241,0.052c-0.393,0.26-0.644,0.688-0.678,1.157l-0.16,1.085
		c-0.067,0.343-0.077,0.695-0.029,1.041c0.045,0.273,0.226,0.504,0.479,0.614c0.193,0.088,0.278,0.317,0.189,0.51
		c-0.089,0.193-0.317,0.278-0.511,0.189c-0.479-0.207-0.821-0.642-0.908-1.157c-0.068-0.433-0.062-0.875,0.02-1.305l0.16-1.085
		c0.072-0.716,0.477-1.357,1.092-1.73c0.216-0.115,0.464-0.158,0.707-0.123c0.257,0.042,0.488,0.181,0.646,0.387
		c0.437,0.78,0.522,1.709,0.234,2.556l-0.329,1.6c-0.081,0.412-0.193,0.817-0.336,1.212C14.469,11.435,14.268,11.796,14.01,12.117
		L14.01,12.117z M22.433,12.134l-0.046,0.179c0.127,0.015,0.257,0.003,0.38-0.034c0.024-0.007,0.046-0.02,0.065-0.037l0,0
		c0.006-0.007,0.011-0.015,0.013-0.023c0.009-0.084-0.004-0.169-0.04-0.246c-0.146-0.332-0.152-0.5-0.177-0.5l0,0
		c-0.094,0.206-0.158,0.425-0.192,0.649L22.433,12.134z M20.983,27.703c-0.383-2.956-0.757-13.175,0.706-15.752l0,0
		c0.164-0.7,0.406-1.124,0.739-1.215l0,0c0.389-0.105,0.751,0.187,1.085,0.939l0.009,0.023c0.094,0.224,0.116,0.472,0.065,0.71
		c-0.035,0.143-0.109,0.273-0.213,0.377l0,0c-0.098,0.095-0.215,0.168-0.344,0.214c-0.268,0.085-0.553,0.106-0.831,0.062
		c-1.272,2.456-0.787,12.195-0.451,14.643L20.983,27.703z M16.266,27.634c1.156-3.067-1.612-12.969-3.8-14.574
		c-0.277,0.044-0.562,0.023-0.83-0.062c-0.129-0.045-0.247-0.119-0.345-0.214l0,0c-0.104-0.104-0.178-0.234-0.213-0.377
		c-0.052-0.238-0.029-0.486,0.065-0.71l0.009-0.023c0.334-0.752,0.7-1.044,1.085-0.939l0,0c0.333,0.092,0.575,0.514,0.74,1.215l0,0
		c1.884,1.769,5.106,11.885,4.052,15.683L16.266,27.634z"/>
</g>
</svg>
