<svg xmlns="http://www.w3.org/2000/svg" width="31.81" height="30.75" viewBox="0 0 31.81 30.75"><defs><style>.a{fill:#fff;}</style></defs><g transform="translate(0 0)"><path class="a" d="M21.543,17.543a.533.533,0,0,1-.226-.05L12.3,13.251a.53.53,0,0,1,0-.96L21.317,8.05a.53.53,0,0,1,.452,0l9.013,4.241a.53.53,0,0,1,0,.96l-9.013,4.241A.533.533,0,0,1,21.543,17.543Zm-7.768-4.772,7.768,3.656,7.768-3.656L21.543,9.116Z" transform="translate(-5.638 -3.759)"/><path class="a" d="M23.892,26.649a.531.531,0,0,1-.237-.056l-6.362-3.181A.531.531,0,0,1,17,22.937V18.883a.53.53,0,0,1,.755-.48l6.137,2.888L30.028,18.4a.531.531,0,0,1,.756.48v4.054a.531.531,0,0,1-.293.475l-6.362,3.181A.531.531,0,0,1,23.892,26.649ZM18.06,22.61l5.832,2.916,5.832-2.916V19.719l-5.606,2.638a.53.53,0,0,1-.452,0L18.06,19.719Z" transform="translate(-7.987 -8.623)"/><path class="a" d="M38.543,17.06H29.53a.53.53,0,1,1,0-1.06h9.013a.53.53,0,1,1,0,1.06Z" transform="translate(-13.625 -7.517)"/><path class="a" d="M46.53,21.832A.53.53,0,0,1,46,21.3V16.53a.53.53,0,1,1,1.06,0V21.3A.53.53,0,0,1,46.53,21.832Z" transform="translate(-21.612 -7.517)"/><path class="a" d="M29.53,17.181a.53.53,0,0,1-.53-.53V14.53a.53.53,0,1,1,1.06,0v2.121A.53.53,0,0,1,29.53,17.181Z" transform="translate(-13.625 -6.578)"/><path class="a" d="M44.53,27.65a.53.53,0,0,1-.441-.824l1.06-1.591a.53.53,0,0,1,.882.588l-1.06,1.591A.53.53,0,0,1,44.53,27.65Z" transform="translate(-20.672 -11.745)"/><path class="a" d="M47.591,27.65a.53.53,0,0,1-.442-.236l-1.06-1.591a.53.53,0,1,1,.882-.588l1.06,1.591a.53.53,0,0,1-.441.824Z" transform="translate(-21.612 -11.745)"/><path class="a" d="M29.53,26.651a.53.53,0,0,1-.53-.53V24.53a.53.53,0,0,1,1.06,0v1.591A.53.53,0,0,1,29.53,26.651Z" transform="translate(-13.625 -11.276)"/><path class="a" d="M31.28,20.147H.53a.53.53,0,0,1-.53-.53V2.121A2.124,2.124,0,0,1,2.121,0H29.689A2.124,2.124,0,0,1,31.81,2.121v17.5A.53.53,0,0,1,31.28,20.147ZM1.06,19.086H30.75V2.121A1.062,1.062,0,0,0,29.689,1.06H2.121A1.062,1.062,0,0,0,1.06,2.121Z"/><path class="a" d="M29.689,41.3H2.121A2.124,2.124,0,0,1,0,39.181V36.53A.53.53,0,0,1,.53,36H31.28a.53.53,0,0,1,.53.53v2.65A2.124,2.124,0,0,1,29.689,41.3ZM1.06,37.06v2.12a1.062,1.062,0,0,0,1.061,1.061H29.689a1.062,1.062,0,0,0,1.061-1.061V37.06Z" transform="translate(0 -16.914)"/><path class="a" d="M29.711,41.06H26.53a.53.53,0,1,1,0-1.06h3.181a.53.53,0,1,1,0,1.06Z" transform="translate(-12.216 -18.793)"/><path class="a" d="M31.039,22.026H4.53A.53.53,0,0,1,4,21.5V4.53A.53.53,0,0,1,4.53,4H31.039a.53.53,0,0,1,.53.53V21.5A.53.53,0,0,1,31.039,22.026ZM5.06,20.966H30.509V5.06H5.06Z" transform="translate(-1.879 -1.879)"/><path class="a" d="M29.375,55.181H15.591a1.591,1.591,0,1,1,0-3.181H29.375a1.591,1.591,0,1,1,0,3.181ZM15.591,53.06a.53.53,0,1,0,0,1.06H29.375a.53.53,0,1,0,0-1.06Z" transform="translate(-6.578 -24.431)"/><path class="a" d="M30.194,49.3H18.53a.53.53,0,1,1,0-1.06c1.759,0,2.651-1.249,2.651-3.711a.53.53,0,0,1,.53-.53h5.3a.53.53,0,0,1,.53.53c0,2.463.892,3.711,2.651,3.711a.53.53,0,1,1,0,1.06Zm-9.081-1.06h6.5A5.073,5.073,0,0,1,26.5,45.06H22.227A5.076,5.076,0,0,1,21.113,48.241Z" transform="translate(-8.457 -20.672)"/></g></svg>