<svg xmlns="http://www.w3.org/2000/svg" width="28.926" height="34.501" viewBox="0 0 28.926 34.501"><defs><style>.a,.b{fill:#fff;}.a{stroke:#fff;stroke-width:0.3px;}</style></defs><g transform="translate(0.15 0)"><path class="a" d="M33.149,13.588a2.256,2.256,0,0,0,.332-1.145,2.29,2.29,0,0,0-4.58,0,2.239,2.239,0,0,0,.321,1.145H27.5a7.059,7.059,0,0,0,.252-1.718,6.87,6.87,0,1,0-13.74,0,7.059,7.059,0,0,0,.223,1.718H7.718A1.718,1.718,0,0,0,6,15.305V30.191a1.718,1.718,0,0,0,1.718,1.718h6.945L13.134,34.2H11.725a1.718,1.718,0,0,0-1.718,1.718v1.145a.573.573,0,0,0,.573.573H30.046a.573.573,0,0,0,.573-.573V35.916A1.718,1.718,0,0,0,28.9,34.2H27.492l-1.529-2.29h6.945a1.718,1.718,0,0,0,1.718-1.718V15.305A1.718,1.718,0,0,0,33.149,13.588Zm-3.1-1.145a1.145,1.145,0,1,1,1.145,1.145A1.145,1.145,0,0,1,30.046,12.443Zm-9.16-6.3A5.725,5.725,0,1,1,15.16,11.87,5.725,5.725,0,0,1,20.885,6.145ZM19.5,22.748a1.145,1.145,0,0,1-1.323.927l-3.922-.693a.581.581,0,0,0-.2,1.145l3.922.693a2.37,2.37,0,0,0,.4.034,2.29,2.29,0,0,0,2.015-1.219l1.334.115a1.718,1.718,0,0,0,1.311-.429l3.389-3.114a1.145,1.145,0,0,1,1.66.12,1.214,1.214,0,0,1-.183,1.637l-5.038,4.62a2.863,2.863,0,0,1-1.935.744H10.723v-6.87h2.261l5.611.985a1.145,1.145,0,0,1,.9,1.305ZM9.578,28.473H7.145v-9.16H9.578Zm19.895,7.443v.573H11.153v-.573a.573.573,0,0,1,.573-.573H28.9A.573.573,0,0,1,29.473,35.916ZM26.112,34.2h-11.6l1.529-2.29h8.542Zm7.368-4.008a.573.573,0,0,1-.573.573H7.718a.573.573,0,0,1-.573-.573v-.573h3.006a.573.573,0,0,0,.573-.573v-.573H20.931a4.008,4.008,0,0,0,2.708-1.053l5.038-4.62a2.33,2.33,0,0,0,.292-3.206,2.239,2.239,0,0,0-1.609-.853,2.29,2.29,0,0,0-1.718.573l-3.389,3.109a.573.573,0,0,1-.441.149l-1.145-.1a2.29,2.29,0,0,0-1.889-2.2l-5.645-.956a.286.286,0,0,0-.1,0h-2.29V18.74a.573.573,0,0,0-.573-.573H7.145V15.305a.573.573,0,0,1,.573-.573h6.933a6.87,6.87,0,0,0,12.469,0h5.788a.573.573,0,0,1,.573.573Z" transform="translate(-6 -3.282)"/><path class="b" d="M12.29,12.58A2.29,2.29,0,1,0,10,10.29,2.29,2.29,0,0,0,12.29,12.58Zm0-3.435a1.145,1.145,0,1,1-1.145,1.145A1.145,1.145,0,0,1,12.29,9.145Z" transform="translate(-7.71 -4.565)"/><path class="b" d="M49.573,7.725a.573.573,0,0,0,.573-.573V2.573a.573.573,0,1,0-1.145,0v4.58A.573.573,0,0,0,49.573,7.725Z" transform="translate(-24.382 -2)"/><path class="b" d="M43.573,6.008a.573.573,0,0,0,.573-.573V2.573a.573.573,0,1,0-1.145,0V5.435A.573.573,0,0,0,43.573,6.008Z" transform="translate(-21.817 -2)"/><path class="b" d="M20.573,5.435a.573.573,0,0,0,.573-.573V2.573a.573.573,0,0,0-1.145,0v2.29A.573.573,0,0,0,20.573,5.435Z" transform="translate(-11.985 -2)"/><path class="b" d="M13.573,4.29a.573.573,0,0,0,.573-.573V2.573a.573.573,0,1,0-1.145,0V3.718A.573.573,0,0,0,13.573,4.29Z" transform="translate(-8.992 -2)"/><path class="b" d="M30.5,15.87a.859.859,0,0,1-.859-.859.573.573,0,1,0-1.145,0,2,2,0,0,0,1.431,1.912v.664a.573.573,0,1,0,1.145,0v-.664a2,2,0,0,0-.573-3.916.859.859,0,1,1,.859-.859.573.573,0,1,0,1.145,0,2,2,0,0,0-1.431-1.912V9.573a.573.573,0,1,0-1.145,0v.664a2,2,0,0,0,.573,3.916.859.859,0,1,1,0,1.718Z" transform="translate(-15.613 -4.992)"/></g></svg>